   0
SECTION
   2
ENTITIES
   0
LINE
8
0
  10
 140.700
  20
   0.000
  11
 140.247
  21
   0.003
   0
LINE
8
0
  10
 140.247
  20
   0.003
  11
 138.885
  21
   0.035
   0
LINE
8
0
  10
 138.885
  20
   0.035
  11
 136.637
  21
   0.146
   0
LINE
8
0
  10
 136.637
  20
   0.146
  11
 133.551
  21
   0.371
   0
LINE
8
0
  10
 133.551
  20
   0.371
  11
 129.686
  21
   0.732
   0
LINE
8
0
  10
 129.686
  20
   0.732
  11
 125.112
  21
   1.249
   0
LINE
8
0
  10
 125.112
  20
   1.249
  11
 119.920
  21
   1.929
   0
LINE
8
0
  10
 119.920
  20
   1.929
  11
 114.202
  21
   2.749
   0
LINE
8
0
  10
 114.202
  20
   2.749
  11
 108.051
  21
   3.681
   0
LINE
8
0
  10
 108.051
  20
   3.681
  11
 101.554
  21
   4.685
   0
LINE
8
0
  10
 101.554
  20
   4.685
  11
  94.802
  21
   5.718
   0
LINE
8
0
  10
  94.802
  20
   5.718
  11
  87.870
  21
   6.721
   0
LINE
8
0
  10
  87.870
  20
   6.721
  11
  80.822
  21
   7.653
   0
LINE
8
0
  10
  80.822
  20
   7.653
  11
  73.721
  21
   8.474
   0
LINE
8
0
  10
  73.721
  20
   8.474
  11
  66.624
  21
   9.169
   0
LINE
8
0
  10
  66.624
  20
   9.169
  11
  59.596
  21
   9.722
   0
LINE
8
0
  10
  59.596
  20
   9.722
  11
  52.706
  21
  10.126
   0
LINE
8
0
  10
  52.706
  20
  10.126
  11
  46.024
  21
  10.367
   0
LINE
8
0
  10
  46.024
  20
  10.367
  11
  39.617
  21
  10.434
   0
LINE
8
0
  10
  39.617
  20
  10.434
  11
  33.546
  21
  10.316
   0
LINE
8
0
  10
  33.546
  20
  10.316
  11
  27.863
  21
  10.002
   0
LINE
8
0
  10
  27.863
  20
  10.002
  11
  22.615
  21
   9.494
   0
LINE
8
0
  10
  22.615
  20
   9.494
  11
  17.845
  21
   8.797
   0
LINE
8
0
  10
  17.845
  20
   8.797
  11
  13.589
  21
   7.921
   0
LINE
8
0
  10
  13.589
  20
   7.921
  11
   9.881
  21
   6.887
   0
LINE
8
0
  10
   9.881
  20
   6.887
  11
   6.745
  21
   5.717
   0
LINE
8
0
  10
   6.745
  20
   5.717
  11
   4.194
  21
   4.439
   0
LINE
8
0
  10
   4.194
  20
   4.439
  11
   2.236
  21
   3.109
   0
LINE
8
0
  10
   2.236
  20
   3.109
  11
   0.877
  21
   1.788
   0
LINE
8
0
  10
   0.877
  20
   1.788
  11
   0.280
  21
   0.908
   0
LINE
8
0
  10
   0.280
  20
   0.908
  11
   0.127
  21
   0.567
   0
LINE
8
0
  10
   0.127
  20
   0.567
  11
   0.031
  21
   0.252
   0
LINE
8
0
  10
   0.031
  20
   0.252
  11
   0.001
  21
   0.059
   0
LINE
8
0
  10
   0.001
  20
   0.059
  11
   0.008
  21
  -0.118
   0
LINE
8
0
  10
   0.008
  20
  -0.118
  11
   0.062
  21
  -0.301
   0
LINE
8
0
  10
   0.062
  20
  -0.301
  11
   0.159
  21
  -0.488
   0
LINE
8
0
  10
   0.159
  20
  -0.488
  11
   0.370
  21
  -0.781
   0
LINE
8
0
  10
   0.370
  20
  -0.781
  11
   0.650
  21
  -1.083
   0
LINE
8
0
  10
   0.650
  20
  -1.083
  11
   0.976
  21
  -1.379
   0
LINE
8
0
  10
   0.976
  20
  -1.379
  11
   2.580
  21
  -2.403
   0
LINE
8
0
  10
   2.580
  20
  -2.403
  11
   4.878
  21
  -3.388
   0
LINE
8
0
  10
   4.878
  20
  -3.388
  11
   7.837
  21
  -4.286
   0
LINE
8
0
  10
   7.837
  20
  -4.286
  11
  11.429
  21
  -5.059
   0
LINE
8
0
  10
  11.429
  20
  -5.059
  11
  15.629
  21
  -5.679
   0
LINE
8
0
  10
  15.629
  20
  -5.679
  11
  20.411
  21
  -6.126
   0
LINE
8
0
  10
  20.411
  20
  -6.126
  11
  25.742
  21
  -6.400
   0
LINE
8
0
  10
  25.742
  20
  -6.400
  11
  31.584
  21
  -6.506
   0
LINE
8
0
  10
  31.584
  20
  -6.506
  11
  37.882
  21
  -6.462
   0
LINE
8
0
  10
  37.882
  20
  -6.462
  11
  44.574
  21
  -6.284
   0
LINE
8
0
  10
  44.574
  20
  -6.284
  11
  51.590
  21
  -5.992
   0
LINE
8
0
  10
  51.590
  20
  -5.992
  11
  58.855
  21
  -5.607
   0
LINE
8
0
  10
  58.855
  20
  -5.607
  11
  66.288
  21
  -5.152
   0
LINE
8
0
  10
  66.288
  20
  -5.152
  11
  73.801
  21
  -4.647
   0
LINE
8
0
  10
  73.801
  20
  -4.647
  11
  81.303
  21
  -4.114
   0
LINE
8
0
  10
  81.303
  20
  -4.114
  11
  88.703
  21
  -3.568
   0
LINE
8
0
  10
  88.703
  20
  -3.568
  11
  95.910
  21
  -3.026
   0
LINE
8
0
  10
  95.910
  20
  -3.026
  11
 102.833
  21
  -2.507
   0
LINE
8
0
  10
 102.833
  20
  -2.507
  11
 109.389
  21
  -2.023
   0
LINE
8
0
  10
 109.389
  20
  -2.023
  11
 115.498
  21
  -1.589
   0
LINE
8
0
  10
 115.498
  20
  -1.589
  11
 121.084
  21
  -1.209
   0
LINE
8
0
  10
 121.084
  20
  -1.209
  11
 126.076
  21
  -0.891
   0
LINE
8
0
  10
 126.076
  20
  -0.891
  11
 130.411
  21
  -0.632
   0
LINE
8
0
  10
 130.411
  20
  -0.632
  11
 134.034
  21
  -0.425
   0
LINE
8
0
  10
 134.034
  20
  -0.425
  11
 136.900
  21
  -0.263
   0
LINE
8
0
  10
 136.900
  20
  -0.263
  11
 138.979
  21
  -0.129
   0
LINE
8
0
  10
 138.979
  20
  -0.129
  11
 140.260
  21
  -0.034
   0
ENDSEC
   0
EOF
