   0
SECTION
   2
ENTITIES
   0
LINE
8
0
  10
 140.700
  20
   0.000
  11
 140.567
  21
  -0.007
   0
LINE
8
0
  10
 140.567
  20
  -0.007
  11
 140.164
  21
  -0.027
   0
LINE
8
0
  10
 140.164
  20
  -0.027
  11
 139.487
  21
  -0.053
   0
LINE
8
0
  10
 139.487
  20
  -0.053
  11
 138.532
  21
  -0.071
   0
LINE
8
0
  10
 138.532
  20
  -0.071
  11
 137.306
  21
  -0.065
   0
LINE
8
0
  10
 137.306
  20
  -0.065
  11
 135.822
  21
  -0.027
   0
LINE
8
0
  10
 135.822
  20
  -0.027
  11
 134.092
  21
   0.045
   0
LINE
8
0
  10
 134.092
  20
   0.045
  11
 132.124
  21
   0.154
   0
LINE
8
0
  10
 132.124
  20
   0.154
  11
 129.930
  21
   0.304
   0
LINE
8
0
  10
 129.930
  20
   0.304
  11
 127.520
  21
   0.500
   0
LINE
8
0
  10
 127.520
  20
   0.500
  11
 124.910
  21
   0.747
   0
LINE
8
0
  10
 124.910
  20
   0.747
  11
 122.119
  21
   1.045
   0
LINE
8
0
  10
 122.119
  20
   1.045
  11
 119.166
  21
   1.391
   0
LINE
8
0
  10
 119.166
  20
   1.391
  11
 116.066
  21
   1.780
   0
LINE
8
0
  10
 116.066
  20
   1.780
  11
 112.833
  21
   2.208
   0
LINE
8
0
  10
 112.833
  20
   2.208
  11
 109.484
  21
   2.670
   0
LINE
8
0
  10
 109.484
  20
   2.670
  11
 106.034
  21
   3.162
   0
LINE
8
0
  10
 106.034
  20
   3.162
  11
 102.500
  21
   3.675
   0
LINE
8
0
  10
 102.500
  20
   3.675
  11
  98.895
  21
   4.201
   0
LINE
8
0
  10
  98.895
  20
   4.201
  11
  95.232
  21
   4.735
   0
LINE
8
0
  10
  95.232
  20
   4.735
  11
  91.527
  21
   5.268
   0
LINE
8
0
  10
  91.527
  20
   5.268
  11
  87.794
  21
   5.786
   0
LINE
8
0
  10
  87.794
  20
   5.786
  11
  84.034
  21
   6.279
   0
LINE
8
0
  10
  84.034
  20
   6.279
  11
  80.254
  21
   6.747
   0
LINE
8
0
  10
  80.254
  20
   6.747
  11
  76.468
  21
   7.187
   0
LINE
8
0
  10
  76.468
  20
   7.187
  11
  72.687
  21
   7.589
   0
LINE
8
0
  10
  72.687
  20
   7.589
  11
  68.911
  21
   7.948
   0
LINE
8
0
  10
  68.911
  20
   7.948
  11
  65.148
  21
   8.268
   0
LINE
8
0
  10
  65.148
  20
   8.268
  11
  61.411
  21
   8.549
   0
LINE
8
0
  10
  61.411
  20
   8.549
  11
  57.711
  21
   8.787
   0
LINE
8
0
  10
  57.711
  20
   8.787
  11
  54.054
  21
   8.981
   0
LINE
8
0
  10
  54.054
  20
   8.981
  11
  50.452
  21
   9.133
   0
LINE
8
0
  10
  50.452
  20
   9.133
  11
  46.917
  21
   9.242
   0
LINE
8
0
  10
  46.917
  20
   9.242
  11
  43.458
  21
   9.304
   0
LINE
8
0
  10
  43.458
  20
   9.304
  11
  40.083
  21
   9.319
   0
LINE
8
0
  10
  40.083
  20
   9.319
  11
  36.802
  21
   9.289
   0
LINE
8
0
  10
  36.802
  20
   9.289
  11
  33.627
  21
   9.210
   0
LINE
8
0
  10
  33.627
  20
   9.210
  11
  30.563
  21
   9.078
   0
LINE
8
0
  10
  30.563
  20
   9.078
  11
  27.612
  21
   8.895
   0
LINE
8
0
  10
  27.612
  20
   8.895
  11
  24.785
  21
   8.667
   0
LINE
8
0
  10
  24.785
  20
   8.667
  11
  22.090
  21
   8.391
   0
LINE
8
0
  10
  22.090
  20
   8.391
  11
  19.531
  21
   8.065
   0
LINE
8
0
  10
  19.531
  20
   8.065
  11
  17.110
  21
   7.694
   0
LINE
8
0
  10
  17.110
  20
   7.694
  11
  14.835
  21
   7.284
   0
LINE
8
0
  10
  14.835
  20
   7.284
  11
  12.713
  21
   6.834
   0
LINE
8
0
  10
  12.713
  20
   6.834
  11
  10.746
  21
   6.346
   0
LINE
8
0
  10
  10.746
  20
   6.346
  11
   8.937
  21
   5.825
   0
LINE
8
0
  10
   8.937
  20
   5.825
  11
   7.291
  21
   5.276
   0
LINE
8
0
  10
   7.291
  20
   5.276
  11
   5.814
  21
   4.698
   0
LINE
8
0
  10
   5.814
  20
   4.698
  11
   4.499
  21
   4.094
   0
LINE
8
0
  10
   4.499
  20
   4.094
  11
   3.347
  21
   3.475
   0
LINE
8
0
  10
   3.347
  20
   3.475
  11
   2.363
  21
   2.851
   0
LINE
8
0
  10
   2.363
  20
   2.851
  11
   1.549
  21
   2.226
   0
LINE
8
0
  10
   1.549
  20
   2.226
  11
   0.902
  21
   1.608
   0
LINE
8
0
  10
   0.902
  20
   1.608
  11
   0.422
  21
   1.016
   0
LINE
8
0
  10
   0.422
  20
   1.016
  11
   0.117
  21
   0.467
   0
LINE
8
0
  10
   0.117
  20
   0.467
  11
   0.000
  21
  -0.016
   0
LINE
8
0
  10
   0.000
  20
  -0.016
  11
   0.135
  21
  -0.424
   0
LINE
8
0
  10
   0.135
  20
  -0.424
  11
   0.544
  21
  -0.808
   0
LINE
8
0
  10
   0.544
  20
  -0.808
  11
   1.185
  21
  -1.205
   0
LINE
8
0
  10
   1.185
  20
  -1.205
  11
   2.037
  21
  -1.604
   0
LINE
8
0
  10
   2.037
  20
  -1.604
  11
   3.093
  21
  -1.997
   0
LINE
8
0
  10
   3.093
  20
  -1.997
  11
   4.348
  21
  -2.378
   0
LINE
8
0
  10
   4.348
  20
  -2.378
  11
   5.799
  21
  -2.744
   0
LINE
8
0
  10
   5.799
  20
  -2.744
  11
   7.439
  21
  -3.093
   0
LINE
8
0
  10
   7.439
  20
  -3.093
  11
   9.262
  21
  -3.419
   0
LINE
8
0
  10
   9.262
  20
  -3.419
  11
  11.266
  21
  -3.719
   0
LINE
8
0
  10
  11.266
  20
  -3.719
  11
  13.443
  21
  -3.993
   0
LINE
8
0
  10
  13.443
  20
  -3.993
  11
  15.787
  21
  -4.235
   0
LINE
8
0
  10
  15.787
  20
  -4.235
  11
  18.293
  21
  -4.442
   0
LINE
8
0
  10
  18.293
  20
  -4.442
  11
  20.962
  21
  -4.612
   0
LINE
8
0
  10
  20.962
  20
  -4.612
  11
  23.784
  21
  -4.748
   0
LINE
8
0
  10
  23.784
  20
  -4.748
  11
  26.752
  21
  -4.851
   0
LINE
8
0
  10
  26.752
  20
  -4.851
  11
  29.859
  21
  -4.915
   0
LINE
8
0
  10
  29.859
  20
  -4.915
  11
  33.102
  21
  -4.946
   0
LINE
8
0
  10
  33.102
  20
  -4.946
  11
  36.470
  21
  -4.947
   0
LINE
8
0
  10
  36.470
  20
  -4.947
  11
  39.952
  21
  -4.920
   0
LINE
8
0
  10
  39.952
  20
  -4.920
  11
  43.539
  21
  -4.864
   0
LINE
8
0
  10
  43.539
  20
  -4.864
  11
  47.222
  21
  -4.784
   0
LINE
8
0
  10
  47.222
  20
  -4.784
  11
  50.988
  21
  -4.682
   0
LINE
8
0
  10
  50.988
  20
  -4.682
  11
  54.824
  21
  -4.559
   0
LINE
8
0
  10
  54.824
  20
  -4.559
  11
  58.721
  21
  -4.417
   0
LINE
8
0
  10
  58.721
  20
  -4.417
  11
  62.666
  21
  -4.259
   0
LINE
8
0
  10
  62.666
  20
  -4.259
  11
  66.646
  21
  -4.088
   0
LINE
8
0
  10
  66.646
  20
  -4.088
  11
  70.648
  21
  -3.907
   0
LINE
8
0
  10
  70.648
  20
  -3.907
  11
  74.658
  21
  -3.718
   0
LINE
8
0
  10
  74.658
  20
  -3.718
  11
  78.663
  21
  -3.523
   0
LINE
8
0
  10
  78.663
  20
  -3.523
  11
  82.648
  21
  -3.324
   0
LINE
8
0
  10
  82.648
  20
  -3.324
  11
  86.600
  21
  -3.123
   0
LINE
8
0
  10
  86.600
  20
  -3.123
  11
  90.505
  21
  -2.922
   0
LINE
8
0
  10
  90.505
  20
  -2.922
  11
  94.349
  21
  -2.722
   0
LINE
8
0
  10
  94.349
  20
  -2.722
  11
  98.118
  21
  -2.524
   0
LINE
8
0
  10
  98.118
  20
  -2.524
  11
 101.800
  21
  -2.330
   0
LINE
8
0
  10
 101.800
  20
  -2.330
  11
 105.380
  21
  -2.140
   0
LINE
8
0
  10
 105.380
  20
  -2.140
  11
 108.847
  21
  -1.955
   0
LINE
8
0
  10
 108.847
  20
  -1.955
  11
 112.189
  21
  -1.776
   0
LINE
8
0
  10
 112.189
  20
  -1.776
  11
 115.393
  21
  -1.603
   0
LINE
8
0
  10
 115.393
  20
  -1.603
  11
 118.448
  21
  -1.437
   0
LINE
8
0
  10
 118.448
  20
  -1.437
  11
 121.344
  21
  -1.279
   0
LINE
8
0
  10
 121.344
  20
  -1.279
  11
 124.071
  21
  -1.128
   0
LINE
8
0
  10
 124.071
  20
  -1.128
  11
 126.617
  21
  -0.987
   0
LINE
8
0
  10
 126.617
  20
  -0.987
  11
 128.974
  21
  -0.854
   0
LINE
8
0
  10
 128.974
  20
  -0.854
  11
 131.133
  21
  -0.729
   0
LINE
8
0
  10
 131.133
  20
  -0.729
  11
 133.086
  21
  -0.612
   0
LINE
8
0
  10
 133.086
  20
  -0.612
  11
 134.827
  21
  -0.503
   0
LINE
8
0
  10
 134.827
  20
  -0.503
  11
 136.348
  21
  -0.401
   0
LINE
8
0
  10
 136.348
  20
  -0.401
  11
 137.644
  21
  -0.305
   0
LINE
8
0
  10
 137.644
  20
  -0.305
  11
 138.713
  21
  -0.211
   0
LINE
8
0
  10
 138.713
  20
  -0.211
  11
 139.560
  21
  -0.123
   0
LINE
8
0
  10
 139.560
  20
  -0.123
  11
 140.183
  21
  -0.053
   0
LINE
8
0
  10
 140.183
  20
  -0.053
  11
 140.569
  21
  -0.012
   0
LINE
8
0
  10
 140.569
  20
  -0.012
  11
 140.700
  21
   0.000
   0
ENDSEC
   0
EOF
