   0
SECTION
   2
ENTITIES
   0
LINE
8
0
  10
 120.000
  20
   0.000
  11
 119.613
  21
  -0.002
   0
LINE
8
0
  10
 119.613
  20
  -0.002
  11
 118.452
  21
   0.009
   0
LINE
8
0
  10
 118.452
  20
   0.009
  11
 116.535
  21
   0.074
   0
LINE
8
0
  10
 116.535
  20
   0.074
  11
 113.903
  21
   0.217
   0
LINE
8
0
  10
 113.903
  20
   0.217
  11
 110.606
  21
   0.454
   0
LINE
8
0
  10
 110.606
  20
   0.454
  11
 106.705
  21
   0.799
   0
LINE
8
0
  10
 106.705
  20
   0.799
  11
 102.277
  21
   1.256
   0
LINE
8
0
  10
 102.277
  20
   1.256
  11
  97.401
  21
   1.809
   0
LINE
8
0
  10
  97.401
  20
   1.809
  11
  92.154
  21
   2.437
   0
LINE
8
0
  10
  92.154
  20
   2.437
  11
  86.613
  21
   3.114
   0
LINE
8
0
  10
  86.613
  20
   3.114
  11
  80.854
  21
   3.808
   0
LINE
8
0
  10
  80.854
  20
   3.808
  11
  74.942
  21
   4.480
   0
LINE
8
0
  10
  74.942
  20
   4.480
  11
  68.932
  21
   5.098
   0
LINE
8
0
  10
  68.932
  20
   5.098
  11
  62.876
  21
   5.640
   0
LINE
8
0
  10
  62.876
  20
   5.640
  11
  56.823
  21
   6.090
   0
LINE
8
0
  10
  56.823
  20
   6.090
  11
  50.828
  21
   6.442
   0
LINE
8
0
  10
  50.828
  20
   6.442
  11
  44.952
  21
   6.692
   0
LINE
8
0
  10
  44.952
  20
   6.692
  11
  39.253
  21
   6.833
   0
LINE
8
0
  10
  39.253
  20
   6.833
  11
  33.788
  21
   6.859
   0
LINE
8
0
  10
  33.788
  20
   6.859
  11
  28.610
  21
   6.762
   0
LINE
8
0
  10
  28.610
  20
   6.762
  11
  23.763
  21
   6.539
   0
LINE
8
0
  10
  23.763
  20
   6.539
  11
  19.288
  21
   6.191
   0
LINE
8
0
  10
  19.288
  20
   6.191
  11
  15.219
  21
   5.722
   0
LINE
8
0
  10
  15.219
  20
   5.722
  11
  11.589
  21
   5.143
   0
LINE
8
0
  10
  11.589
  20
   5.143
  11
   8.427
  21
   4.465
   0
LINE
8
0
  10
   8.427
  20
   4.465
  11
   5.753
  21
   3.701
   0
LINE
8
0
  10
   5.753
  20
   3.701
  11
   3.577
  21
   2.870
   0
LINE
8
0
  10
   3.577
  20
   2.870
  11
   1.907
  21
   2.007
   0
LINE
8
0
  10
   1.907
  20
   2.007
  11
   0.747
  21
   1.152
   0
LINE
8
0
  10
   0.747
  20
   1.152
  11
   0.239
  21
   0.584
   0
LINE
8
0
  10
   0.239
  20
   0.584
  11
   0.108
  21
   0.362
   0
LINE
8
0
  10
   0.108
  20
   0.362
  11
   0.026
  21
   0.158
   0
LINE
8
0
  10
   0.026
  20
   0.158
  11
   0.001
  21
   0.035
   0
LINE
8
0
  10
   0.001
  20
   0.035
  11
   0.007
  21
  -0.073
   0
LINE
8
0
  10
   0.007
  20
  -0.073
  11
   0.053
  21
  -0.174
   0
LINE
8
0
  10
   0.053
  20
  -0.174
  11
   0.136
  21
  -0.279
   0
LINE
8
0
  10
   0.136
  20
  -0.279
  11
   0.316
  21
  -0.442
   0
LINE
8
0
  10
   0.316
  20
  -0.442
  11
   0.554
  21
  -0.611
   0
LINE
8
0
  10
   0.554
  20
  -0.611
  11
   0.833
  21
  -0.778
   0
LINE
8
0
  10
   0.833
  20
  -0.778
  11
   2.201
  21
  -1.350
   0
LINE
8
0
  10
   2.201
  20
  -1.350
  11
   4.160
  21
  -1.896
   0
LINE
8
0
  10
   4.160
  20
  -1.896
  11
   6.684
  21
  -2.390
   0
LINE
8
0
  10
   6.684
  20
  -2.390
  11
   9.748
  21
  -2.812
   0
LINE
8
0
  10
   9.748
  20
  -2.812
  11
  13.330
  21
  -3.142
   0
LINE
8
0
  10
  13.330
  20
  -3.142
  11
  17.408
  21
  -3.369
   0
LINE
8
0
  10
  17.408
  20
  -3.369
  11
  21.955
  21
  -3.494
   0
LINE
8
0
  10
  21.955
  20
  -3.494
  11
  26.937
  21
  -3.523
   0
LINE
8
0
  10
  26.937
  20
  -3.523
  11
  32.309
  21
  -3.468
   0
LINE
8
0
  10
  32.309
  20
  -3.468
  11
  38.017
  21
  -3.340
   0
LINE
8
0
  10
  38.017
  20
  -3.340
  11
  44.000
  21
  -3.154
   0
LINE
8
0
  10
  44.000
  20
  -3.154
  11
  50.196
  21
  -2.920
   0
LINE
8
0
  10
  50.196
  20
  -2.920
  11
  56.536
  21
  -2.657
   0
LINE
8
0
  10
  56.536
  20
  -2.657
  11
  62.943
  21
  -2.377
   0
LINE
8
0
  10
  62.943
  20
  -2.377
  11
  69.342
  21
  -2.092
   0
LINE
8
0
  10
  69.342
  20
  -2.092
  11
  75.653
  21
  -1.811
   0
LINE
8
0
  10
  75.653
  20
  -1.811
  11
  81.799
  21
  -1.543
   0
LINE
8
0
  10
  81.799
  20
  -1.543
  11
  87.704
  21
  -1.292
   0
LINE
8
0
  10
  87.704
  20
  -1.292
  11
  93.296
  21
  -1.061
   0
LINE
8
0
  10
  93.296
  20
  -1.061
  11
  98.506
  21
  -0.852
   0
LINE
8
0
  10
  98.506
  20
  -0.852
  11
 103.270
  21
  -0.671
   0
LINE
8
0
  10
 103.270
  20
  -0.671
  11
 107.527
  21
  -0.514
   0
LINE
8
0
  10
 107.527
  20
  -0.514
  11
 111.224
  21
  -0.382
   0
LINE
8
0
  10
 111.224
  20
  -0.382
  11
 114.314
  21
  -0.271
   0
LINE
8
0
  10
 114.314
  20
  -0.271
  11
 116.759
  21
  -0.177
   0
LINE
8
0
  10
 116.759
  20
  -0.177
  11
 118.532
  21
  -0.091
   0
LINE
8
0
  10
 118.532
  20
  -0.091
  11
 119.624
  21
  -0.024
   0
LINE
8
0
  10
 119.624
  20
  -0.024
  11
 120.000
  21
   0.000
   0
ENDSEC
   0
EOF
