   0
SECTION
   2
ENTITIES
   0
LINE
8
0
  10
 140.700
  20
   0.000
  11
 140.247
  21
   0.001
   0
LINE
8
0
  10
 140.247
  20
   0.001
  11
 138.885
  21
   0.028
   0
LINE
8
0
  10
 138.885
  20
   0.028
  11
 136.637
  21
   0.129
   0
LINE
8
0
  10
 136.637
  20
   0.129
  11
 133.551
  21
   0.336
   0
LINE
8
0
  10
 133.551
  20
   0.336
  11
 129.686
  21
   0.672
   0
LINE
8
0
  10
 129.686
  20
   0.672
  11
 125.112
  21
   1.158
   0
LINE
8
0
  10
 125.112
  20
   1.158
  11
 119.920
  21
   1.794
   0
LINE
8
0
  10
 119.920
  20
   1.794
  11
 114.202
  21
   2.564
   0
LINE
8
0
  10
 114.202
  20
   2.564
  11
 108.051
  21
   3.437
   0
LINE
8
0
  10
 108.051
  20
   3.437
  11
 101.554
  21
   4.380
   0
LINE
8
0
  10
 101.554
  20
   4.380
  11
  94.802
  21
   5.348
   0
LINE
8
0
  10
  94.802
  20
   5.348
  11
  87.870
  21
   6.288
   0
LINE
8
0
  10
  87.870
  20
   6.288
  11
  80.822
  21
   7.159
   0
LINE
8
0
  10
  80.822
  20
   7.159
  11
  73.721
  21
   7.926
   0
LINE
8
0
  10
  73.721
  20
   7.926
  11
  66.624
  21
   8.570
   0
LINE
8
0
  10
  66.624
  20
   8.570
  11
  59.596
  21
   9.084
   0
LINE
8
0
  10
  59.596
  20
   9.084
  11
  52.706
  21
   9.454
   0
LINE
8
0
  10
  52.706
  20
   9.454
  11
  46.024
  21
   9.673
   0
LINE
8
0
  10
  46.024
  20
   9.673
  11
  39.617
  21
   9.731
   0
LINE
8
0
  10
  39.617
  20
   9.731
  11
  33.546
  21
   9.613
   0
LINE
8
0
  10
  33.546
  20
   9.613
  11
  27.863
  21
   9.314
   0
LINE
8
0
  10
  27.863
  20
   9.314
  11
  22.615
  21
   8.836
   0
LINE
8
0
  10
  22.615
  20
   8.836
  11
  17.845
  21
   8.182
   0
LINE
8
0
  10
  17.845
  20
   8.182
  11
  13.589
  21
   7.364
   0
LINE
8
0
  10
  13.589
  20
   7.364
  11
   9.881
  21
   6.402
   0
LINE
8
0
  10
   9.881
  20
   6.402
  11
   6.745
  21
   5.311
   0
LINE
8
0
  10
   6.745
  20
   5.311
  11
   4.194
  21
   4.124
   0
LINE
8
0
  10
   4.194
  20
   4.124
  11
   2.236
  21
   2.887
   0
LINE
8
0
  10
   2.236
  20
   2.887
  11
   0.877
  21
   1.660
   0
LINE
8
0
  10
   0.877
  20
   1.660
  11
   0.280
  21
   0.843
   0
LINE
8
0
  10
   0.280
  20
   0.843
  11
   0.127
  21
   0.525
   0
LINE
8
0
  10
   0.127
  20
   0.525
  11
   0.031
  21
   0.232
   0
LINE
8
0
  10
   0.031
  20
   0.232
  11
   0.001
  21
   0.053
   0
LINE
8
0
  10
   0.001
  20
   0.053
  11
   0.008
  21
  -0.108
   0
LINE
8
0
  10
   0.008
  20
  -0.108
  11
   0.062
  21
  -0.273
   0
LINE
8
0
  10
   0.062
  20
  -0.273
  11
   0.159
  21
  -0.442
   0
LINE
8
0
  10
   0.159
  20
  -0.442
  11
   0.370
  21
  -0.705
   0
LINE
8
0
  10
   0.370
  20
  -0.705
  11
   0.650
  21
  -0.975
   0
LINE
8
0
  10
   0.650
  20
  -0.975
  11
   0.976
  21
  -1.242
   0
LINE
8
0
  10
   0.976
  20
  -1.242
  11
   2.580
  21
  -2.163
   0
LINE
8
0
  10
   2.580
  20
  -2.163
  11
   4.878
  21
  -3.046
   0
LINE
8
0
  10
   4.878
  20
  -3.046
  11
   7.837
  21
  -3.851
   0
LINE
8
0
  10
   7.837
  20
  -3.851
  11
  11.429
  21
  -4.543
   0
LINE
8
0
  10
  11.429
  20
  -4.543
  11
  15.629
  21
  -5.095
   0
LINE
8
0
  10
  15.629
  20
  -5.095
  11
  20.411
  21
  -5.489
   0
LINE
8
0
  10
  20.411
  20
  -5.489
  11
  25.742
  21
  -5.725
   0
LINE
8
0
  10
  25.742
  20
  -5.725
  11
  31.584
  21
  -5.811
   0
LINE
8
0
  10
  31.584
  20
  -5.811
  11
  37.882
  21
  -5.760
   0
LINE
8
0
  10
  37.882
  20
  -5.760
  11
  44.574
  21
  -5.591
   0
LINE
8
0
  10
  44.574
  20
  -5.591
  11
  51.590
  21
  -5.321
   0
LINE
8
0
  10
  51.590
  20
  -5.321
  11
  58.855
  21
  -4.968
   0
LINE
8
0
  10
  58.855
  20
  -4.968
  11
  66.288
  21
  -4.556
   0
LINE
8
0
  10
  66.288
  20
  -4.556
  11
  73.801
  21
  -4.103
   0
LINE
8
0
  10
  73.801
  20
  -4.103
  11
  81.303
  21
  -3.629
   0
LINE
8
0
  10
  81.303
  20
  -3.629
  11
  88.703
  21
  -3.146
   0
LINE
8
0
  10
  88.703
  20
  -3.146
  11
  95.910
  21
  -2.670
   0
LINE
8
0
  10
  95.910
  20
  -2.670
  11
 102.833
  21
  -2.216
   0
LINE
8
0
  10
 102.833
  20
  -2.216
  11
 109.389
  21
  -1.795
   0
LINE
8
0
  10
 109.389
  20
  -1.795
  11
 115.498
  21
  -1.415
   0
LINE
8
0
  10
 115.498
  20
  -1.415
  11
 121.084
  21
  -1.085
   0
LINE
8
0
  10
 121.084
  20
  -1.085
  11
 126.076
  21
  -0.806
   0
LINE
8
0
  10
 126.076
  20
  -0.806
  11
 130.411
  21
  -0.578
   0
LINE
8
0
  10
 130.411
  20
  -0.578
  11
 134.034
  21
  -0.394
   0
LINE
8
0
  10
 134.034
  20
  -0.394
  11
 136.900
  21
  -0.246
   0
LINE
8
0
  10
 136.900
  20
  -0.246
  11
 138.979
  21
  -0.122
   0
LINE
8
0
  10
 138.979
  20
  -0.122
  11
 140.260
  21
  -0.032
   0
ENDSEC
   0
EOF
