   0
SECTION
   2
ENTITIES
   0
LINE
8
0
  10
 140.700
  20
   0.000
  11
 140.247
  21
   0.000
   0
LINE
8
0
  10
 140.247
  20
   0.000
  11
 138.885
  21
   0.021
   0
LINE
8
0
  10
 138.885
  20
   0.021
  11
 136.637
  21
   0.111
   0
LINE
8
0
  10
 136.637
  20
   0.111
  11
 133.551
  21
   0.302
   0
LINE
8
0
  10
 133.551
  20
   0.302
  11
 129.686
  21
   0.615
   0
LINE
8
0
  10
 129.686
  20
   0.615
  11
 125.112
  21
   1.067
   0
LINE
8
0
  10
 125.112
  20
   1.067
  11
 119.920
  21
   1.660
   0
LINE
8
0
  10
 119.920
  20
   1.660
  11
 114.202
  21
   2.379
   0
LINE
8
0
  10
 114.202
  20
   2.379
  11
 108.051
  21
   3.195
   0
LINE
8
0
  10
 108.051
  20
   3.195
  11
 101.554
  21
   4.076
   0
LINE
8
0
  10
 101.554
  20
   4.076
  11
  94.802
  21
   4.981
   0
LINE
8
0
  10
  94.802
  20
   4.981
  11
  87.870
  21
   5.857
   0
LINE
8
0
  10
  87.870
  20
   5.857
  11
  80.822
  21
   6.666
   0
LINE
8
0
  10
  80.822
  20
   6.666
  11
  73.721
  21
   7.378
   0
LINE
8
0
  10
  73.721
  20
   7.378
  11
  66.624
  21
   7.975
   0
LINE
8
0
  10
  66.624
  20
   7.975
  11
  59.596
  21
   8.446
   0
LINE
8
0
  10
  59.596
  20
   8.446
  11
  52.706
  21
   8.785
   0
LINE
8
0
  10
  52.706
  20
   8.785
  11
  46.024
  21
   8.982
   0
LINE
8
0
  10
  46.024
  20
   8.982
  11
  39.617
  21
   9.027
   0
LINE
8
0
  10
  39.617
  20
   9.027
  11
  33.546
  21
   8.912
   0
LINE
8
0
  10
  33.546
  20
   8.912
  11
  27.863
  21
   8.629
   0
LINE
8
0
  10
  27.863
  20
   8.629
  11
  22.615
  21
   8.179
   0
LINE
8
0
  10
  22.615
  20
   8.179
  11
  17.845
  21
   7.568
   0
LINE
8
0
  10
  17.845
  20
   7.568
  11
  13.589
  21
   6.810
   0
LINE
8
0
  10
  13.589
  20
   6.810
  11
   9.881
  21
   5.916
   0
LINE
8
0
  10
   9.881
  20
   5.916
  11
   6.745
  21
   4.906
   0
LINE
8
0
  10
   6.745
  20
   4.906
  11
   4.194
  21
   3.807
   0
LINE
8
0
  10
   4.194
  20
   3.807
  11
   2.236
  21
   2.665
   0
LINE
8
0
  10
   2.236
  20
   2.665
  11
   0.877
  21
   1.531
   0
LINE
8
0
  10
   0.877
  20
   1.531
  11
   0.280
  21
   0.777
   0
LINE
8
0
  10
   0.280
  20
   0.777
  11
   0.127
  21
   0.484
   0
LINE
8
0
  10
   0.127
  20
   0.484
  11
   0.031
  21
   0.214
   0
LINE
8
0
  10
   0.031
  20
   0.214
  11
   0.001
  21
   0.048
   0
LINE
8
0
  10
   0.001
  20
   0.048
  11
   0.008
  21
  -0.098
   0
LINE
8
0
  10
   0.008
  20
  -0.098
  11
   0.062
  21
  -0.243
   0
LINE
8
0
  10
   0.062
  20
  -0.243
  11
   0.159
  21
  -0.394
   0
LINE
8
0
  10
   0.159
  20
  -0.394
  11
   0.370
  21
  -0.628
   0
LINE
8
0
  10
   0.370
  20
  -0.628
  11
   0.650
  21
  -0.868
   0
LINE
8
0
  10
   0.650
  20
  -0.868
  11
   0.976
  21
  -1.104
   0
LINE
8
0
  10
   0.976
  20
  -1.104
  11
   2.580
  21
  -1.922
   0
LINE
8
0
  10
   2.580
  20
  -1.922
  11
   4.878
  21
  -2.704
   0
LINE
8
0
  10
   4.878
  20
  -2.704
  11
   7.837
  21
  -3.416
   0
LINE
8
0
  10
   7.837
  20
  -3.416
  11
  11.429
  21
  -4.025
   0
LINE
8
0
  10
  11.429
  20
  -4.025
  11
  15.629
  21
  -4.508
   0
LINE
8
0
  10
  15.629
  20
  -4.508
  11
  20.411
  21
  -4.850
   0
LINE
8
0
  10
  20.411
  20
  -4.850
  11
  25.742
  21
  -5.050
   0
LINE
8
0
  10
  25.742
  20
  -5.050
  11
  31.584
  21
  -5.113
   0
LINE
8
0
  10
  31.584
  20
  -5.113
  11
  37.882
  21
  -5.057
   0
LINE
8
0
  10
  37.882
  20
  -5.057
  11
  44.574
  21
  -4.896
   0
LINE
8
0
  10
  44.574
  20
  -4.896
  11
  51.590
  21
  -4.647
   0
LINE
8
0
  10
  51.590
  20
  -4.647
  11
  58.855
  21
  -4.328
   0
LINE
8
0
  10
  58.855
  20
  -4.328
  11
  66.288
  21
  -3.958
   0
LINE
8
0
  10
  66.288
  20
  -3.958
  11
  73.801
  21
  -3.557
   0
LINE
8
0
  10
  73.801
  20
  -3.557
  11
  81.303
  21
  -3.140
   0
LINE
8
0
  10
  81.303
  20
  -3.140
  11
  88.703
  21
  -2.721
   0
LINE
8
0
  10
  88.703
  20
  -2.721
  11
  95.910
  21
  -2.313
   0
LINE
8
0
  10
  95.910
  20
  -2.313
  11
 102.833
  21
  -1.925
   0
LINE
8
0
  10
 102.833
  20
  -1.925
  11
 109.389
  21
  -1.566
   0
LINE
8
0
  10
 109.389
  20
  -1.566
  11
 115.498
  21
  -1.242
   0
LINE
8
0
  10
 115.498
  20
  -1.242
  11
 121.084
  21
  -0.961
   0
LINE
8
0
  10
 121.084
  20
  -0.961
  11
 126.076
  21
  -0.722
   0
LINE
8
0
  10
 126.076
  20
  -0.722
  11
 130.411
  21
  -0.523
   0
LINE
8
0
  10
 130.411
  20
  -0.523
  11
 134.034
  21
  -0.362
   0
LINE
8
0
  10
 134.034
  20
  -0.362
  11
 136.900
  21
  -0.231
   0
LINE
8
0
  10
 136.900
  20
  -0.231
  11
 138.979
  21
  -0.115
   0
LINE
8
0
  10
 138.979
  20
  -0.115
  11
 140.260
  21
  -0.031
   0
ENDSEC
   0
EOF
