   0
SECTION
   2
ENTITIES
   0
LINE
8
0
  10
 140.700
  20
   0.000
  11
 140.209
  21
   0.017
   0
LINE
8
0
  10
 140.209
  20
   0.017
  11
 138.764
  21
   0.100
   0
LINE
8
0
  10
 138.764
  20
   0.100
  11
 136.434
  21
   0.294
   0
LINE
8
0
  10
 136.434
  20
   0.294
  11
 133.288
  21
   0.615
   0
LINE
8
0
  10
 133.288
  20
   0.615
  11
 129.396
  21
   1.061
   0
LINE
8
0
  10
 129.396
  20
   1.061
  11
 124.835
  21
   1.622
   0
LINE
8
0
  10
 124.835
  20
   1.622
  11
 119.679
  21
   2.288
   0
LINE
8
0
  10
 119.679
  20
   2.288
  11
 114.009
  21
   3.035
   0
LINE
8
0
  10
 114.009
  20
   3.035
  11
 107.903
  21
   3.838
   0
LINE
8
0
  10
 107.903
  20
   3.838
  11
 101.438
  21
   4.677
   0
LINE
8
0
  10
 101.438
  20
   4.677
  11
  94.695
  21
   5.522
   0
LINE
8
0
  10
  94.695
  20
   5.522
  11
  87.756
  21
   6.350
   0
LINE
8
0
  10
  87.756
  20
   6.350
  11
  80.697
  21
   7.129
   0
LINE
8
0
  10
  80.697
  20
   7.129
  11
  73.594
  21
   7.834
   0
LINE
8
0
  10
  73.594
  20
   7.834
  11
  66.519
  21
   8.441
   0
LINE
8
0
  10
  66.519
  20
   8.441
  11
  59.541
  21
   8.929
   0
LINE
8
0
  10
  59.541
  20
   8.929
  11
  52.724
  21
   9.278
   0
LINE
8
0
  10
  52.724
  20
   9.278
  11
  46.133
  21
   9.475
   0
LINE
8
0
  10
  46.133
  20
   9.475
  11
  39.821
  21
   9.506
   0
LINE
8
0
  10
  39.821
  20
   9.506
  11
  33.843
  21
   9.365
   0
LINE
8
0
  10
  33.843
  20
   9.365
  11
  28.243
  21
   9.051
   0
LINE
8
0
  10
  28.243
  20
   9.051
  11
  23.064
  21
   8.564
   0
LINE
8
0
  10
  23.064
  20
   8.564
  11
  18.340
  21
   7.914
   0
LINE
8
0
  10
  18.340
  20
   7.914
  11
  14.101
  21
   7.117
   0
LINE
8
0
  10
  14.101
  20
   7.117
  11
  10.375
  21
   6.198
   0
LINE
8
0
  10
  10.375
  20
   6.198
  11
   7.190
  21
   5.182
   0
LINE
8
0
  10
   7.190
  20
   5.182
  11
   4.566
  21
   4.099
   0
LINE
8
0
  10
   4.566
  20
   4.099
  11
   2.524
  21
   2.981
   0
LINE
8
0
  10
   2.524
  20
   2.981
  11
   1.081
  21
   1.867
   0
LINE
8
0
  10
   1.081
  20
   1.867
  11
   0.238
  21
   0.796
   0
LINE
8
0
  10
   0.238
  20
   0.796
  11
   0.028
  21
   0.241
   0
LINE
8
0
  10
   0.028
  20
   0.241
  11
   0.000
  21
   0.017
   0
LINE
8
0
  10
   0.000
  20
   0.017
  11
   0.021
  21
  -0.184
   0
LINE
8
0
  10
   0.021
  20
  -0.184
  11
   0.100
  21
  -0.373
   0
LINE
8
0
  10
   0.100
  20
  -0.373
  11
   0.235
  21
  -0.556
   0
LINE
8
0
  10
   0.235
  20
  -0.556
  11
   0.581
  21
  -0.882
   0
LINE
8
0
  10
   0.581
  20
  -0.882
  11
   1.892
  21
  -1.584
   0
LINE
8
0
  10
   1.892
  20
  -1.584
  11
   3.903
  21
  -2.186
   0
LINE
8
0
  10
   3.903
  20
  -2.186
  11
   6.611
  21
  -2.666
   0
LINE
8
0
  10
   6.611
  20
  -2.666
  11
  10.019
  21
  -3.014
   0
LINE
8
0
  10
  10.019
  20
  -3.014
  11
  14.112
  21
  -3.242
   0
LINE
8
0
  10
  14.112
  20
  -3.242
  11
  18.854
  21
  -3.364
   0
LINE
8
0
  10
  18.854
  20
  -3.364
  11
  24.203
  21
  -3.392
   0
LINE
8
0
  10
  24.203
  20
  -3.392
  11
  30.107
  21
  -3.344
   0
LINE
8
0
  10
  30.107
  20
  -3.344
  11
  36.500
  21
  -3.236
   0
LINE
8
0
  10
  36.500
  20
  -3.236
  11
  43.310
  21
  -3.079
   0
LINE
8
0
  10
  43.310
  20
  -3.079
  11
  50.456
  21
  -2.890
   0
LINE
8
0
  10
  50.456
  20
  -2.890
  11
  57.854
  21
  -2.678
   0
LINE
8
0
  10
  57.854
  20
  -2.678
  11
  65.417
  21
  -2.452
   0
LINE
8
0
  10
  65.417
  20
  -2.452
  11
  73.051
  21
  -2.223
   0
LINE
8
0
  10
  73.051
  20
  -2.223
  11
  80.665
  21
  -1.997
   0
LINE
8
0
  10
  80.665
  20
  -1.997
  11
  88.164
  21
  -1.777
   0
LINE
8
0
  10
  88.164
  20
  -1.777
  11
  95.459
  21
  -1.569
   0
LINE
8
0
  10
  95.459
  20
  -1.569
  11
 102.461
  21
  -1.372
   0
LINE
8
0
  10
 102.461
  20
  -1.372
  11
 109.086
  21
  -1.189
   0
LINE
8
0
  10
 109.086
  20
  -1.189
  11
 115.253
  21
  -1.020
   0
LINE
8
0
  10
 115.253
  20
  -1.020
  11
 120.885
  21
  -0.867
   0
LINE
8
0
  10
 120.885
  20
  -0.867
  11
 125.912
  21
  -0.723
   0
LINE
8
0
  10
 125.912
  20
  -0.723
  11
 130.277
  21
  -0.587
   0
LINE
8
0
  10
 130.277
  20
  -0.587
  11
 133.924
  21
  -0.454
   0
LINE
8
0
  10
 133.924
  20
  -0.454
  11
 136.808
  21
  -0.321
   0
LINE
8
0
  10
 136.808
  20
  -0.321
  11
 138.909
  21
  -0.176
   0
LINE
8
0
  10
 138.909
  20
  -0.176
  11
 140.231
  21
  -0.049
   0
LINE
8
0
  10
 140.231
  20
  -0.049
  11
 140.700
  21
   0.000
   0
ENDSEC
   0
EOF
