999
dxflib 2.2.0.0
  0
SECTION
  2
HEADER
  9
$ACADVER
  1
AC1015
  9
$HANDSEED
  5
FFFF
  9
$SPLINESEGS
 70
8
  9
$DIMEXE
 40
5.0
  9
$PSVPSCALE
 40
0.2956524310021139
  9
$DIMLUNIT
 70
2
  9
$GRIDMODE
 70
1
  9
$INSUNITS
 70
4
  9
$DIMADEC
 70
0
  9
$DIMASZ
 40
5.0
  9
$DIMGAP
 40
5.0
  9
$DIMTXT
 40
10.0
  9
$GRIDUNIT
 10
0.0
 20
0.0
  9
$DIMEXO
 40
5.0
  9
$LUPREC
 70
0
  9
$PINSBASE
 10
22.8477168241015818
 20
60.0567851857049533
 30
0.0
  9
$DIMAUNIT
 70
0
  9
$AUPREC
 70
0
  9
$PLIMMIN
 10
0.0
 20
0.0
  9
$LUNITS
 70
2
  9
$MEASUREMENT
 70
1
  9
$PLIMMAX
 10
297.0
 20
210.0
  9
$DIMSTYLE
  2
Standard
  9
$AUNITS
 70
0
  0
ENDSEC
  0
SECTION
  2
TABLES
  0
TABLE
  2
VPORT
  5
8
100
AcDbSymbolTable
 70
1
  0
VPORT
  5
30
100
AcDbSymbolTableRecord
100
AcDbViewportTableRecord
  2
*Active
 70
0
 10
0.0
 20
0.0
 11
1.0
 21
1.0
 12
286.3055555555554861
 22
148.5
 13
0.0
 23
0.0
 14
10.0
 24
10.0
 15
10.0
 25
10.0
 16
0.0
 26
0.0
 36
1.0
 17
0.0
 27
0.0
 37
0.0
 40
297.0
 41
1.92798353909465
 42
50.0
 43
0.0
 44
0.0
 50
0.0
 51
0.0
 71
0
 72
100
 73
1
 74
3
 75
1
 76
1
 77
0
 78
0
281
0
 65
1
110
0.0
120
0.0
130
0.0
111
1.0
121
0.0
131
0.0
112
0.0
122
1.0
132
0.0
 79
0
146
0.0
  0
ENDTAB
  0
TABLE
  2
LTYPE
  5
5
100
AcDbSymbolTable
 70
21
  0
LTYPE
  5
14
100
AcDbSymbolTableRecord
100
AcDbLinetypeTableRecord
  2
ByBlock
 70
0
  3

 72
65
 73
0
 40
0.0
  0
LTYPE
  5
15
100
AcDbSymbolTableRecord
100
AcDbLinetypeTableRecord
  2
ByLayer
 70
0
  3

 72
65
 73
0
 40
0.0
  0
LTYPE
  5
16
100
AcDbSymbolTableRecord
100
AcDbLinetypeTableRecord
  2
CONTINUOUS
 70
0
  3
Solid line
 72
65
 73
0
 40
0.0
  0
LTYPE
  5
31
100
AcDbSymbolTableRecord
100
AcDbLinetypeTableRecord
  2
DOT
 70
0
  3
Dot . . . . . . . . . . . . . . . . . . . . . .
 72
65
 73
2
 40
6.3499999999999996
 49
0.0
 74
0
 49
-6.3499999999999996
 74
0
  0
LTYPE
  5
32
100
AcDbSymbolTableRecord
100
AcDbLinetypeTableRecord
  2
DOT2
 70
0
  3
Dot (.5x) .....................................
 72
65
 73
2
 40
3.1749999999999998
 49
0.0
 74
0
 49
-3.1749999999999998
 74
0
  0
LTYPE
  5
33
100
AcDbSymbolTableRecord
100
AcDbLinetypeTableRecord
  2
DOTX2
 70
0
  3
Dot (2x) .  .  .  .  .  .  .  .  .  .  .  .  .
 72
65
 73
2
 40
12.6999999999999993
 49
0.0
 74
0
 49
-12.6999999999999993
 74
0
  0
LTYPE
  5
34
100
AcDbSymbolTableRecord
100
AcDbLinetypeTableRecord
  2
DASHED
 70
0
  3
Dashed __ __ __ __ __ __ __ __ __ __ __ __ __ _
 72
65
 73
2
 40
19.0500000000000007
 49
12.6999999999999993
 74
0
 49
-6.3499999999999996
 74
0
  0
LTYPE
  5
35
100
AcDbSymbolTableRecord
100
AcDbLinetypeTableRecord
  2
DASHED2
 70
0
  3
Dashed (.5x) _ _ _ _ _ _ _ _ _ _ _ _ _ _ _ _ _
 72
65
 73
2
 40
9.5250000000000004
 49
6.3499999999999996
 74
0
 49
-3.1749999999999998
 74
0
  0
LTYPE
  5
36
100
AcDbSymbolTableRecord
100
AcDbLinetypeTableRecord
  2
DASHEDX2
 70
0
  3
Dashed (2x) ____  ____  ____  ____  ____  ___
 72
65
 73
2
 40
38.1000000000000014
 49
25.3999999999999986
 74
0
 49
-12.6999999999999993
 74
0
  0
LTYPE
  5
37
100
AcDbSymbolTableRecord
100
AcDbLinetypeTableRecord
  2
DASHDOT
 70
0
  3
Dash dot __ . __ . __ . __ . __ . __ . __ . __
 72
65
 73
4
 40
25.3999999999999986
 49
12.6999999999999993
 74
0
 49
-6.3499999999999996
 74
0
 49
0.0
 74
0
 49
-6.3499999999999996
 74
0
  0
LTYPE
  5
38
100
AcDbSymbolTableRecord
100
AcDbLinetypeTableRecord
  2
DASHDOT2
 70
0
  3
Dash dot (.5x) _._._._._._._._._._._._._._._.
 72
65
 73
4
 40
12.6999999999999993
 49
6.3499999999999996
 74
0
 49
-3.1749999999999998
 74
0
 49
0.0
 74
0
 49
-3.1749999999999998
 74
0
  0
LTYPE
  5
39
100
AcDbSymbolTableRecord
100
AcDbLinetypeTableRecord
  2
DASHDOTX2
 70
0
  3
Dash dot (2x) ____  .  ____  .  ____  .  ___
 72
65
 73
4
 40
50.7999999999999972
 49
25.3999999999999986
 74
0
 49
-12.6999999999999993
 74
0
 49
0.0
 74
0
 49
-12.6999999999999993
 74
0
  0
LTYPE
  5
3A
100
AcDbSymbolTableRecord
100
AcDbLinetypeTableRecord
  2
DIVIDE
 70
0
  3
Divide ____ . . ____ . . ____ . . ____ . . ____
 72
65
 73
6
 40
31.75
 49
12.6999999999999993
 74
0
 49
-6.3499999999999996
 74
0
 49
0.0
 74
0
 49
-6.3499999999999996
 74
0
 49
0.0
 74
0
 49
-6.3499999999999996
 74
0
  0
LTYPE
  5
3B
100
AcDbSymbolTableRecord
100
AcDbLinetypeTableRecord
  2
DIVIDE2
 70
0
  3
Divide (.5x) __..__..__..__..__..__..__..__.._
 72
65
 73
6
 40
15.875
 49
6.3499999999999996
 74
0
 49
-3.1749999999999998
 74
0
 49
0.0
 74
0
 49
-3.1749999999999998
 74
0
 49
0.0
 74
0
 49
-3.1749999999999998
 74
0
  0
LTYPE
  5
3C
100
AcDbSymbolTableRecord
100
AcDbLinetypeTableRecord
  2
DIVIDEX2
 70
0
  3
Divide (2x) ________  .  .  ________  .  .  _
 72
65
 73
6
 40
63.5
 49
25.3999999999999986
 74
0
 49
-12.6999999999999993
 74
0
 49
0.0
 74
0
 49
-12.6999999999999993
 74
0
 49
0.0
 74
0
 49
-12.6999999999999993
 74
0
  0
LTYPE
  5
3D
100
AcDbSymbolTableRecord
100
AcDbLinetypeTableRecord
  2
CENTER
 70
0
  3
Center ____ _ ____ _ ____ _ ____ _ ____ _ ____
 72
65
 73
4
 40
50.7999999999999972
 49
31.75
 74
0
 49
-6.3499999999999996
 74
0
 49
6.3499999999999996
 74
0
 49
-6.3499999999999996
 74
0
  0
LTYPE
  5
3E
100
AcDbSymbolTableRecord
100
AcDbLinetypeTableRecord
  2
CENTER2
 70
0
  3
Center (.5x) ___ _ ___ _ ___ _ ___ _ ___ _ ___
 72
65
 73
4
 40
28.5749999999999993
 49
19.0500000000000007
 74
0
 49
-3.1749999999999998
 74
0
 49
3.1749999999999998
 74
0
 49
-3.1749999999999998
 74
0
  0
LTYPE
  5
3F
100
AcDbSymbolTableRecord
100
AcDbLinetypeTableRecord
  2
CENTERX2
 70
0
  3
Center (2x) ________  __  ________  __  _____
 72
65
 73
4
 40
101.5999999999999943
 49
63.5
 74
0
 49
-12.6999999999999993
 74
0
 49
12.6999999999999993
 74
0
 49
-12.6999999999999993
 74
0
  0
LTYPE
  5
40
100
AcDbSymbolTableRecord
100
AcDbLinetypeTableRecord
  2
BORDER
 70
0
  3
Border __ __ . __ __ . __ __ . __ __ . __ __ .
 72
65
 73
6
 40
44.4500000000000028
 49
12.6999999999999993
 74
0
 49
-6.3499999999999996
 74
0
 49
12.6999999999999993
 74
0
 49
-6.3499999999999996
 74
0
 49
0.0
 74
0
 49
-6.3499999999999996
 74
0
  0
LTYPE
  5
41
100
AcDbSymbolTableRecord
100
AcDbLinetypeTableRecord
  2
BORDER2
 70
0
  3
Border (.5x) __.__.__.__.__.__.__.__.__.__.__.
 72
65
 73
6
 40
22.2250000000000014
 49
6.3499999999999996
 74
0
 49
-3.1749999999999998
 74
0
 49
6.3499999999999996
 74
0
 49
-3.1749999999999998
 74
0
 49
0.0
 74
0
 49
-3.1749999999999998
 74
0
  0
LTYPE
  5
42
100
AcDbSymbolTableRecord
100
AcDbLinetypeTableRecord
  2
BORDERX2
 70
0
  3
Border (2x) ____  ____  .  ____  ____  .  ___
 72
65
 73
6
 40
88.9000000000000057
 49
25.3999999999999986
 74
0
 49
-12.6999999999999993
 74
0
 49
25.3999999999999986
 74
0
 49
-12.6999999999999993
 74
0
 49
0.0
 74
0
 49
-12.6999999999999993
 74
0
  0
ENDTAB
  0
TABLE
  2
LAYER
  5
2
100
AcDbSymbolTable
 70
9
  0
LAYER
  5
10
100
AcDbSymbolTableRecord
100
AcDbLayerTableRecord
  2
0
 70
0
 62
7
  6
CONTINUOUS
290
1
390
F
  0
LAYER
  5
43
100
AcDbSymbolTableRecord
100
AcDbLayerTableRecord
  2
frame
 70
0
 62
7
  6
CONTINUOUS
290
1
370
-3
390
F
  0
LAYER
  5
44
100
AcDbSymbolTableRecord
100
AcDbLayerTableRecord
  2
helpers
 70
1
 62
3
  6
DASHDOT
290
1
370
0
390
F
  0
LAYER
  5
45
100
AcDbSymbolTableRecord
100
AcDbLayerTableRecord
  2
elevon
 70
0
 62
4
  6
CONTINUOUS
290
1
370
0
390
F
  0
LAYER
  5
46
100
AcDbSymbolTableRecord
100
AcDbLayerTableRecord
  2
electronics
 70
0
 62
6
  6
CONTINUOUS
290
1
370
0
390
F
  0
LAYER
  5
47
100
AcDbSymbolTableRecord
100
AcDbLayerTableRecord
  2
area
 70
1
 62
7
  6
DASHEDX2
290
1
370
50
390
F
  0
LAYER
  5
48
100
AcDbSymbolTableRecord
100
AcDbLayerTableRecord
  2
dimensions
 70
1
 62
7
  6
CONTINUOUS
290
1
370
0
390
F
  0
LAYER
  5
49
100
AcDbSymbolTableRecord
100
AcDbLayerTableRecord
  2
text
 70
0
 62
7
  6
CONTINUOUS
290
1
370
0
390
F
  0
LAYER
  5
4A
100
AcDbSymbolTableRecord
100
AcDbLayerTableRecord
  2
dimensions equipment
 70
0
 62
7
  6
CONTINUOUS
290
1
370
0
390
F
  0
ENDTAB
  0
TABLE
  2
STYLE
  5
3
100
AcDbSymbolTable
 70
1
  0
STYLE
  5
11
100
AcDbSymbolTableRecord
100
AcDbTextStyleTableRecord
  2
Standard
 70
0
 40
0.0
 41
0.75
 50
0.0
 71
0
 42
2.5
  3
txt
  4

  0
ENDTAB
  0
TABLE
  2
VIEW
  5
6
100
AcDbSymbolTable
 70
0
  0
ENDTAB
  0
TABLE
  2
UCS
  5
7
100
AcDbSymbolTable
 70
0
  0
ENDTAB
  0
TABLE
  2
APPID
  5
9
100
AcDbSymbolTable
 70
1
  0
APPID
  5
12
100
AcDbSymbolTableRecord
100
AcDbRegAppTableRecord
  2
ACAD
 70
0
  0
ENDTAB
  0
TABLE
  2
DIMSTYLE
  5
A
100
AcDbSymbolTable
 70
1
100
AcDbDimStyleTable
 71
0
  0
DIMSTYLE
105
27
100
AcDbSymbolTableRecord
100
AcDbDimStyleTableRecord
  2
Standard
 41
5.0
 42
5.0
 43
3.75
 44
5.0
 70
0
 73
0
 74
0
 77
1
 78
8
140
10.0
141
2.5
143
0.03937007874016
147
5.0
171
3
172
1
271
2
272
2
274
3
278
44
283
0
284
8
340
11
  0
ENDTAB
  0
TABLE
  2
BLOCK_RECORD
  5
1
100
AcDbSymbolTable
 70
1
  0
BLOCK_RECORD
  5
1F
100
AcDbSymbolTableRecord
100
AcDbBlockTableRecord
  2
*Model_Space
340
22
  0
BLOCK_RECORD
  5
1B
100
AcDbSymbolTableRecord
100
AcDbBlockTableRecord
  2
*Paper_Space
340
1E
  0
BLOCK_RECORD
  5
23
100
AcDbSymbolTableRecord
100
AcDbBlockTableRecord
  2
*Paper_Space0
340
26
  0
ENDTAB
  0
ENDSEC
  0
SECTION
  2
BLOCKS
  0
BLOCK
  5
20
100
AcDbEntity
  8
0
100
AcDbBlockBegin
  2
*Model_Space
 70
0
 10
0.0
 20
0.0
 30
0.0
  3
*Model_Space
  1

  0
ENDBLK
  5
21
100
AcDbEntity
  8
0
100
AcDbBlockEnd
  0
BLOCK
  5
1C
100
AcDbEntity
 67
1
  8
0
100
AcDbBlockBegin
  2
*Paper_Space
 70
0
 10
0.0
 20
0.0
 30
0.0
  3
*Paper_Space
  1

  0
ENDBLK
  5
1D
100
AcDbEntity
 67
1
  8
0
100
AcDbBlockEnd
  0
BLOCK
  5
24
100
AcDbEntity
  8
0
100
AcDbBlockBegin
  2
*Paper_Space0
 70
0
 10
0.0
 20
0.0
 30
0.0
  3
*Paper_Space0
  1

  0
ENDBLK
  5
25
100
AcDbEntity
  8
0
100
AcDbBlockEnd
  0
ENDSEC
  0
SECTION
  2
ENTITIES
  0
LWPOLYLINE
  5
4B
  8
frame
 62
1
370
-1
  6
ByLayer
100
AcDbEntity
100
AcDbPolyline
 90
14
 70
0
 10
460.8308499999999981
 20
344.9698799999999892
 10
388.6027799999999957
 20
344.9698799999999892
 10
-0.0000000000000568
 20
121.4028600000000893
 10
-0.0000000000000568
 20
0.0000000000001137
 10
313.306479999999965
 20
68.4134999999999991
 10
329.8915700000001152
 20
103.9360999999999535
 10
519.6249999999998863
 20
104.0533699999999442
 10
536.5417899999998781
 20
68.4134999999999422
 10
850.0
 20
0.0
 10
850.0
 20
121.4028599999999187
 10
534.5515799999999444
 20
302.4291200000000117
 10
530.9028600000000324
 20
317.1069300000000339
 10
508.7317899999999895
 20
317.1069299999999203
 10
460.8308499999999981
 20
344.9698799999999892
  0
LINE
  5
4C
100
AcDbEntity
100
AcDbLine
  8
helpers
 62
256
370
-1
  6
ByLayer
 10
8.5333174160422214
 20
-39.0791823593721119
 30
0.0
 11
321.839797416042245
 21
29.3343176406277735
 31
0.0
  0
LINE
  5
4D
100
AcDbEntity
100
AcDbLine
  8
helpers
 62
256
370
-1
  6
ByLayer
 10
3.8399928372189667
 20
-17.5856320617173871
 30
0.0
 11
317.1464728372189938
 21
50.8278679382824947
 31
0.0
  0
LINE
  5
4E
100
AcDbEntity
100
AcDbLine
  8
helpers
 62
256
370
-1
  6
ByLayer
 10
531.8506339125661952
 20
46.9194763058813038
 30
0.0
 11
845.3088439125663172
 21
-21.4940236941186384
 31
0.0
  0
LINE
  5
4F
100
AcDbEntity
100
AcDbLine
  8
helpers
 62
256
370
-1
  6
ByLayer
 10
-333.409528228464751
 20
-113.7457097497421046
 30
0.0
 11
350.4761630605491973
 21
35.5873450309978807
 31
0.0
  0
LINE
  5
50
100
AcDbEntity
100
AcDbLine
  8
helpers
 62
256
370
-1
  6
ByLayer
 10
499.5202483436876264
 20
35.551985583503054
 30
0.0
 11
1183.4210022474624111
 21
-113.7120717439344588
 31
0.0
  0
LINE
  5
51
100
AcDbEntity
100
AcDbLine
  8
helpers
 62
256
370
-1
  6
ByLayer
 10
199.9999999999999432
 20
121.4028600000000466
 30
0.0
 11
199.9999999999999432
 21
0.0000000000000647
 31
0.0
  0
LINE
  5
52
100
AcDbEntity
100
AcDbLine
  8
helpers
 62
256
370
-1
  6
ByLayer
 10
650.0
 20
0.0000000000000245
 30
0.0
 11
650.0
 21
121.4028599999999471
 31
0.0
  0
LINE
  5
53
100
AcDbEntity
100
AcDbLine
  8
helpers
 62
256
370
-1
  6
ByLayer
 10
386.459846687774359
 20
384.6023838837094218
 30
0.0
 11
686.6237333122253403
 21
-247.7753838837095373
 31
0.0
  0
LINE
  5
54
100
AcDbEntity
100
AcDbLine
  8
helpers
 62
256
370
-1
  6
ByLayer
 10
165.2388242675651782
 20
-248.7236459257038632
 30
0.0
 11
461.3741357324347518
 21
385.5506459257038614
 31
0.0
  0
LINE
  5
55
100
AcDbEntity
100
AcDbLine
  8
helpers
 62
256
370
-1
  6
ByLayer
 10
0.0000000000000074
 20
350.0000000000001137
 30
0.0
 11
-0.0000000000001211
 21
-349.9999999999998863
 31
0.0
  0
LINE
  5
56
100
AcDbEntity
100
AcDbLine
  8
helpers
 62
256
370
-1
  6
ByLayer
 10
850.0
 20
-350.0
 30
0.0
 11
850.0
 21
350.0
 31
0.0
  0
LINE
  5
57
100
AcDbEntity
100
AcDbLine
  8
elevon
 62
256
370
-1
  6
ByLayer
 10
-0.0000000000000568
 20
0.0000000000001137
 30
0.0
 11
-0.0000000000000644
 21
-40.942514745738265
 31
0.0
  0
LINE
  5
58
100
AcDbEntity
100
AcDbLine
  8
elevon
 62
256
370
-1
  6
ByLayer
 10
-0.0000000000000644
 20
-40.942514745738265
 30
0.0
 11
200.0
 21
2.7294195213089267
 31
0.0
  0
LINE
  5
59
100
AcDbEntity
100
AcDbLine
  8
elevon
 62
256
370
-1
  6
ByLayer
 10
200.0
 20
2.7294195213089267
 30
0.0
 11
303.7279380962900746
 21
47.897801102452803
 31
0.0
  0
LINE
  5
5A
100
AcDbEntity
100
AcDbLine
  8
elevon
 62
256
370
-1
  6
ByLayer
 10
303.7279380962900746
 20
47.897801102452803
 30
0.0
 11
313.306479999999965
 21
68.4134999999999991
 31
0.0
  0
LINE
  5
5B
100
AcDbEntity
100
AcDbLine
  8
elevon
 62
256
370
-1
  6
ByLayer
 10
313.306479999999965
 20
68.4134999999999991
 30
0.0
 11
313.306479999999965
 21
68.4134999999999991
 31
0.0
  0
LINE
  5
5C
100
AcDbEntity
100
AcDbLine
  8
elevon
 62
256
370
-1
  6
ByLayer
 10
313.306479999999965
 20
68.4134999999999991
 30
0.0
 11
-0.0000000000000568
 21
0.0000000000001137
 31
0.0
  0
LINE
  5
5D
100
AcDbEntity
100
AcDbLine
  8
elevon
 62
256
370
-1
  6
ByLayer
 10
850.0
 20
0.0
 30
0.0
 11
850.0
 21
-40.9416130047717672
 31
0.0
  0
LINE
  5
5E
100
AcDbEntity
100
AcDbLine
  8
elevon
 62
256
370
-1
  6
ByLayer
 10
850.0
 20
-40.9416130047717672
 30
0.0
 11
650.0
 21
2.7091817853853786
 31
0.0
  0
LINE
  5
5F
100
AcDbEntity
100
AcDbLine
  8
elevon
 62
256
370
-1
  6
ByLayer
 10
650.0
 20
2.7091817853853786
 30
0.0
 11
548.4653465926032823
 21
43.2932492374127378
 31
0.0
  0
LINE
  5
60
100
AcDbEntity
100
AcDbLine
  8
elevon
 62
256
370
-1
  6
ByLayer
 10
548.4653465926032823
 20
43.2932492374127378
 30
0.0
 11
536.5417899999998781
 21
68.4134999999999422
 31
0.0
  0
LINE
  5
61
100
AcDbEntity
100
AcDbLine
  8
elevon
 62
256
370
-1
  6
ByLayer
 10
536.5417899999998781
 20
68.4134999999999422
 30
0.0
 11
850.0
 21
0.0
 31
0.0
  0
LINE
  5
62
100
AcDbEntity
100
AcDbLine
  8
elevon
 62
256
370
-1
  6
ByLayer
 10
850.0
 20
0.0
 30
0.0
 11
850.0
 21
0.0
 31
0.0
  0
LINE
  5
63
100
AcDbEntity
100
AcDbLine
  8
helpers
 62
256
370
-1
  6
ByLayer
 10
460.8308499999999981
 20
276.9698799999999892
 30
0.0
 11
388.6027799999999957
 21
276.9698799999999892
 31
0.0
  0
LINE
  5
64
100
AcDbEntity
100
AcDbLine
  8
helpers
 62
256
370
-1
  6
ByLayer
 10
460.8308499999999981
 20
232.9698799999999892
 30
0.0
 11
388.6027799999999957
 21
232.9698799999999892
 31
0.0
  0
LINE
  5
65
100
AcDbEntity
100
AcDbLine
  8
helpers
 62
256
370
-1
  6
ByLayer
 10
425.0
 20
358.0
 30
0.0
 11
425.0
 21
-100.0
 31
0.0
  0
LINE
  5
66
100
AcDbEntity
100
AcDbLine
  8
helpers
 62
256
370
-1
  6
ByLayer
 10
495.0
 20
358.0
 30
0.0
 11
495.0
 21
-100.0000000000000142
 31
0.0
  0
LINE
  5
67
100
AcDbEntity
100
AcDbLine
  8
helpers
 62
256
370
-1
  6
ByLayer
 10
355.0
 20
358.0
 30
0.0
 11
355.0
 21
-99.9999999999999716
 31
0.0
  0
LINE
  5
68
100
AcDbEntity
100
AcDbLine
  8
helpers
 62
256
370
-1
  6
ByLayer
 10
460.8308499999999981
 20
276.9698799999999892
 30
0.0
 11
388.6027799999999957
 21
276.9698799999999892
 31
0.0
  0
LINE
  5
69
100
AcDbEntity
100
AcDbLine
  8
helpers
 62
256
370
-1
  6
ByLayer
 10
739.6027799999999388
 20
276.9698799999999324
 30
0.0
 11
39.6027799999999957
 21
276.969880000000046
 31
0.0
  0
LINE
  5
6A
100
AcDbEntity
100
AcDbLine
  8
helpers
 62
256
370
-1
  6
ByLayer
 10
739.6027799999999388
 20
232.9698799999999324
 30
0.0
 11
39.6027799999999957
 21
232.969880000000046
 31
0.0
  0
LINE
  5
6B
100
AcDbEntity
100
AcDbLine
  8
helpers
 62
256
370
-1
  6
ByLayer
 10
739.6027799999999388
 20
188.9698799999999324
 30
0.0
 11
39.6027799999999885
 21
188.969880000000046
 31
0.0
  0
LINE
  5
6C
100
AcDbEntity
100
AcDbLine
  8
helpers
 62
256
370
-1
  6
ByLayer
 10
465.0
 20
358.0
 30
0.0
 11
465.0
 21
-100.0000000000000142
 31
0.0
  0
LINE
  5
6D
100
AcDbEntity
100
AcDbLine
  8
helpers
 62
256
370
-1
  6
ByLayer
 10
385.0
 20
358.0
 30
0.0
 11
385.0
 21
-99.9999999999999858
 31
0.0
  0
LINE
  5
6E
100
AcDbEntity
100
AcDbLine
  8
frame
 62
256
370
-1
  6
ByLayer
 10
495.0
 20
276.9698799999999892
 30
0.0
 11
355.0000000000000568
 21
276.9698799999999892
 31
0.0
  0
LINE
  5
6F
100
AcDbEntity
100
AcDbLine
  8
frame
 62
256
370
-1
  6
ByLayer
 10
355.0000000000000568
 20
276.9698799999999892
 30
0.0
 11
355.0000000000000568
 21
232.9698799999999892
 31
0.0
  0
LINE
  5
70
100
AcDbEntity
100
AcDbLine
  8
frame
 62
256
370
-1
  6
ByLayer
 10
355.0000000000000568
 20
232.9698799999999892
 30
0.0
 11
495.0
 21
232.9698799999999608
 31
0.0
  0
LINE
  5
71
100
AcDbEntity
100
AcDbLine
  8
frame
 62
256
370
-1
  6
ByLayer
 10
495.0
 20
232.9698799999999608
 30
0.0
 11
495.0
 21
276.9698799999999892
 31
0.0
  0
LINE
  5
72
100
AcDbEntity
100
AcDbLine
  8
frame
 62
256
370
-1
  6
ByLayer
 10
495.0
 20
276.9698799999999892
 30
0.0
 11
495.0
 21
276.9698799999999892
 31
0.0
  0
LINE
  5
73
100
AcDbEntity
100
AcDbLine
  8
frame
 62
256
370
-1
  6
ByLayer
 10
385.0
 20
188.9698799999999892
 30
0.0
 11
465.0
 21
188.9698799999999892
 31
0.0
  0
LINE
  5
74
100
AcDbEntity
100
AcDbLine
  8
frame
 62
256
370
-1
  6
ByLayer
 10
465.0
 20
188.9698799999999892
 30
0.0
 11
465.0
 21
232.9698799999999324
 31
0.0
  0
LINE
  5
75
100
AcDbEntity
100
AcDbLine
  8
frame
 62
256
370
-1
  6
ByLayer
 10
465.0
 20
232.9698799999999324
 30
0.0
 11
385.0
 21
232.9698799999999892
 31
0.0
  0
LINE
  5
76
100
AcDbEntity
100
AcDbLine
  8
frame
 62
256
370
-1
  6
ByLayer
 10
385.0
 20
232.9698799999999892
 30
0.0
 11
385.0
 21
188.9698799999999892
 31
0.0
  0
LINE
  5
77
100
AcDbEntity
100
AcDbLine
  8
frame
 62
256
370
-1
  6
ByLayer
 10
385.0
 20
188.9698799999999892
 30
0.0
 11
385.0
 21
188.9698799999999892
 31
0.0
  0
LINE
  5
78
100
AcDbEntity
100
AcDbLine
  8
helpers
 62
256
370
-1
  6
ByLayer
 10
329.8544853457248109
 20
163.9360885394023342
 30
0.0
 11
519.587915345724582
 21
164.0533585394023248
 31
0.0
  0
LINE
  5
79
100
AcDbEntity
100
AcDbLine
  8
helpers
 62
256
370
-1
  6
ByLayer
 10
35.0000668534860893
 20
163.7538456017366286
 30
0.0
 11
734.9999331465139676
 21
164.1864999016151216
 31
0.0
  0
LINE
  5
7A
100
AcDbEntity
100
AcDbLine
  8
helpers
 62
256
370
-1
  6
ByLayer
 10
285.0
 20
358.0000000000000568
 30
0.0
 11
285.0
 21
-99.9999999999999432
 31
0.0
  0
LINE
  5
7B
100
AcDbEntity
100
AcDbLine
  8
helpers
 62
256
370
-1
  6
ByLayer
 10
565.0
 20
357.9999999999999432
 30
0.0
 11
565.0
 21
-100.0000000000000284
 31
0.0
  0
LINE
  5
7C
100
AcDbEntity
100
AcDbLine
  8
helpers
 62
256
370
-1
  6
ByLayer
 10
250.0
 20
50.0
 30
0.0
 11
590.0
 21
50.0
 31
0.0
  0
LINE
  5
7D
100
AcDbEntity
100
AcDbLine
  8
electronics
 62
256
370
-1
  6
ByLayer
 10
285.0
 20
50.0
 30
0.0
 11
285.0
 21
163.9083649827444731
 31
0.0
  0
LINE
  5
7E
100
AcDbEntity
100
AcDbLine
  8
electronics
 62
256
370
-1
  6
ByLayer
 10
565.0
 20
164.0814267357524159
 30
0.0
 11
565.0
 21
50.0
 31
0.0
  0
LINE
  5
7F
100
AcDbEntity
100
AcDbLine
  8
electronics
 62
256
370
-1
  6
ByLayer
 10
565.0
 20
170.0
 30
0.0
 11
565.0
 21
148.0
 31
0.0
  0
LINE
  5
80
100
AcDbEntity
100
AcDbLine
  8
electronics
 62
256
370
-1
  6
ByLayer
 10
565.0
 20
148.0
 30
0.0
 11
537.0
 21
148.0
 31
0.0
  0
LINE
  5
81
100
AcDbEntity
100
AcDbLine
  8
electronics
 62
256
370
-1
  6
ByLayer
 10
537.0
 20
148.0
 30
0.0
 11
537.0
 21
170.0
 31
0.0
  0
LINE
  5
82
100
AcDbEntity
100
AcDbLine
  8
electronics
 62
256
370
-1
  6
ByLayer
 10
537.0
 20
170.0
 30
0.0
 11
565.0
 21
170.0
 31
0.0
  0
LINE
  5
83
100
AcDbEntity
100
AcDbLine
  8
electronics
 62
256
370
-1
  6
ByLayer
 10
285.0
 20
170.0
 30
0.0
 11
285.0
 21
147.0
 31
0.0
  0
LINE
  5
84
100
AcDbEntity
100
AcDbLine
  8
electronics
 62
256
370
-1
  6
ByLayer
 10
285.0
 20
147.0
 30
0.0
 11
313.0
 21
147.0
 31
0.0
  0
LINE
  5
85
100
AcDbEntity
100
AcDbLine
  8
electronics
 62
256
370
-1
  6
ByLayer
 10
313.0
 20
147.0
 30
0.0
 11
313.0
 21
170.0
 31
0.0
  0
LINE
  5
86
100
AcDbEntity
100
AcDbLine
  8
electronics
 62
256
370
-1
  6
ByLayer
 10
313.0
 20
170.0
 30
0.0
 11
285.0
 21
170.0
 31
0.0
  0
LINE
  5
87
100
AcDbEntity
100
AcDbLine
  8
helpers
 62
256
370
-1
  6
ByLayer
 10
215.0
 20
358.0000000000000568
 30
0.0
 11
215.0
 21
-99.9999999999999289
 31
0.0
  0
CIRCLE
  5
88
100
AcDbEntity
100
AcDbCircle
  8
helpers
 62
256
370
-1
  6
ByLayer
 10
40.6027799999999885
 20
188.969880000000046
 30
0.0
 40
1.0
  0
CIRCLE
  5
89
100
AcDbEntity
100
AcDbCircle
  8
electronics
 62
256
370
-1
  6
ByLayer
 10
215.0
 20
188.9698800000000176
 30
0.0
 40
4.0
  0
LINE
  5
8A
100
AcDbEntity
100
AcDbLine
  8
electronics
 62
256
370
-1
  6
ByLayer
 10
220.0
 20
192.0
 30
0.0
 11
262.0
 21
192.0
 31
0.0
  0
LINE
  5
8B
100
AcDbEntity
100
AcDbLine
  8
electronics
 62
256
370
-1
  6
ByLayer
 10
262.0
 20
192.0
 30
0.0
 11
262.0
 21
186.0
 31
0.0
  0
LINE
  5
8C
100
AcDbEntity
100
AcDbLine
  8
electronics
 62
256
370
-1
  6
ByLayer
 10
262.0
 20
186.0
 30
0.0
 11
220.0
 21
186.0
 31
0.0
  0
LINE
  5
8D
100
AcDbEntity
100
AcDbLine
  8
electronics
 62
256
370
-1
  6
ByLayer
 10
220.0
 20
186.0
 30
0.0
 11
220.0
 21
192.0
 31
0.0
  0
LINE
  5
8E
100
AcDbEntity
100
AcDbLine
  8
helpers
 62
256
370
-1
  6
ByLayer
 10
530.9028600000004872
 20
237.1069300000000339
 30
0.0
 11
508.7317900000003874
 21
237.1069299999999203
 31
0.0
  0
LINE
  5
8F
100
AcDbEntity
100
AcDbLine
  8
electronics
 62
256
370
-1
  6
ByLayer
 10
510.0
 20
237.0
 30
0.0
 11
530.0
 21
237.0
 31
0.0
  0
LINE
  5
90
100
AcDbEntity
100
AcDbLine
  8
electronics
 62
256
370
-1
  6
ByLayer
 10
530.0
 20
237.0
 30
0.0
 11
530.0
 21
226.0
 31
0.0
  0
LINE
  5
91
100
AcDbEntity
100
AcDbLine
  8
electronics
 62
256
370
-1
  6
ByLayer
 10
530.0
 20
226.0
 30
0.0
 11
510.0
 21
226.0
 31
0.0
  0
LINE
  5
92
100
AcDbEntity
100
AcDbLine
  8
electronics
 62
256
370
-1
  6
ByLayer
 10
510.0
 20
226.0
 30
0.0
 11
510.0
 21
237.0
 31
0.0
  0
LINE
  5
93
100
AcDbEntity
100
AcDbLine
  8
electronics
 62
256
370
-1
  6
ByLayer
 10
517.0
 20
292.0
 30
0.0
 11
523.0
 21
292.0
 31
0.0
  0
LINE
  5
94
100
AcDbEntity
100
AcDbLine
  8
electronics
 62
256
370
-1
  6
ByLayer
 10
523.0
 20
292.0
 30
0.0
 11
523.0
 21
237.0
 31
0.0
  0
LINE
  5
95
100
AcDbEntity
100
AcDbLine
  8
electronics
 62
256
370
-1
  6
ByLayer
 10
523.0
 20
237.0
 30
0.0
 11
517.0
 21
237.0
 31
0.0
  0
LINE
  5
96
100
AcDbEntity
100
AcDbLine
  8
electronics
 62
256
370
-1
  6
ByLayer
 10
517.0
 20
237.0
 30
0.0
 11
517.0
 21
292.0
 31
0.0
  0
LINE
  5
97
100
AcDbEntity
100
AcDbLine
  8
electronics
 62
256
370
-1
  6
ByLayer
 10
390.0
 20
344.0
 30
0.0
 11
460.0
 21
344.0
 31
0.0
  0
LINE
  5
98
100
AcDbEntity
100
AcDbLine
  8
electronics
 62
256
370
-1
  6
ByLayer
 10
460.0
 20
344.0
 30
0.0
 11
460.0
 21
309.0
 31
0.0
  0
LINE
  5
99
100
AcDbEntity
100
AcDbLine
  8
electronics
 62
256
370
-1
  6
ByLayer
 10
460.0
 20
309.0
 30
0.0
 11
390.0
 21
309.0
 31
0.0
  0
LINE
  5
9A
100
AcDbEntity
100
AcDbLine
  8
electronics
 62
256
370
-1
  6
ByLayer
 10
390.0
 20
309.0
 30
0.0
 11
390.0
 21
344.0
 31
0.0
  0
LINE
  5
9B
100
AcDbEntity
100
AcDbLine
  8
electronics
 62
256
370
-1
  6
ByLayer
 10
405.0
 20
307.0
 30
0.0
 11
445.0
 21
307.0
 31
0.0
  0
LINE
  5
9C
100
AcDbEntity
100
AcDbLine
  8
electronics
 62
256
370
-1
  6
ByLayer
 10
445.0
 20
307.0
 30
0.0
 11
445.0
 21
268.0
 31
0.0
  0
LINE
  5
9D
100
AcDbEntity
100
AcDbLine
  8
electronics
 62
256
370
-1
  6
ByLayer
 10
445.0
 20
268.0
 30
0.0
 11
405.0
 21
268.0
 31
0.0
  0
LINE
  5
9E
100
AcDbEntity
100
AcDbLine
  8
electronics
 62
256
370
-1
  6
ByLayer
 10
405.0
 20
268.0
 30
0.0
 11
405.0
 21
307.0
 31
0.0
  0
LINE
  5
9F
100
AcDbEntity
100
AcDbLine
  8
helpers
 62
256
370
-1
  6
ByLayer
 10
585.0
 20
357.9999999999999432
 30
0.0
 11
585.0
 21
-100.0000000000000284
 31
0.0
  0
LINE
  5
A0
100
AcDbEntity
100
AcDbLine
  8
helpers
 62
256
370
-1
  6
ByLayer
 10
840.0453174331128139
 20
104.0562668188443496
 30
0.0
 11
524.5968974331127583
 21
285.0825268188444284
 31
0.0
  0
LINE
  5
A1
100
AcDbEntity
100
AcDbLine
  8
helpers
 62
256
370
-1
  6
ByLayer
 10
830.0
 20
0.0000000000000024
 30
0.0
 11
830.0
 21
121.4028599999999187
 31
0.0
  0
LINE
  5
A2
100
AcDbEntity
100
AcDbLine
  8
helpers
 62
256
370
-1
  6
ByLayer
 10
540.8064773522123687
 20
87.9535215401077863
 30
0.0
 11
854.2646873522124906
 21
19.5400215401078476
 31
0.0
  0
LINE
  5
A3
100
AcDbEntity
100
AcDbLine
  8
area
 62
256
370
-1
  6
ByLayer
 10
585.0
 20
250.4190222431042798
 30
0.0
 11
585.0
 21
78.3081095993441068
 31
0.0
  0
LINE
  5
A4
100
AcDbEntity
100
AcDbLine
  8
area
 62
256
370
-1
  6
ByLayer
 10
585.0
 20
78.3081095993441068
 30
0.0
 11
830.0
 21
24.8358859814015958
 31
0.0
  0
LINE
  5
A5
100
AcDbEntity
100
AcDbLine
  8
area
 62
256
370
-1
  6
ByLayer
 10
830.0
 20
24.8358859814015958
 30
0.0
 11
830.0
 21
109.8209691604481435
 31
0.0
  0
LINE
  5
A6
100
AcDbEntity
100
AcDbLine
  8
area
 62
256
370
-1
  6
ByLayer
 10
830.0
 20
109.8209691604481435
 30
0.0
 11
585.0
 21
250.4190222431042798
 31
0.0
  0
LINE
  5
A7
100
AcDbEntity
100
AcDbLine
  8
helpers
 62
256
370
-1
  6
ByLayer
 10
195.0
 20
358.0000000000000568
 30
0.0
 11
195.0
 21
-99.9999999999999147
 31
0.0
  0
LINE
  5
A8
100
AcDbEntity
100
AcDbLine
  8
helpers
 62
256
370
-1
  6
ByLayer
 10
398.5762394723203101
 20
327.6340758319209954
 30
0.0
 11
9.973459472320231
 21
104.0670558319210954
 31
0.0
  0
LINE
  5
A9
100
AcDbEntity
100
AcDbLine
  8
helpers
 62
256
370
-1
  6
ByLayer
 10
20.0000000000000071
 20
350.0000000000001137
 30
0.0
 11
19.9999999999998792
 21
-349.9999999999998863
 31
0.0
  0
LINE
  5
AA
100
AcDbEntity
100
AcDbLine
  8
helpers
 62
256
370
-1
  6
ByLayer
 10
-4.2666587080211977
 20
19.5395911796862265
 30
0.0
 11
309.0398212919787966
 21
87.9530911796861119
 31
0.0
  0
LINE
  5
AB
100
AcDbEntity
100
AcDbLine
  8
area
 62
256
370
-1
  6
ByLayer
 10
19.9999999999999467
 20
24.8384507995741046
 30
0.0
 11
20.0
 21
109.8354236924973577
 31
0.0
  0
LINE
  5
AC
100
AcDbEntity
100
AcDbLine
  8
area
 62
256
370
-1
  6
ByLayer
 10
20.0
 20
109.8354236924973577
 30
0.0
 11
195.0
 21
210.5146532646583637
 31
0.0
  0
LINE
  5
AD
100
AcDbEntity
100
AcDbLine
  8
area
 62
256
370
-1
  6
ByLayer
 10
195.0
 20
210.5146532646583637
 30
0.0
 11
195.0
 21
63.051393283240543
 31
0.0
  0
LINE
  5
AE
100
AcDbEntity
100
AcDbLine
  8
area
 62
256
370
-1
  6
ByLayer
 10
195.0
 20
63.051393283240543
 30
0.0
 11
19.9999999999999467
 21
24.8384507995740798
 31
0.0
  0
DIMENSION
  5
AF
100
AcDbEntity
  8
dimensions
 62
256
370
-1
  6
ByLayer
100
AcDbDimension
 10
20.0000000000000107
 20
270.0
 30
0.0
 11
107.5
 21
280.0
 31
0.0
 70
0
 71
5
 72
1
 41
1.0
 42
0.0
  1

  3
Standard
100
AcDbAlignedDimension
 13
195.0
 23
210.5146532646583637
 33
0.0
 14
20.0
 24
109.8354236924973577
 34
0.0
 50
0.0
100
AcDbRotatedDimension
  0
DIMENSION
  5
B0
100
AcDbEntity
  8
dimensions
 62
256
370
-1
  6
ByLayer
100
AcDbDimension
 10
-20.0000000000000142
 20
109.8354236924973577
 30
0.0
 11
-30.0000000000000107
 21
160.1750384785778465
 31
0.0
 70
0
 71
5
 72
1
 41
1.0
 42
0.0
  1

  3
Standard
100
AcDbAlignedDimension
 13
195.0
 23
210.5146532646583637
 33
0.0
 14
20.0
 24
109.8354236924973577
 34
0.0
 50
90.0
100
AcDbRotatedDimension
  0
DIMENSION
  5
B1
100
AcDbEntity
  8
dimensions
 62
256
370
-1
  6
ByLayer
100
AcDbDimension
 10
-20.0000000000000249
 20
24.8384507995740833
 30
0.0
 11
-30.0000000000000213
 21
67.336937246035717
 31
0.0
 70
0
 71
5
 72
1
 41
1.0
 42
0.0
  1

  3
Standard
100
AcDbAlignedDimension
 13
20.0
 23
109.8354236924973577
 33
0.0
 14
19.9999999999999467
 24
24.8384507995740798
 34
0.0
 50
90.0
100
AcDbRotatedDimension
  0
DIMENSION
  5
B2
100
AcDbEntity
  8
dimensions
 62
256
370
-1
  6
ByLayer
100
AcDbDimension
 10
249.9999999999999716
 20
63.0513932832405359
 30
0.0
 11
239.9999999999999716
 21
136.7830232739494534
 31
0.0
 70
0
 71
5
 72
1
 41
1.0
 42
0.0
  1

  3
Standard
100
AcDbAlignedDimension
 13
195.0
 23
210.5146532646583637
 33
0.0
 14
195.0
 24
63.051393283240543
 34
0.0
 50
90.0
100
AcDbRotatedDimension
  0
DIMENSION
  5
B3
100
AcDbEntity
  8
dimensions
 62
256
370
-1
  6
ByLayer
100
AcDbDimension
 10
250.0
 20
24.8384507995740513
 30
0.0
 11
240.0
 21
43.9449220414073096
 31
0.0
 70
0
 71
5
 72
1
 41
1.0
 42
0.0
  1

  3
Standard
100
AcDbAlignedDimension
 13
195.0
 23
63.051393283240543
 33
0.0
 14
19.9999999999999432
 24
24.8384507995740762
 34
0.0
 50
90.0
100
AcDbRotatedDimension
  0
DIMENSION
  5
B4
100
AcDbEntity
  8
dimensions
 62
256
370
-1
  6
ByLayer
100
AcDbDimension
 10
660.0
 20
78.3081095993440925
 30
0.0
 11
650.0
 21
164.3635659212241933
 31
0.0
 70
0
 71
5
 72
1
 41
1.0
 42
0.0
  1

  3
Standard
100
AcDbAlignedDimension
 13
585.0
 23
250.4190222431042798
 33
0.0
 14
585.0
 24
78.3081095993441068
 34
0.0
 50
90.0
100
AcDbRotatedDimension
  0
DIMENSION
  5
B5
100
AcDbEntity
  8
dimensions
 62
256
370
-1
  6
ByLayer
100
AcDbDimension
 10
660.0
 20
24.8358859814016135
 30
0.0
 11
650.0
 21
51.5719977903728477
 31
0.0
 70
0
 71
5
 72
1
 41
1.0
 42
0.0
  1

  3
Standard
100
AcDbAlignedDimension
 13
585.0
 23
78.3081095993441068
 33
0.0
 14
830.0
 24
24.8358859814015958
 34
0.0
 50
90.0
100
AcDbRotatedDimension
  0
DIMENSION
  5
B6
100
AcDbEntity
  8
dimensions
 62
256
370
-1
  6
ByLayer
100
AcDbDimension
 10
880.0
 20
109.8209691604481293
 30
0.0
 11
870.0
 21
67.328427570924859
 31
0.0
 70
0
 71
5
 72
1
 41
1.0
 42
0.0
  1

  3
Standard
100
AcDbAlignedDimension
 13
830.0
 23
24.8358859814015958
 33
0.0
 14
830.0
 24
109.8209691604481293
 34
0.0
 50
90.0
100
AcDbRotatedDimension
  0
DIMENSION
  5
B7
100
AcDbEntity
  8
dimensions
 62
256
370
-1
  6
ByLayer
100
AcDbDimension
 10
880.0
 20
250.4190222431042798
 30
0.0
 11
870.0
 21
180.1199957017762188
 31
0.0
 70
0
 71
5
 72
1
 41
1.0
 42
0.0
  1

  3
Standard
100
AcDbAlignedDimension
 13
830.0
 23
109.8209691604481435
 33
0.0
 14
585.0
 24
250.4190222431042798
 34
0.0
 50
90.0
100
AcDbRotatedDimension
  0
DIMENSION
  5
B8
100
AcDbEntity
  8
dimensions
 62
256
370
-1
  6
ByLayer
100
AcDbDimension
 10
830.0
 20
310.0
 30
0.0
 11
707.5
 21
320.0
 31
0.0
 70
0
 71
5
 72
1
 41
1.0
 42
0.0
  1

  3
Standard
100
AcDbAlignedDimension
 13
585.0
 23
250.4190222431042798
 33
0.0
 14
830.0
 24
109.8209691604481435
 34
0.0
 50
0.0
100
AcDbRotatedDimension
  0
LINE
  5
B9
100
AcDbEntity
100
AcDbLine
  8
helpers
 62
256
370
-1
  6
ByLayer
 10
528.0124152955748968
 20
82.3334569197842399
 30
0.0
 11
841.4706252955750188
 21
13.9199569197842976
 31
0.0
  0
LINE
  5
BA
100
AcDbEntity
100
AcDbLine
  8
electronics
 62
256
370
-1
  6
ByLayer
 10
419.0
 20
139.0
 30
0.0
 11
431.0
 21
139.0
 31
0.0
  0
LINE
  5
BB
100
AcDbEntity
100
AcDbLine
  8
electronics
 62
256
370
-1
  6
ByLayer
 10
431.0
 20
139.0
 30
0.0
 11
431.0
 21
110.0
 31
0.0
  0
LINE
  5
BC
100
AcDbEntity
100
AcDbLine
  8
electronics
 62
256
370
-1
  6
ByLayer
 10
431.0
 20
110.0
 30
0.0
 11
419.0
 21
110.0
 31
0.0
  0
LINE
  5
BD
100
AcDbEntity
100
AcDbLine
  8
electronics
 62
256
370
-1
  6
ByLayer
 10
419.0
 20
110.0
 30
0.0
 11
419.0
 21
139.0
 31
0.0
  0
LINE
  5
BE
100
AcDbEntity
100
AcDbLine
  8
electronics
 62
256
370
-1
  6
ByLayer
 10
410.0
 20
100.0
 30
0.0
 11
440.0
 21
100.0
 31
0.0
  0
LINE
  5
BF
100
AcDbEntity
100
AcDbLine
  8
electronics
 62
256
370
-1
  6
ByLayer
 10
440.0
 20
100.0
 30
0.0
 11
440.0
 21
89.0
 31
0.0
  0
LINE
  5
C0
100
AcDbEntity
100
AcDbLine
  8
electronics
 62
256
370
-1
  6
ByLayer
 10
440.0
 20
89.0
 30
0.0
 11
410.0
 21
89.0
 31
0.0
  0
LINE
  5
C1
100
AcDbEntity
100
AcDbLine
  8
electronics
 62
256
370
-1
  6
ByLayer
 10
410.0
 20
89.0
 30
0.0
 11
410.0
 21
100.0
 31
0.0
  0
LINE
  5
C2
100
AcDbEntity
100
AcDbLine
  8
electronics
 62
256
370
-1
  6
ByLayer
 10
424.0
 20
89.0
 30
0.0
 11
426.0
 21
89.0
 31
0.0
  0
LINE
  5
C3
100
AcDbEntity
100
AcDbLine
  8
electronics
 62
256
370
-1
  6
ByLayer
 10
426.0
 20
89.0
 30
0.0
 11
426.0
 21
80.0
 31
0.0
  0
LINE
  5
C4
100
AcDbEntity
100
AcDbLine
  8
electronics
 62
256
370
-1
  6
ByLayer
 10
426.0
 20
80.0
 30
0.0
 11
424.0
 21
80.0
 31
0.0
  0
LINE
  5
C5
100
AcDbEntity
100
AcDbLine
  8
electronics
 62
256
370
-1
  6
ByLayer
 10
424.0
 20
80.0
 30
0.0
 11
424.0
 21
89.0
 31
0.0
  0
MTEXT
  5
C6
100
AcDbEntity
100
AcDbMText
  8
text
 62
256
370
-1
  6
ByLayer
 10
367.8324925686358142
 20
258.1061897007037942
 30
0.0
 40
10.0
 41
100.0
 71
1
 72
2
  1
Battery, 2S 3.3A
  7
iso
 50
0.0
 73
0
 44
1.0
  0
MTEXT
  5
C7
100
AcDbEntity
100
AcDbMText
  8
text
 62
256
370
-1
  6
ByLayer
 10
413.9674153653799635
 20
296.1363287628847729
 30
0.0
 40
10.0
 41
100.0
 71
1
 72
2
  1
GPS
  7
iso
 50
0.0
 73
0
 44
1.0
  0
MTEXT
  5
C8
100
AcDbEntity
100
AcDbMText
  8
text
 62
256
370
-1
  6
ByLayer
 10
407.7329663387928917
 20
331.0492433117722157
 30
0.0
 40
10.0
 41
100.0
 71
1
 72
2
  1
GoPro
  7
iso
 50
0.0
 73
0
 44
1.0
  0
MTEXT
  5
C9
100
AcDbEntity
100
AcDbMText
  8
text
 62
256
370
-1
  6
ByLayer
 10
218.2057159305466598
 20
213.8416016119357437
 30
0.0
 40
10.0
 41
100.0
 71
1
 72
2
  1
3DR Modem
  7
iso
 50
0.0
 73
0
 44
1.0
  0
MTEXT
  5
CA
100
AcDbEntity
100
AcDbMText
  8
text
 62
256
370
-1
  6
ByLayer
 10
415.8377500733560623
 20
156.4846705673348879
 30
0.0
 40
10.0
 41
100.0
 71
1
 72
2
  1
BEC
  7
iso
 50
0.0
 73
0
 44
1.0
  0
MTEXT
  5
CB
100
AcDbEntity
100
AcDbMText
  8
text
 62
256
370
-1
  6
ByLayer
 10
509.9779303748205166
 20
215.0884914172531523
 30
0.0
 40
10.0
 41
100.0
 71
1
 72
2
  1
Airspeed
  7
iso
 50
0.0
 73
0
 44
1.0
  0
DIMENSION
  5
CC
100
AcDbEntity
  8
dimensions equipment
 62
256
370
-1
  6
ByLayer
100
AcDbDimension
 10
700.0
 20
276.9698799999999892
 30
0.0
 11
690.0
 21
310.9698799999999892
 31
0.0
 70
0
 71
5
 72
1
 41
1.0
 42
0.0
  1

  3
Standard
100
AcDbAlignedDimension
 13
460.8308499999999981
 23
344.9698799999999892
 33
0.0
 14
495.0
 24
276.9698799999999892
 34
0.0
 50
90.0
100
AcDbRotatedDimension
  0
DIMENSION
  5
CD
100
AcDbEntity
  8
dimensions equipment
 62
256
370
-1
  6
ByLayer
100
AcDbDimension
 10
700.0
 20
232.9698799999999608
 30
0.0
 11
690.0
 21
254.9698799999999892
 31
0.0
 70
0
 71
5
 72
1
 41
1.0
 42
0.0
  1

  3
Standard
100
AcDbAlignedDimension
 13
495.0
 23
276.9698799999999892
 33
0.0
 14
495.0
 24
232.9698799999999608
 34
0.0
 50
90.0
100
AcDbRotatedDimension
  0
DIMENSION
  5
CE
100
AcDbEntity
  8
dimensions equipment
 62
256
370
-1
  6
ByLayer
100
AcDbDimension
 10
700.0
 20
188.9698799999999892
 30
0.0
 11
690.0
 21
210.9698799999999892
 31
0.0
 70
0
 71
5
 72
1
 41
1.0
 42
0.0
  1

  3
Standard
100
AcDbAlignedDimension
 13
495.0
 23
232.9698799999999608
 33
0.0
 14
465.0
 24
188.9698799999999892
 34
0.0
 50
90.0
100
AcDbRotatedDimension
  0
DIMENSION
  5
CF
100
AcDbEntity
  8
dimensions equipment
 62
256
370
-1
  6
ByLayer
100
AcDbDimension
 10
465.0
 20
10.0
 30
0.0
 11
425.0
 21
20.0
 31
0.0
 70
0
 71
5
 72
1
 41
1.0
 42
0.0
  1

  3
Standard
100
AcDbAlignedDimension
 13
385.0
 23
188.9698799999999892
 33
0.0
 14
465.0
 24
188.9698799999999892
 34
0.0
 50
0.0
100
AcDbRotatedDimension
  0
MTEXT
  5
D0
100
AcDbEntity
100
AcDbMText
  8
text
 62
256
370
-1
  6
ByLayer
 10
400.0
 20
210.0
 30
0.0
 40
10.0
 41
100.0
 71
1
 72
0
  1
APM 2.6
  7
normallatin1
 50
0.0
 73
1
 44
1.0
  0
DIMENSION
  5
D1
100
AcDbEntity
  8
text
 62
256
370
-1
  6
ByLayer
100
AcDbDimension
 10
445.0
 20
370.0
 30
0.0
 11
425.0
 21
380.0
 31
0.0
 70
0
 71
5
 72
1
 41
1.0
 42
0.0
  1

  3
Standard
100
AcDbAlignedDimension
 13
405.0
 23
307.0
 33
0.0
 14
445.0
 24
307.0
 34
0.0
 50
0.0
100
AcDbRotatedDimension
  0
ENDSEC
  0
SECTION
  2
OBJECTS
  0
DICTIONARY
  5
C
100
AcDbDictionary
280
0
281
1
  3
ACAD_GROUP
350
D
  3
ACAD_LAYOUT
350
1A
  3
ACAD_MLINESTYLE
350
17
  3
ACAD_PLOTSETTINGS
350
19
  3
ACAD_PLOTSTYLENAME
350
E
  3
AcDbVariableDictionary
350
D2
  0
DICTIONARY
  5
D
100
AcDbDictionary
280
0
281
1
  0
ACDBDICTIONARYWDFLT
  5
E
100
AcDbDictionary
281
1
  3
Normal
350
F
100
AcDbDictionaryWithDefault
340
F
  0
ACDBPLACEHOLDER
  5
F
  0
DICTIONARY
  5
17
100
AcDbDictionary
280
0
281
1
  3
Standard
350
18
  0
MLINESTYLE
  5
18
100
AcDbMlineStyle
  2
STANDARD
 70
0
  3

 62
256
 51
90.0
 52
90.0
 71
2
 49
0.5
 62
256
  6
BYLAYER
 49
-0.5
 62
256
  6
BYLAYER
  0
DICTIONARY
  5
19
100
AcDbDictionary
280
0
281
1
  0
DICTIONARY
  5
1A
100
AcDbDictionary
281
1
  3
Layout1
350
1E
  3
Layout2
350
26
  3
Model
350
22
  0
LAYOUT
  5
1E
100
AcDbPlotSettings
  1

  2
C:\Program Files\AutoCAD 2002\plotters\DWF ePlot (optimized for plotting).pc3
  4

  6

 40
0.0
 41
0.0
 42
0.0
 43
0.0
 44
0.0
 45
0.0
 46
0.0
 47
0.0
 48
0.0
 49
0.0
140
0.0
141
0.0
142
1.0
143
1.0
 70
688
 72
0
 73
0
 74
5
  7

 75
16
147
1.0
148
0.0
149
0.0
100
AcDbLayout
  1
Layout1
 70
1
 71
1
 10
0.0
 20
0.0
 11
420.0
 21
297.0
 12
0.0
 22
0.0
 32
0.0
 14
100000000000000000000.0
 24
100000000000000000000.0
 34
100000000000000000000.0
 15
-100000000000000000000.0
 25
-100000000000000000000.0
 35
-100000000000000000000.0
146
0.0
 13
0.0
 23
0.0
 33
0.0
 16
1.0
 26
0.0
 36
0.0
 17
0.0
 27
1.0
 37
0.0
 76
0
330
1B
  0
LAYOUT
  5
22
100
AcDbPlotSettings
  1

  2
C:\Program Files\AutoCAD 2002\plotters\DWF ePlot (optimized for plotting).pc3
  4

  6

 40
0.0
 41
0.0
 42
0.0
 43
0.0
 44
0.0
 45
0.0
 46
0.0
 47
0.0
 48
0.0
 49
0.0
140
0.0
141
0.0
142
1.0
143
1.0
 70
1712
 72
0
 73
0
 74
0
  7

 75
0
147
1.0
148
0.0
149
0.0
100
AcDbLayout
  1
Model
 70
1
 71
0
 10
0.0
 20
0.0
 11
12.0
 21
9.0
 12
0.0
 22
0.0
 32
0.0
 14
0.0
 24
0.0
 34
0.0
 15
0.0
 25
0.0
 35
0.0
146
0.0
 13
0.0
 23
0.0
 33
0.0
 16
1.0
 26
0.0
 36
0.0
 17
0.0
 27
1.0
 37
0.0
 76
0
330
1F
  0
LAYOUT
  5
26
100
AcDbPlotSettings
  1

  2
C:\Program Files\AutoCAD 2002\plotters\DWF ePlot (optimized for plotting).pc3
  4

  6

 40
0.0
 41
0.0
 42
0.0
 43
0.0
 44
0.0
 45
0.0
 46
0.0
 47
0.0
 48
0.0
 49
0.0
140
0.0
141
0.0
142
1.0
143
1.0
 70
688
 72
0
 73
0
 74
5
  7

 75
16
147
1.0
148
0.0
149
0.0
100
AcDbLayout
  1
Layout2
 70
1
 71
2
 10
0.0
 20
0.0
 11
12.0
 21
9.0
 12
0.0
 22
0.0
 32
0.0
 14
0.0
 24
0.0
 34
0.0
 15
0.0
 25
0.0
 35
0.0
146
0.0
 13
0.0
 23
0.0
 33
0.0
 16
1.0
 26
0.0
 36
0.0
 17
0.0
 27
1.0
 37
0.0
 76
0
330
23
  0
DICTIONARY
  5
D2
100
AcDbDictionary
281
1
  3
DIMASSOC
350
D4
  3
HIDETEXT
350
D3
  0
DICTIONARYVAR
  5
D3
100
DictionaryVariables
280
0
  1
2
  0
DICTIONARYVAR
  5
D4
100
DictionaryVariables
280
0
  1
1
  0
ENDSEC
  0
EOF
