999
dxflib 2.2.0.0
  0
SECTION
  2
HEADER
  9
$ACADVER
  1
AC1015
  9
$HANDSEED
  5
FFFF
  9
$SPLINESEGS
 70
8
  9
$DIMEXE
 40
10.0
  9
$PSVPSCALE
 40
0.1
  9
$DIMLUNIT
 70
2
  9
$GRIDMODE
 70
1
  9
$INSUNITS
 70
4
  9
$DIMADEC
 70
2
  9
$DIMASZ
 40
10.0
  9
$DIMGAP
 40
10.0
  9
$DIMTXT
 40
5.0
  9
$GRIDUNIT
 10
0.0
 20
0.0
  9
$DIMEXO
 40
10.0
  9
$LUPREC
 70
2
  9
$PINSBASE
 10
30.0
 20
120.0
 30
0.0
  9
$DIMAUNIT
 70
0
  9
$AUPREC
 70
2
  9
$PLIMMIN
 10
0.0
 20
0.0
  9
$LUNITS
 70
2
  9
$PLIMMAX
 10
297.0
 20
210.0
  9
$DIMSTYLE
  2
Standard
  9
$AUNITS
 70
0
  0
ENDSEC
  0
SECTION
  2
TABLES
  0
TABLE
  2
VPORT
  5
8
100
AcDbSymbolTable
 70
1
  0
VPORT
  5
30
100
AcDbSymbolTableRecord
100
AcDbViewportTableRecord
  2
*Active
 70
0
 10
0.0
 20
0.0
 11
1.0
 21
1.0
 12
286.3055555555554861
 22
148.5
 13
0.0
 23
0.0
 14
10.0
 24
10.0
 15
10.0
 25
10.0
 16
0.0
 26
0.0
 36
1.0
 17
0.0
 27
0.0
 37
0.0
 40
297.0
 41
1.92798353909465
 42
50.0
 43
0.0
 44
0.0
 50
0.0
 51
0.0
 71
0
 72
100
 73
1
 74
3
 75
1
 76
1
 77
0
 78
0
281
0
 65
1
110
0.0
120
0.0
130
0.0
111
1.0
121
0.0
131
0.0
112
0.0
122
1.0
132
0.0
 79
0
146
0.0
  0
ENDTAB
  0
TABLE
  2
LTYPE
  5
5
100
AcDbSymbolTable
 70
21
  0
LTYPE
  5
14
100
AcDbSymbolTableRecord
100
AcDbLinetypeTableRecord
  2
ByBlock
 70
0
  3

 72
65
 73
0
 40
0.0
  0
LTYPE
  5
15
100
AcDbSymbolTableRecord
100
AcDbLinetypeTableRecord
  2
ByLayer
 70
0
  3

 72
65
 73
0
 40
0.0
  0
LTYPE
  5
16
100
AcDbSymbolTableRecord
100
AcDbLinetypeTableRecord
  2
CONTINUOUS
 70
0
  3
Solid line
 72
65
 73
0
 40
0.0
  0
LTYPE
  5
31
100
AcDbSymbolTableRecord
100
AcDbLinetypeTableRecord
  2
DOT
 70
0
  3
Dot . . . . . . . . . . . . . . . . . . . . . .
 72
65
 73
2
 40
6.3499999999999996
 49
0.0
 74
0
 49
-6.3499999999999996
 74
0
  0
LTYPE
  5
32
100
AcDbSymbolTableRecord
100
AcDbLinetypeTableRecord
  2
DOT2
 70
0
  3
Dot (.5x) .....................................
 72
65
 73
2
 40
3.1749999999999998
 49
0.0
 74
0
 49
-3.1749999999999998
 74
0
  0
LTYPE
  5
33
100
AcDbSymbolTableRecord
100
AcDbLinetypeTableRecord
  2
DOTX2
 70
0
  3
Dot (2x) .  .  .  .  .  .  .  .  .  .  .  .  .
 72
65
 73
2
 40
12.6999999999999993
 49
0.0
 74
0
 49
-12.6999999999999993
 74
0
  0
LTYPE
  5
34
100
AcDbSymbolTableRecord
100
AcDbLinetypeTableRecord
  2
DASHED
 70
0
  3
Dashed __ __ __ __ __ __ __ __ __ __ __ __ __ _
 72
65
 73
2
 40
19.0500000000000007
 49
12.6999999999999993
 74
0
 49
-6.3499999999999996
 74
0
  0
LTYPE
  5
35
100
AcDbSymbolTableRecord
100
AcDbLinetypeTableRecord
  2
DASHED2
 70
0
  3
Dashed (.5x) _ _ _ _ _ _ _ _ _ _ _ _ _ _ _ _ _
 72
65
 73
2
 40
9.5250000000000004
 49
6.3499999999999996
 74
0
 49
-3.1749999999999998
 74
0
  0
LTYPE
  5
36
100
AcDbSymbolTableRecord
100
AcDbLinetypeTableRecord
  2
DASHEDX2
 70
0
  3
Dashed (2x) ____  ____  ____  ____  ____  ___
 72
65
 73
2
 40
38.1000000000000014
 49
25.3999999999999986
 74
0
 49
-12.6999999999999993
 74
0
  0
LTYPE
  5
37
100
AcDbSymbolTableRecord
100
AcDbLinetypeTableRecord
  2
DASHDOT
 70
0
  3
Dash dot __ . __ . __ . __ . __ . __ . __ . __
 72
65
 73
4
 40
25.3999999999999986
 49
12.6999999999999993
 74
0
 49
-6.3499999999999996
 74
0
 49
0.0
 74
0
 49
-6.3499999999999996
 74
0
  0
LTYPE
  5
38
100
AcDbSymbolTableRecord
100
AcDbLinetypeTableRecord
  2
DASHDOT2
 70
0
  3
Dash dot (.5x) _._._._._._._._._._._._._._._.
 72
65
 73
4
 40
12.6999999999999993
 49
6.3499999999999996
 74
0
 49
-3.1749999999999998
 74
0
 49
0.0
 74
0
 49
-3.1749999999999998
 74
0
  0
LTYPE
  5
39
100
AcDbSymbolTableRecord
100
AcDbLinetypeTableRecord
  2
DASHDOTX2
 70
0
  3
Dash dot (2x) ____  .  ____  .  ____  .  ___
 72
65
 73
4
 40
50.7999999999999972
 49
25.3999999999999986
 74
0
 49
-12.6999999999999993
 74
0
 49
0.0
 74
0
 49
-12.6999999999999993
 74
0
  0
LTYPE
  5
3A
100
AcDbSymbolTableRecord
100
AcDbLinetypeTableRecord
  2
DIVIDE
 70
0
  3
Divide ____ . . ____ . . ____ . . ____ . . ____
 72
65
 73
6
 40
31.75
 49
12.6999999999999993
 74
0
 49
-6.3499999999999996
 74
0
 49
0.0
 74
0
 49
-6.3499999999999996
 74
0
 49
0.0
 74
0
 49
-6.3499999999999996
 74
0
  0
LTYPE
  5
3B
100
AcDbSymbolTableRecord
100
AcDbLinetypeTableRecord
  2
DIVIDE2
 70
0
  3
Divide (.5x) __..__..__..__..__..__..__..__.._
 72
65
 73
6
 40
15.875
 49
6.3499999999999996
 74
0
 49
-3.1749999999999998
 74
0
 49
0.0
 74
0
 49
-3.1749999999999998
 74
0
 49
0.0
 74
0
 49
-3.1749999999999998
 74
0
  0
LTYPE
  5
3C
100
AcDbSymbolTableRecord
100
AcDbLinetypeTableRecord
  2
DIVIDEX2
 70
0
  3
Divide (2x) ________  .  .  ________  .  .  _
 72
65
 73
6
 40
63.5
 49
25.3999999999999986
 74
0
 49
-12.6999999999999993
 74
0
 49
0.0
 74
0
 49
-12.6999999999999993
 74
0
 49
0.0
 74
0
 49
-12.6999999999999993
 74
0
  0
LTYPE
  5
3D
100
AcDbSymbolTableRecord
100
AcDbLinetypeTableRecord
  2
CENTER
 70
0
  3
Center ____ _ ____ _ ____ _ ____ _ ____ _ ____
 72
65
 73
4
 40
50.7999999999999972
 49
31.75
 74
0
 49
-6.3499999999999996
 74
0
 49
6.3499999999999996
 74
0
 49
-6.3499999999999996
 74
0
  0
LTYPE
  5
3E
100
AcDbSymbolTableRecord
100
AcDbLinetypeTableRecord
  2
CENTER2
 70
0
  3
Center (.5x) ___ _ ___ _ ___ _ ___ _ ___ _ ___
 72
65
 73
4
 40
28.5749999999999993
 49
19.0500000000000007
 74
0
 49
-3.1749999999999998
 74
0
 49
3.1749999999999998
 74
0
 49
-3.1749999999999998
 74
0
  0
LTYPE
  5
3F
100
AcDbSymbolTableRecord
100
AcDbLinetypeTableRecord
  2
CENTERX2
 70
0
  3
Center (2x) ________  __  ________  __  _____
 72
65
 73
4
 40
101.5999999999999943
 49
63.5
 74
0
 49
-12.6999999999999993
 74
0
 49
12.6999999999999993
 74
0
 49
-12.6999999999999993
 74
0
  0
LTYPE
  5
40
100
AcDbSymbolTableRecord
100
AcDbLinetypeTableRecord
  2
BORDER
 70
0
  3
Border __ __ . __ __ . __ __ . __ __ . __ __ .
 72
65
 73
6
 40
44.4500000000000028
 49
12.6999999999999993
 74
0
 49
-6.3499999999999996
 74
0
 49
12.6999999999999993
 74
0
 49
-6.3499999999999996
 74
0
 49
0.0
 74
0
 49
-6.3499999999999996
 74
0
  0
LTYPE
  5
41
100
AcDbSymbolTableRecord
100
AcDbLinetypeTableRecord
  2
BORDER2
 70
0
  3
Border (.5x) __.__.__.__.__.__.__.__.__.__.__.
 72
65
 73
6
 40
22.2250000000000014
 49
6.3499999999999996
 74
0
 49
-3.1749999999999998
 74
0
 49
6.3499999999999996
 74
0
 49
-3.1749999999999998
 74
0
 49
0.0
 74
0
 49
-3.1749999999999998
 74
0
  0
LTYPE
  5
42
100
AcDbSymbolTableRecord
100
AcDbLinetypeTableRecord
  2
BORDERX2
 70
0
  3
Border (2x) ____  ____  .  ____  ____  .  ___
 72
65
 73
6
 40
88.9000000000000057
 49
25.3999999999999986
 74
0
 49
-12.6999999999999993
 74
0
 49
25.3999999999999986
 74
0
 49
-12.6999999999999993
 74
0
 49
0.0
 74
0
 49
-12.6999999999999993
 74
0
  0
ENDTAB
  0
TABLE
  2
LAYER
  5
2
100
AcDbSymbolTable
 70
12
  0
LAYER
  5
10
100
AcDbSymbolTableRecord
100
AcDbLayerTableRecord
  2
0
 70
0
 62
7
  6
CONTINUOUS
290
1
370
0
390
F
  0
LAYER
  5
43
100
AcDbSymbolTableRecord
100
AcDbLayerTableRecord
  2
wing
 70
1
 62
7
  6
CONTINUOUS
290
1
370
25
390
F
  0
LAYER
  5
44
100
AcDbSymbolTableRecord
100
AcDbLayerTableRecord
  2
Masse
 70
1
 62
3
  6
CONTINUOUS
290
1
370
9
390
F
  0
LAYER
  5
45
100
AcDbSymbolTableRecord
100
AcDbLayerTableRecord
  2
blatt
 70
0
 62
7
  6
CONTINUOUS
290
1
370
0
390
F
  0
LAYER
  5
46
100
AcDbSymbolTableRecord
100
AcDbLayerTableRecord
  2
airfoil
 70
0
 62
7
  6
CONTINUOUS
290
1
370
25
390
F
  0
LAYER
  5
47
100
AcDbSymbolTableRecord
100
AcDbLayerTableRecord
  2
helpers
 70
1
 62
6
  6
DIVIDEX2
290
1
370
0
390
F
  0
LAYER
  5
48
100
AcDbSymbolTableRecord
100
AcDbLayerTableRecord
  2
text
 70
0
 62
1
  6
CONTINUOUS
290
1
370
0
390
F
  0
LAYER
  5
49
100
AcDbSymbolTableRecord
100
AcDbLayerTableRecord
  2
wing MKII
 70
1
 62
4
  6
CONTINUOUS
290
1
370
0
390
F
  0
LAYER
  5
4A
100
AcDbSymbolTableRecord
100
AcDbLayerTableRecord
  2
Masse MKII
 70
0
 62
3
  6
CONTINUOUS
290
1
370
9
390
F
  0
LAYER
  5
4B
100
AcDbSymbolTableRecord
100
AcDbLayerTableRecord
  2
wing MKII.1
 70
0
 62
4
  6
CONTINUOUS
290
1
370
25
390
F
  0
LAYER
  5
4C
100
AcDbSymbolTableRecord
100
AcDbLayerTableRecord
  2
wing MKII.1 helpers
 70
0
 62
6
  6
DIVIDEX2
290
1
370
0
390
F
  0
LAYER
  5
4D
100
AcDbSymbolTableRecord
100
AcDbLayerTableRecord
  2
winglet
 70
0
 62
4
  6
CONTINUOUS
290
1
370
0
390
F
  0
ENDTAB
  0
TABLE
  2
STYLE
  5
3
100
AcDbSymbolTable
 70
1
  0
STYLE
  5
11
100
AcDbSymbolTableRecord
100
AcDbTextStyleTableRecord
  2
Standard
 70
0
 40
0.0
 41
0.75
 50
0.0
 71
0
 42
2.5
  3
txt
  4

  0
ENDTAB
  0
TABLE
  2
VIEW
  5
6
100
AcDbSymbolTable
 70
0
  0
ENDTAB
  0
TABLE
  2
UCS
  5
7
100
AcDbSymbolTable
 70
0
  0
ENDTAB
  0
TABLE
  2
APPID
  5
9
100
AcDbSymbolTable
 70
1
  0
APPID
  5
12
100
AcDbSymbolTableRecord
100
AcDbRegAppTableRecord
  2
ACAD
 70
0
  0
ENDTAB
  0
TABLE
  2
DIMSTYLE
  5
A
100
AcDbSymbolTable
 70
1
100
AcDbDimStyleTable
 71
0
  0
DIMSTYLE
105
27
100
AcDbSymbolTableRecord
100
AcDbDimStyleTableRecord
  2
Standard
 41
10.0
 42
10.0
 43
3.75
 44
10.0
 70
0
 73
0
 74
0
 77
1
 78
8
140
5.0
141
2.5
143
0.03937007874016
147
10.0
171
3
172
1
271
2
272
2
274
3
278
44
283
0
284
8
340
11
  0
ENDTAB
  0
TABLE
  2
BLOCK_RECORD
  5
1
100
AcDbSymbolTable
 70
1
  0
BLOCK_RECORD
  5
1F
100
AcDbSymbolTableRecord
100
AcDbBlockTableRecord
  2
*Model_Space
340
22
  0
BLOCK_RECORD
  5
1B
100
AcDbSymbolTableRecord
100
AcDbBlockTableRecord
  2
*Paper_Space
340
1E
  0
BLOCK_RECORD
  5
23
100
AcDbSymbolTableRecord
100
AcDbBlockTableRecord
  2
*Paper_Space0
340
26
  0
BLOCK_RECORD
  5
4E
100
AcDbSymbolTableRecord
100
AcDbBlockTableRecord
  2
outer wing
340
0
  0
BLOCK_RECORD
  5
4F
100
AcDbSymbolTableRecord
100
AcDbBlockTableRecord
  2
mh-64-li
340
0
  0
BLOCK_RECORD
  5
50
100
AcDbSymbolTableRecord
100
AcDbBlockTableRecord
  2
outer wing MK II
340
0
  0
BLOCK_RECORD
  5
51
100
AcDbSymbolTableRecord
100
AcDbBlockTableRecord
  2
mh-64-li 10% inner
340
0
  0
BLOCK_RECORD
  5
52
100
AcDbSymbolTableRecord
100
AcDbBlockTableRecord
  2
mh-64-li 10% outer
340
0
  0
BLOCK_RECORD
  5
53
100
AcDbSymbolTableRecord
100
AcDbBlockTableRecord
  2
mh-64-li 11% inner
340
0
  0
ENDTAB
  0
ENDSEC
  0
SECTION
  2
BLOCKS
  0
BLOCK
  5
20
100
AcDbEntity
  8
0
100
AcDbBlockBegin
  2
*Model_Space
 70
0
 10
0.0
 20
0.0
 30
0.0
  3
*Model_Space
  1

  0
ENDBLK
  5
21
100
AcDbEntity
  8
0
100
AcDbBlockEnd
  0
BLOCK
  5
1C
100
AcDbEntity
 67
1
  8
0
100
AcDbBlockBegin
  2
*Paper_Space
 70
0
 10
0.0
 20
0.0
 30
0.0
  3
*Paper_Space
  1

  0
ENDBLK
  5
1D
100
AcDbEntity
 67
1
  8
0
100
AcDbBlockEnd
  0
BLOCK
  5
24
100
AcDbEntity
  8
0
100
AcDbBlockBegin
  2
*Paper_Space0
 70
0
 10
0.0
 20
0.0
 30
0.0
  3
*Paper_Space0
  1

  0
ENDBLK
  5
25
100
AcDbEntity
  8
0
100
AcDbBlockEnd
  0
BLOCK
  5
54
100
AcDbEntity
  8
0
100
AcDbBlockBegin
  2
outer wing
 70
0
 10
0.0
 20
0.0
 30
0.0
  3
outer wing
  1

  0
LINE
  5
55
100
AcDbEntity
100
AcDbLine
  8
wing
 62
256
370
-1
  6
ByLayer
 10
1.4589665653495452
 20
-1.4589665653495452
 30
0.0
 11
751.4589665653495558
 21
178.5410334346504442
 31
0.0
  0
LINE
  5
56
100
AcDbEntity
100
AcDbLine
  8
wing
 62
256
370
-1
  6
ByLayer
 10
751.4589665653495558
 20
178.5410334346504442
 30
0.0
 11
751.4589665653495558
 21
598.5410334346504442
 31
0.0
  0
LINE
  5
57
100
AcDbEntity
100
AcDbLine
  8
wing
 62
256
370
-1
  6
ByLayer
 10
751.4589665653495558
 20
598.5410334346504442
 30
0.0
 11
1.4589665653495452
 21
258.5410334346504442
 31
0.0
  0
LINE
  5
58
100
AcDbEntity
100
AcDbLine
  8
wing
 62
256
370
-1
  6
ByLayer
 10
1.4589665653495452
 20
258.5410334346504442
 30
0.0
 11
1.4589665653495452
 21
-1.4589665653495452
 31
0.0
  0
ENDBLK
  5
59
100
AcDbEntity
  8
0
100
AcDbBlockEnd
  0
BLOCK
  5
5A
100
AcDbEntity
  8
0
100
AcDbBlockBegin
  2
mh-64-li
 70
0
 10
0.0
 20
0.0
 30
0.0
  3
mh-64-li
  1

  0
LINE
  5
5B
100
AcDbEntity
100
AcDbLine
  8
airfoil
 62
256
370
-1
  6
ByLayer
 10
119.9992961338962232
 20
-0.0355927052456764
 30
0.0
 11
119.6122961338962227
 21
-0.0375927052456291
 31
0.0
  0
LINE
  5
5C
100
AcDbEntity
100
AcDbLine
  8
airfoil
 62
256
370
-1
  6
ByLayer
 10
119.6122961338962227
 20
-0.0375927052456291
 30
0.0
 11
118.4512961338962214
 21
-0.0265927052456618
 31
0.0
  0
LINE
  5
5D
100
AcDbEntity
100
AcDbLine
  8
airfoil
 62
256
370
-1
  6
ByLayer
 10
118.4512961338962214
 20
-0.0265927052456618
 30
0.0
 11
116.5342961338962482
 21
0.0384072947542791
 31
0.0
  0
LINE
  5
5E
100
AcDbEntity
100
AcDbLine
  8
airfoil
 62
256
370
-1
  6
ByLayer
 10
116.5342961338962482
 20
0.0384072947542791
 30
0.0
 11
113.9022961338962432
 21
0.1814072947543082
 31
0.0
  0
LINE
  5
5F
100
AcDbEntity
100
AcDbLine
  8
airfoil
 62
256
370
-1
  6
ByLayer
 10
113.9022961338962432
 20
0.1814072947543082
 30
0.0
 11
110.6052961338962177
 21
0.4184072947542745
 31
0.0
  0
LINE
  5
60
100
AcDbEntity
100
AcDbLine
  8
airfoil
 62
256
370
-1
  6
ByLayer
 10
110.6052961338962177
 20
0.4184072947542745
 30
0.0
 11
106.7042961338962641
 21
0.7634072947543018
 31
0.0
  0
LINE
  5
61
100
AcDbEntity
100
AcDbLine
  8
airfoil
 62
256
370
-1
  6
ByLayer
 10
106.7042961338962641
 20
0.7634072947543018
 30
0.0
 11
102.2762961338962668
 21
1.2204072947542954
 31
0.0
  0
LINE
  5
62
100
AcDbEntity
100
AcDbLine
  8
airfoil
 62
256
370
-1
  6
ByLayer
 10
102.2762961338962668
 20
1.2204072947542954
 30
0.0
 11
97.4002961338962336
 21
1.7734072947542927
 31
0.0
  0
LINE
  5
63
100
AcDbEntity
100
AcDbLine
  8
airfoil
 62
256
370
-1
  6
ByLayer
 10
97.4002961338962336
 20
1.7734072947542927
 30
0.0
 11
92.1532961338962195
 21
2.4014072947543355
 31
0.0
  0
LINE
  5
64
100
AcDbEntity
100
AcDbLine
  8
airfoil
 62
256
370
-1
  6
ByLayer
 10
92.1532961338962195
 20
2.4014072947543355
 30
0.0
 11
86.6122961338962227
 21
3.0784072947543564
 31
0.0
  0
LINE
  5
65
100
AcDbEntity
100
AcDbLine
  8
airfoil
 62
256
370
-1
  6
ByLayer
 10
86.6122961338962227
 20
3.0784072947543564
 30
0.0
 11
80.853296133896265
 21
3.7724072947543164
 31
0.0
  0
LINE
  5
66
100
AcDbEntity
100
AcDbLine
  8
airfoil
 62
256
370
-1
  6
ByLayer
 10
80.853296133896265
 20
3.7724072947543164
 30
0.0
 11
74.9412961338962305
 21
4.4444072947543418
 31
0.0
  0
LINE
  5
67
100
AcDbEntity
100
AcDbLine
  8
airfoil
 62
256
370
-1
  6
ByLayer
 10
74.9412961338962305
 20
4.4444072947543418
 30
0.0
 11
68.9312961338962396
 21
5.06240729475428
 31
0.0
  0
LINE
  5
68
100
AcDbEntity
100
AcDbLine
  8
airfoil
 62
256
370
-1
  6
ByLayer
 10
68.9312961338962396
 20
5.06240729475428
 30
0.0
 11
62.8752961338962564
 21
5.60440729475431
 31
0.0
  0
LINE
  5
69
100
AcDbEntity
100
AcDbLine
  8
airfoil
 62
256
370
-1
  6
ByLayer
 10
62.8752961338962564
 20
5.60440729475431
 30
0.0
 11
56.8222961338962591
 21
6.0544072947543555
 31
0.0
  0
LINE
  5
6A
100
AcDbEntity
100
AcDbLine
  8
airfoil
 62
256
370
-1
  6
ByLayer
 10
56.8222961338962591
 20
6.0544072947543555
 30
0.0
 11
50.8272961338962546
 21
6.4064072947543309
 31
0.0
  0
LINE
  5
6B
100
AcDbEntity
100
AcDbLine
  8
airfoil
 62
256
370
-1
  6
ByLayer
 10
50.8272961338962546
 20
6.4064072947543309
 30
0.0
 11
44.9512961338962214
 21
6.6564072947543309
 31
0.0
  0
LINE
  5
6C
100
AcDbEntity
100
AcDbLine
  8
airfoil
 62
256
370
-1
  6
ByLayer
 10
44.9512961338962214
 20
6.6564072947543309
 30
0.0
 11
39.2522961338962659
 21
6.7974072947542936
 31
0.0
  0
LINE
  5
6D
100
AcDbEntity
100
AcDbLine
  8
airfoil
 62
256
370
-1
  6
ByLayer
 10
39.2522961338962659
 20
6.7974072947542936
 30
0.0
 11
33.7872961338962341
 21
6.8234072947543609
 31
0.0
  0
LINE
  5
6E
100
AcDbEntity
100
AcDbLine
  8
airfoil
 62
256
370
-1
  6
ByLayer
 10
33.7872961338962341
 20
6.8234072947543609
 30
0.0
 11
28.6092961338962368
 21
6.7264072947542672
 31
0.0
  0
LINE
  5
6F
100
AcDbEntity
100
AcDbLine
  8
airfoil
 62
256
370
-1
  6
ByLayer
 10
28.6092961338962368
 20
6.7264072947542672
 30
0.0
 11
23.7622961338962568
 21
6.5034072947543109
 31
0.0
  0
LINE
  5
70
100
AcDbEntity
100
AcDbLine
  8
airfoil
 62
256
370
-1
  6
ByLayer
 10
23.7622961338962568
 20
6.5034072947543109
 30
0.0
 11
19.2872961338962341
 21
6.1554072947543546
 31
0.0
  0
LINE
  5
71
100
AcDbEntity
100
AcDbLine
  8
airfoil
 62
256
370
-1
  6
ByLayer
 10
19.2872961338962341
 20
6.1554072947543546
 30
0.0
 11
15.2182961338962457
 21
5.6864072947543036
 31
0.0
  0
LINE
  5
72
100
AcDbEntity
100
AcDbLine
  8
airfoil
 62
256
370
-1
  6
ByLayer
 10
15.2182961338962457
 20
5.6864072947543036
 30
0.0
 11
11.5882961338962218
 21
5.1074072947543527
 31
0.0
  0
LINE
  5
73
100
AcDbEntity
100
AcDbLine
  8
airfoil
 62
256
370
-1
  6
ByLayer
 10
11.5882961338962218
 20
5.1074072947543527
 30
0.0
 11
8.4262961338962441
 21
4.4294072947543555
 31
0.0
  0
LINE
  5
74
100
AcDbEntity
100
AcDbLine
  8
airfoil
 62
256
370
-1
  6
ByLayer
 10
8.4262961338962441
 20
4.4294072947543555
 30
0.0
 11
5.7522961338962375
 21
3.6654072947543455
 31
0.0
  0
LINE
  5
75
100
AcDbEntity
100
AcDbLine
  8
airfoil
 62
256
370
-1
  6
ByLayer
 10
5.7522961338962375
 20
3.6654072947543455
 30
0.0
 11
3.5762961338962214
 21
2.8344072947543282
 31
0.0
  0
LINE
  5
76
100
AcDbEntity
100
AcDbLine
  8
airfoil
 62
256
370
-1
  6
ByLayer
 10
3.5762961338962214
 20
2.8344072947543282
 30
0.0
 11
1.9062961338962339
 21
1.9714072947542718
 31
0.0
  0
LINE
  5
77
100
AcDbEntity
100
AcDbLine
  8
airfoil
 62
256
370
-1
  6
ByLayer
 10
1.9062961338962339
 20
1.9714072947542718
 30
0.0
 11
0.7462961338962373
 21
1.1164072947543673
 31
0.0
  0
LINE
  5
78
100
AcDbEntity
100
AcDbLine
  8
airfoil
 62
256
370
-1
  6
ByLayer
 10
0.7462961338962373
 20
1.1164072947543673
 30
0.0
 11
0.2382961338962275
 21
0.54840729475427
 31
0.0
  0
LINE
  5
79
100
AcDbEntity
100
AcDbLine
  8
airfoil
 62
256
370
-1
  6
ByLayer
 10
0.2382961338962275
 20
0.54840729475427
 30
0.0
 11
0.1072961338962273
 21
0.32640729475429
 31
0.0
  0
LINE
  5
7A
100
AcDbEntity
100
AcDbLine
  8
airfoil
 62
256
370
-1
  6
ByLayer
 10
0.1072961338962273
 20
0.32640729475429
 30
0.0
 11
0.0252961338962336
 21
0.1224072947543391
 31
0.0
  0
LINE
  5
7B
100
AcDbEntity
100
AcDbLine
  8
airfoil
 62
256
370
-1
  6
ByLayer
 10
0.0252961338962336
 20
0.1224072947543391
 30
0.0
 11
0.000296133896228
 21
-0.0005927052457082
 31
0.0
  0
LINE
  5
7C
100
AcDbEntity
100
AcDbLine
  8
airfoil
 62
256
370
-1
  6
ByLayer
 10
0.000296133896228
 20
-0.0005927052457082
 30
0.0
 11
0.0062961338962282
 21
-0.1085927052456555
 31
0.0
  0
LINE
  5
7D
100
AcDbEntity
100
AcDbLine
  8
airfoil
 62
256
370
-1
  6
ByLayer
 10
0.0062961338962282
 20
-0.1085927052456555
 30
0.0
 11
0.0522961338962205
 21
-0.2095927052456545
 31
0.0
  0
LINE
  5
7E
100
AcDbEntity
100
AcDbLine
  8
airfoil
 62
256
370
-1
  6
ByLayer
 10
0.0522961338962205
 20
-0.2095927052456545
 30
0.0
 11
0.1352961338962473
 21
-0.3145927052456727
 31
0.0
  0
LINE
  5
7F
100
AcDbEntity
100
AcDbLine
  8
airfoil
 62
256
370
-1
  6
ByLayer
 10
0.1352961338962473
 20
-0.3145927052456727
 30
0.0
 11
0.3152961338962257
 21
-0.4775927052456836
 31
0.0
  0
LINE
  5
80
100
AcDbEntity
100
AcDbLine
  8
airfoil
 62
256
370
-1
  6
ByLayer
 10
0.3152961338962257
 20
-0.4775927052456836
 30
0.0
 11
0.5532961338962252
 21
-0.6465927052456664
 31
0.0
  0
LINE
  5
81
100
AcDbEntity
100
AcDbLine
  8
airfoil
 62
256
370
-1
  6
ByLayer
 10
0.5532961338962252
 20
-0.6465927052456664
 30
0.0
 11
0.8322961338962216
 21
-0.8135927052456964
 31
0.0
  0
LINE
  5
82
100
AcDbEntity
100
AcDbLine
  8
airfoil
 62
256
370
-1
  6
ByLayer
 10
0.8322961338962216
 20
-0.8135927052456964
 30
0.0
 11
2.200296133896245
 21
-1.3855927052456991
 31
0.0
  0
LINE
  5
83
100
AcDbEntity
100
AcDbLine
  8
airfoil
 62
256
370
-1
  6
ByLayer
 10
2.200296133896245
 20
-1.3855927052456991
 30
0.0
 11
4.1592961338962482
 21
-1.9315927052456345
 31
0.0
  0
LINE
  5
84
100
AcDbEntity
100
AcDbLine
  8
airfoil
 62
256
370
-1
  6
ByLayer
 10
4.1592961338962482
 20
-1.9315927052456345
 30
0.0
 11
6.6832961338962207
 21
-2.4255927052456627
 31
0.0
  0
LINE
  5
85
100
AcDbEntity
100
AcDbLine
  8
airfoil
 62
256
370
-1
  6
ByLayer
 10
6.6832961338962207
 20
-2.4255927052456627
 30
0.0
 11
9.7472961338962421
 21
-2.8475927052456882
 31
0.0
  0
LINE
  5
86
100
AcDbEntity
100
AcDbLine
  8
airfoil
 62
256
370
-1
  6
ByLayer
 10
9.7472961338962421
 20
-2.8475927052456882
 30
0.0
 11
13.3292961338962357
 21
-3.1775927052457291
 31
0.0
  0
LINE
  5
87
100
AcDbEntity
100
AcDbLine
  8
airfoil
 62
256
370
-1
  6
ByLayer
 10
13.3292961338962357
 20
-3.1775927052457291
 30
0.0
 11
17.4072961338962386
 21
-3.4045927052457046
 31
0.0
  0
LINE
  5
88
100
AcDbEntity
100
AcDbLine
  8
airfoil
 62
256
370
-1
  6
ByLayer
 10
17.4072961338962386
 20
-3.4045927052457046
 30
0.0
 11
21.9542961338962073
 21
-3.5295927052457046
 31
0.0
  0
LINE
  5
89
100
AcDbEntity
100
AcDbLine
  8
airfoil
 62
256
370
-1
  6
ByLayer
 10
21.9542961338962073
 20
-3.5295927052457046
 30
0.0
 11
26.936296133896235
 21
-3.5585927052457009
 31
0.0
  0
LINE
  5
8A
100
AcDbEntity
100
AcDbLine
  8
airfoil
 62
256
370
-1
  6
ByLayer
 10
26.936296133896235
 20
-3.5585927052457009
 30
0.0
 11
32.3082961338962491
 21
-3.5035927052456373
 31
0.0
  0
LINE
  5
8B
100
AcDbEntity
100
AcDbLine
  8
airfoil
 62
256
370
-1
  6
ByLayer
 10
32.3082961338962491
 20
-3.5035927052456373
 30
0.0
 11
38.0162961338962191
 21
-3.3755927052457082
 31
0.0
  0
LINE
  5
8C
100
AcDbEntity
100
AcDbLine
  8
airfoil
 62
256
370
-1
  6
ByLayer
 10
38.0162961338962191
 20
-3.3755927052457082
 30
0.0
 11
43.9992961338962232
 21
-3.1895927052456727
 31
0.0
  0
LINE
  5
8D
100
AcDbEntity
100
AcDbLine
  8
airfoil
 62
256
370
-1
  6
ByLayer
 10
43.9992961338962232
 20
-3.1895927052456727
 30
0.0
 11
50.1952961338962496
 21
-2.9555927052456354
 31
0.0
  0
LINE
  5
8E
100
AcDbEntity
100
AcDbLine
  8
airfoil
 62
256
370
-1
  6
ByLayer
 10
50.1952961338962496
 20
-2.9555927052456354
 30
0.0
 11
56.5352961338962245
 21
-2.6925927052457155
 31
0.0
  0
LINE
  5
8F
100
AcDbEntity
100
AcDbLine
  8
airfoil
 62
256
370
-1
  6
ByLayer
 10
56.5352961338962245
 20
-2.6925927052457155
 30
0.0
 11
62.9422961338962068
 21
-2.4125927052456291
 31
0.0
  0
LINE
  5
90
100
AcDbEntity
100
AcDbLine
  8
airfoil
 62
256
370
-1
  6
ByLayer
 10
62.9422961338962068
 20
-2.4125927052456291
 30
0.0
 11
69.3412961338962077
 21
-2.1275927052456609
 31
0.0
  0
LINE
  5
91
100
AcDbEntity
100
AcDbLine
  8
airfoil
 62
256
370
-1
  6
ByLayer
 10
69.3412961338962077
 20
-2.1275927052456609
 30
0.0
 11
75.6522961338962432
 21
-1.8465927052457118
 31
0.0
  0
LINE
  5
92
100
AcDbEntity
100
AcDbLine
  8
airfoil
 62
256
370
-1
  6
ByLayer
 10
75.6522961338962432
 20
-1.8465927052457118
 30
0.0
 11
81.7982961338962582
 21
-1.5785927052456827
 31
0.0
  0
LINE
  5
93
100
AcDbEntity
100
AcDbLine
  8
airfoil
 62
256
370
-1
  6
ByLayer
 10
81.7982961338962582
 20
-1.5785927052456827
 30
0.0
 11
87.7032961338962309
 21
-1.3275927052457064
 31
0.0
  0
LINE
  5
94
100
AcDbEntity
100
AcDbLine
  8
airfoil
 62
256
370
-1
  6
ByLayer
 10
87.7032961338962309
 20
-1.3275927052457064
 30
0.0
 11
93.2952961338962723
 21
-1.0965927052457118
 31
0.0
  0
LINE
  5
95
100
AcDbEntity
100
AcDbLine
  8
airfoil
 62
256
370
-1
  6
ByLayer
 10
93.2952961338962723
 20
-1.0965927052457118
 30
0.0
 11
98.5052961338962518
 21
-0.8875927052456518
 31
0.0
  0
LINE
  5
96
100
AcDbEntity
100
AcDbLine
  8
airfoil
 62
256
370
-1
  6
ByLayer
 10
98.5052961338962518
 20
-0.8875927052456518
 30
0.0
 11
103.269296133896205
 21
-0.7065927052457255
 31
0.0
  0
LINE
  5
97
100
AcDbEntity
100
AcDbLine
  8
airfoil
 62
256
370
-1
  6
ByLayer
 10
103.269296133896205
 20
-0.7065927052457255
 30
0.0
 11
107.5262961338962668
 21
-0.5495927052456864
 31
0.0
  0
LINE
  5
98
100
AcDbEntity
100
AcDbLine
  8
airfoil
 62
256
370
-1
  6
ByLayer
 10
107.5262961338962668
 20
-0.5495927052456864
 30
0.0
 11
111.2232961338962696
 21
-0.4175927052456245
 31
0.0
  0
LINE
  5
99
100
AcDbEntity
100
AcDbLine
  8
airfoil
 62
256
370
-1
  6
ByLayer
 10
111.2232961338962696
 20
-0.4175927052456245
 30
0.0
 11
114.3132961338962446
 21
-0.3065927052456345
 31
0.0
  0
LINE
  5
9A
100
AcDbEntity
100
AcDbLine
  8
airfoil
 62
256
370
-1
  6
ByLayer
 10
114.3132961338962446
 20
-0.3065927052456345
 30
0.0
 11
116.7582961338962377
 21
-0.2125927052456973
 31
0.0
  0
LINE
  5
9B
100
AcDbEntity
100
AcDbLine
  8
airfoil
 62
256
370
-1
  6
ByLayer
 10
116.7582961338962377
 20
-0.2125927052456973
 30
0.0
 11
118.5312961338962623
 21
-0.1265927052456846
 31
0.0
  0
LINE
  5
9C
100
AcDbEntity
100
AcDbLine
  8
airfoil
 62
256
370
-1
  6
ByLayer
 10
118.5312961338962623
 20
-0.1265927052456846
 30
0.0
 11
119.6232961338962468
 21
-0.0595927052456773
 31
0.0
  0
LINE
  5
9D
100
AcDbEntity
100
AcDbLine
  8
airfoil
 62
256
370
-1
  6
ByLayer
 10
119.6232961338962468
 20
-0.0595927052456773
 30
0.0
 11
119.9992961338962232
 21
-0.0355927052456764
 31
0.0
  0
ENDBLK
  5
9E
100
AcDbEntity
  8
0
100
AcDbBlockEnd
  0
BLOCK
  5
9F
100
AcDbEntity
  8
0
100
AcDbBlockBegin
  2
outer wing MK II
 70
0
 10
0.0
 20
0.0
 30
0.0
  3
outer wing MK II
  1

  0
LINE
  5
A0
100
AcDbEntity
100
AcDbLine
  8
wing MKII
 62
256
370
-1
  6
ByLayer
 10
0.0
 20
0.0
 30
0.0
 11
0.0
 21
330.0
 31
0.0
  0
LINE
  5
A1
100
AcDbEntity
100
AcDbLine
  8
wing MKII
 62
256
370
-1
  6
ByLayer
 10
0.0
 20
0.0
 30
0.0
 11
700.0
 21
170.0
 31
0.0
  0
LINE
  5
A2
100
AcDbEntity
100
AcDbLine
  8
wing MKII
 62
256
370
-1
  6
ByLayer
 10
700.0
 20
170.0
 30
0.0
 11
700.0
 21
710.0
 31
0.0
  0
LINE
  5
A3
100
AcDbEntity
100
AcDbLine
  8
wing MKII
 62
256
370
-1
  6
ByLayer
 10
700.0
 20
710.0
 30
0.0
 11
0.0
 21
330.0
 31
0.0
  0
ENDBLK
  5
A4
100
AcDbEntity
  8
0
100
AcDbBlockEnd
  0
BLOCK
  5
A5
100
AcDbEntity
  8
0
100
AcDbBlockBegin
  2
mh-64-li 10% inner
 70
0
 10
0.0
 20
0.0
 30
0.0
  3
mh-64-li 10% inner
  1

  0
LINE
  5
A6
100
AcDbEntity
100
AcDbLine
  8
airfoil
 62
256
370
-1
  6
ByLayer
 10
120.0
 20
0.0
 30
0.0
 11
119.6129999999999995
 21
-0.0019999999999527
 31
0.0
  0
LINE
  5
A7
100
AcDbEntity
100
AcDbLine
  8
airfoil
 62
256
370
-1
  6
ByLayer
 10
119.6129999999999995
 20
-0.0019999999999527
 30
0.0
 11
118.4519999999999982
 21
0.0090000000000146
 31
0.0
  0
LINE
  5
A8
100
AcDbEntity
100
AcDbLine
  8
airfoil
 62
256
370
-1
  6
ByLayer
 10
118.4519999999999982
 20
0.0090000000000146
 30
0.0
 11
116.5349999999999966
 21
0.0739999999999554
 31
0.0
  0
LINE
  5
A9
100
AcDbEntity
100
AcDbLine
  8
airfoil
 62
256
370
-1
  6
ByLayer
 10
116.5349999999999966
 20
0.0739999999999554
 30
0.0
 11
113.9030000000000058
 21
0.2169999999999845
 31
0.0
  0
LINE
  5
AA
100
AcDbEntity
100
AcDbLine
  8
airfoil
 62
256
370
-1
  6
ByLayer
 10
113.9030000000000058
 20
0.2169999999999845
 30
0.0
 11
110.6059999999999945
 21
0.4539999999999509
 31
0.0
  0
LINE
  5
AB
100
AcDbEntity
100
AcDbLine
  8
airfoil
 62
256
370
-1
  6
ByLayer
 10
110.6059999999999945
 20
0.4539999999999509
 30
0.0
 11
106.7049999999999983
 21
0.7989999999999782
 31
0.0
  0
LINE
  5
AC
100
AcDbEntity
100
AcDbLine
  8
airfoil
 62
256
370
-1
  6
ByLayer
 10
106.7049999999999983
 20
0.7989999999999782
 30
0.0
 11
102.277000000000001
 21
1.2559999999999718
 31
0.0
  0
LINE
  5
AD
100
AcDbEntity
100
AcDbLine
  8
airfoil
 62
256
370
-1
  6
ByLayer
 10
102.277000000000001
 20
1.2559999999999718
 30
0.0
 11
97.4009999999999962
 21
1.8089999999999691
 31
0.0
  0
LINE
  5
AE
100
AcDbEntity
100
AcDbLine
  8
airfoil
 62
256
370
-1
  6
ByLayer
 10
97.4009999999999962
 20
1.8089999999999691
 30
0.0
 11
92.1539999999999964
 21
2.4370000000000118
 31
0.0
  0
LINE
  5
AF
100
AcDbEntity
100
AcDbLine
  8
airfoil
 62
256
370
-1
  6
ByLayer
 10
92.1539999999999964
 20
2.4370000000000118
 30
0.0
 11
86.6129999999999995
 21
3.1140000000000327
 31
0.0
  0
LINE
  5
B0
100
AcDbEntity
100
AcDbLine
  8
airfoil
 62
256
370
-1
  6
ByLayer
 10
86.6129999999999995
 20
3.1140000000000327
 30
0.0
 11
80.8539999999999992
 21
3.8079999999999927
 31
0.0
  0
LINE
  5
B1
100
AcDbEntity
100
AcDbLine
  8
airfoil
 62
256
370
-1
  6
ByLayer
 10
80.8539999999999992
 20
3.8079999999999927
 30
0.0
 11
74.9419999999999931
 21
4.4800000000000182
 31
0.0
  0
LINE
  5
B2
100
AcDbEntity
100
AcDbLine
  8
airfoil
 62
256
370
-1
  6
ByLayer
 10
74.9419999999999931
 20
4.4800000000000182
 30
0.0
 11
68.9320000000000022
 21
5.0979999999999563
 31
0.0
  0
LINE
  5
B3
100
AcDbEntity
100
AcDbLine
  8
airfoil
 62
256
370
-1
  6
ByLayer
 10
68.9320000000000022
 20
5.0979999999999563
 30
0.0
 11
62.8759999999999977
 21
5.6399999999999864
 31
0.0
  0
LINE
  5
B4
100
AcDbEntity
100
AcDbLine
  8
airfoil
 62
256
370
-1
  6
ByLayer
 10
62.8759999999999977
 20
5.6399999999999864
 30
0.0
 11
56.8230000000000004
 21
6.0900000000000318
 31
0.0
  0
LINE
  5
B5
100
AcDbEntity
100
AcDbLine
  8
airfoil
 62
256
370
-1
  6
ByLayer
 10
56.8230000000000004
 20
6.0900000000000318
 30
0.0
 11
50.828000000000003
 21
6.4420000000000073
 31
0.0
  0
LINE
  5
B6
100
AcDbEntity
100
AcDbLine
  8
airfoil
 62
256
370
-1
  6
ByLayer
 10
50.828000000000003
 20
6.4420000000000073
 30
0.0
 11
44.9519999999999982
 21
6.6920000000000073
 31
0.0
  0
LINE
  5
B7
100
AcDbEntity
100
AcDbLine
  8
airfoil
 62
256
370
-1
  6
ByLayer
 10
44.9519999999999982
 20
6.6920000000000073
 30
0.0
 11
39.2530000000000001
 21
6.83299999999997
 31
0.0
  0
LINE
  5
B8
100
AcDbEntity
100
AcDbLine
  8
airfoil
 62
256
370
-1
  6
ByLayer
 10
39.2530000000000001
 20
6.83299999999997
 30
0.0
 11
33.7879999999999967
 21
6.8590000000000373
 31
0.0
  0
LINE
  5
B9
100
AcDbEntity
100
AcDbLine
  8
airfoil
 62
256
370
-1
  6
ByLayer
 10
33.7879999999999967
 20
6.8590000000000373
 30
0.0
 11
28.6099999999999994
 21
6.7619999999999436
 31
0.0
  0
LINE
  5
BA
100
AcDbEntity
100
AcDbLine
  8
airfoil
 62
256
370
-1
  6
ByLayer
 10
28.6099999999999994
 20
6.7619999999999436
 30
0.0
 11
23.7630000000000017
 21
6.5389999999999873
 31
0.0
  0
LINE
  5
BB
100
AcDbEntity
100
AcDbLine
  8
airfoil
 62
256
370
-1
  6
ByLayer
 10
23.7630000000000017
 20
6.5389999999999873
 30
0.0
 11
19.2880000000000003
 21
6.1910000000000309
 31
0.0
  0
LINE
  5
BC
100
AcDbEntity
100
AcDbLine
  8
airfoil
 62
256
370
-1
  6
ByLayer
 10
19.2880000000000003
 20
6.1910000000000309
 30
0.0
 11
15.2189999999999994
 21
5.72199999999998
 31
0.0
  0
LINE
  5
BD
100
AcDbEntity
100
AcDbLine
  8
airfoil
 62
256
370
-1
  6
ByLayer
 10
15.2189999999999994
 20
5.72199999999998
 30
0.0
 11
11.5890000000000004
 21
5.1430000000000291
 31
0.0
  0
LINE
  5
BE
100
AcDbEntity
100
AcDbLine
  8
airfoil
 62
256
370
-1
  6
ByLayer
 10
11.5890000000000004
 20
5.1430000000000291
 30
0.0
 11
8.4269999999999996
 21
4.4650000000000318
 31
0.0
  0
LINE
  5
BF
100
AcDbEntity
100
AcDbLine
  8
airfoil
 62
256
370
-1
  6
ByLayer
 10
8.4269999999999996
 20
4.4650000000000318
 30
0.0
 11
5.7530000000000001
 21
3.7010000000000218
 31
0.0
  0
LINE
  5
C0
100
AcDbEntity
100
AcDbLine
  8
airfoil
 62
256
370
-1
  6
ByLayer
 10
5.7530000000000001
 20
3.7010000000000218
 30
0.0
 11
3.577
 21
2.8700000000000045
 31
0.0
  0
LINE
  5
C1
100
AcDbEntity
100
AcDbLine
  8
airfoil
 62
256
370
-1
  6
ByLayer
 10
3.577
 20
2.8700000000000045
 30
0.0
 11
1.907
 21
2.0069999999999482
 31
0.0
  0
LINE
  5
C2
100
AcDbEntity
100
AcDbLine
  8
airfoil
 62
256
370
-1
  6
ByLayer
 10
1.907
 20
2.0069999999999482
 30
0.0
 11
0.747
 21
1.1520000000000437
 31
0.0
  0
LINE
  5
C3
100
AcDbEntity
100
AcDbLine
  8
airfoil
 62
256
370
-1
  6
ByLayer
 10
0.747
 20
1.1520000000000437
 30
0.0
 11
0.239
 21
0.5839999999999463
 31
0.0
  0
LINE
  5
C4
100
AcDbEntity
100
AcDbLine
  8
airfoil
 62
256
370
-1
  6
ByLayer
 10
0.239
 20
0.5839999999999463
 30
0.0
 11
0.108
 21
0.3619999999999663
 31
0.0
  0
LINE
  5
C5
100
AcDbEntity
100
AcDbLine
  8
airfoil
 62
256
370
-1
  6
ByLayer
 10
0.108
 20
0.3619999999999663
 30
0.0
 11
0.026
 21
0.1580000000000155
 31
0.0
  0
LINE
  5
C6
100
AcDbEntity
100
AcDbLine
  8
airfoil
 62
256
370
-1
  6
ByLayer
 10
0.026
 20
0.1580000000000155
 30
0.0
 11
0.001
 21
0.0349999999999682
 31
0.0
  0
LINE
  5
C7
100
AcDbEntity
100
AcDbLine
  8
airfoil
 62
256
370
-1
  6
ByLayer
 10
0.001
 20
0.0349999999999682
 30
0.0
 11
0.007
 21
-0.0729999999999791
 31
0.0
  0
LINE
  5
C8
100
AcDbEntity
100
AcDbLine
  8
airfoil
 62
256
370
-1
  6
ByLayer
 10
0.007
 20
-0.0729999999999791
 30
0.0
 11
0.053
 21
-0.1739999999999782
 31
0.0
  0
LINE
  5
C9
100
AcDbEntity
100
AcDbLine
  8
airfoil
 62
256
370
-1
  6
ByLayer
 10
0.053
 20
-0.1739999999999782
 30
0.0
 11
0.136
 21
-0.2789999999999964
 31
0.0
  0
LINE
  5
CA
100
AcDbEntity
100
AcDbLine
  8
airfoil
 62
256
370
-1
  6
ByLayer
 10
0.136
 20
-0.2789999999999964
 30
0.0
 11
0.316
 21
-0.4420000000000073
 31
0.0
  0
LINE
  5
CB
100
AcDbEntity
100
AcDbLine
  8
airfoil
 62
256
370
-1
  6
ByLayer
 10
0.316
 20
-0.4420000000000073
 30
0.0
 11
0.554
 21
-0.61099999999999
 31
0.0
  0
LINE
  5
CC
100
AcDbEntity
100
AcDbLine
  8
airfoil
 62
256
370
-1
  6
ByLayer
 10
0.554
 20
-0.61099999999999
 30
0.0
 11
0.833
 21
-0.77800000000002
 31
0.0
  0
LINE
  5
CD
100
AcDbEntity
100
AcDbLine
  8
airfoil
 62
256
370
-1
  6
ByLayer
 10
0.833
 20
-0.77800000000002
 30
0.0
 11
2.2010000000000001
 21
-1.3500000000000227
 31
0.0
  0
LINE
  5
CE
100
AcDbEntity
100
AcDbLine
  8
airfoil
 62
256
370
-1
  6
ByLayer
 10
2.2010000000000001
 20
-1.3500000000000227
 30
0.0
 11
4.1600000000000001
 21
-1.8959999999999582
 31
0.0
  0
LINE
  5
CF
100
AcDbEntity
100
AcDbLine
  8
airfoil
 62
256
370
-1
  6
ByLayer
 10
4.1600000000000001
 20
-1.8959999999999582
 30
0.0
 11
6.6840000000000002
 21
-2.3899999999999864
 31
0.0
  0
LINE
  5
D0
100
AcDbEntity
100
AcDbLine
  8
airfoil
 62
256
370
-1
  6
ByLayer
 10
6.6840000000000002
 20
-2.3899999999999864
 30
0.0
 11
9.7479999999999993
 21
-2.8120000000000118
 31
0.0
  0
LINE
  5
D1
100
AcDbEntity
100
AcDbLine
  8
airfoil
 62
256
370
-1
  6
ByLayer
 10
9.7479999999999993
 20
-2.8120000000000118
 30
0.0
 11
13.3300000000000001
 21
-3.1420000000000528
 31
0.0
  0
LINE
  5
D2
100
AcDbEntity
100
AcDbLine
  8
airfoil
 62
256
370
-1
  6
ByLayer
 10
13.3300000000000001
 20
-3.1420000000000528
 30
0.0
 11
17.4080000000000013
 21
-3.3690000000000282
 31
0.0
  0
LINE
  5
D3
100
AcDbEntity
100
AcDbLine
  8
airfoil
 62
256
370
-1
  6
ByLayer
 10
17.4080000000000013
 20
-3.3690000000000282
 30
0.0
 11
21.9549999999999983
 21
-3.4940000000000282
 31
0.0
  0
LINE
  5
D4
100
AcDbEntity
100
AcDbLine
  8
airfoil
 62
256
370
-1
  6
ByLayer
 10
21.9549999999999983
 20
-3.4940000000000282
 30
0.0
 11
26.9370000000000012
 21
-3.5230000000000246
 31
0.0
  0
LINE
  5
D5
100
AcDbEntity
100
AcDbLine
  8
airfoil
 62
256
370
-1
  6
ByLayer
 10
26.9370000000000012
 20
-3.5230000000000246
 30
0.0
 11
32.3089999999999975
 21
-3.4679999999999609
 31
0.0
  0
LINE
  5
D6
100
AcDbEntity
100
AcDbLine
  8
airfoil
 62
256
370
-1
  6
ByLayer
 10
32.3089999999999975
 20
-3.4679999999999609
 30
0.0
 11
38.017000000000003
 21
-3.3400000000000318
 31
0.0
  0
LINE
  5
D7
100
AcDbEntity
100
AcDbLine
  8
airfoil
 62
256
370
-1
  6
ByLayer
 10
38.017000000000003
 20
-3.3400000000000318
 30
0.0
 11
44.0
 21
-3.1539999999999964
 31
0.0
  0
LINE
  5
D8
100
AcDbEntity
100
AcDbLine
  8
airfoil
 62
256
370
-1
  6
ByLayer
 10
44.0
 20
-3.1539999999999964
 30
0.0
 11
50.195999999999998
 21
-2.9199999999999591
 31
0.0
  0
LINE
  5
D9
100
AcDbEntity
100
AcDbLine
  8
airfoil
 62
256
370
-1
  6
ByLayer
 10
50.195999999999998
 20
-2.9199999999999591
 30
0.0
 11
56.5360000000000014
 21
-2.6570000000000391
 31
0.0
  0
LINE
  5
DA
100
AcDbEntity
100
AcDbLine
  8
airfoil
 62
256
370
-1
  6
ByLayer
 10
56.5360000000000014
 20
-2.6570000000000391
 30
0.0
 11
62.9429999999999978
 21
-2.3769999999999527
 31
0.0
  0
LINE
  5
DB
100
AcDbEntity
100
AcDbLine
  8
airfoil
 62
256
370
-1
  6
ByLayer
 10
62.9429999999999978
 20
-2.3769999999999527
 30
0.0
 11
69.3419999999999987
 21
-2.0919999999999845
 31
0.0
  0
LINE
  5
DC
100
AcDbEntity
100
AcDbLine
  8
airfoil
 62
256
370
-1
  6
ByLayer
 10
69.3419999999999987
 20
-2.0919999999999845
 30
0.0
 11
75.6530000000000058
 21
-1.8110000000000355
 31
0.0
  0
LINE
  5
DD
100
AcDbEntity
100
AcDbLine
  8
airfoil
 62
256
370
-1
  6
ByLayer
 10
75.6530000000000058
 20
-1.8110000000000355
 30
0.0
 11
81.7990000000000066
 21
-1.5430000000000064
 31
0.0
  0
LINE
  5
DE
100
AcDbEntity
100
AcDbLine
  8
airfoil
 62
256
370
-1
  6
ByLayer
 10
81.7990000000000066
 20
-1.5430000000000064
 30
0.0
 11
87.7039999999999935
 21
-1.29200000000003
 31
0.0
  0
LINE
  5
DF
100
AcDbEntity
100
AcDbLine
  8
airfoil
 62
256
370
-1
  6
ByLayer
 10
87.7039999999999935
 20
-1.29200000000003
 30
0.0
 11
93.2960000000000065
 21
-1.0610000000000355
 31
0.0
  0
LINE
  5
E0
100
AcDbEntity
100
AcDbLine
  8
airfoil
 62
256
370
-1
  6
ByLayer
 10
93.2960000000000065
 20
-1.0610000000000355
 30
0.0
 11
98.5060000000000002
 21
-0.8519999999999754
 31
0.0
  0
LINE
  5
E1
100
AcDbEntity
100
AcDbLine
  8
airfoil
 62
256
370
-1
  6
ByLayer
 10
98.5060000000000002
 20
-0.8519999999999754
 30
0.0
 11
103.269999999999996
 21
-0.6710000000000491
 31
0.0
  0
LINE
  5
E2
100
AcDbEntity
100
AcDbLine
  8
airfoil
 62
256
370
-1
  6
ByLayer
 10
103.269999999999996
 20
-0.6710000000000491
 30
0.0
 11
107.527000000000001
 21
-0.51400000000001
 31
0.0
  0
LINE
  5
E3
100
AcDbEntity
100
AcDbLine
  8
airfoil
 62
256
370
-1
  6
ByLayer
 10
107.527000000000001
 20
-0.51400000000001
 30
0.0
 11
111.2240000000000038
 21
-0.3819999999999482
 31
0.0
  0
LINE
  5
E4
100
AcDbEntity
100
AcDbLine
  8
airfoil
 62
256
370
-1
  6
ByLayer
 10
111.2240000000000038
 20
-0.3819999999999482
 30
0.0
 11
114.313999999999993
 21
-0.2709999999999582
 31
0.0
  0
LINE
  5
E5
100
AcDbEntity
100
AcDbLine
  8
airfoil
 62
256
370
-1
  6
ByLayer
 10
114.313999999999993
 20
-0.2709999999999582
 30
0.0
 11
116.7590000000000003
 21
-0.1770000000000209
 31
0.0
  0
LINE
  5
E6
100
AcDbEntity
100
AcDbLine
  8
airfoil
 62
256
370
-1
  6
ByLayer
 10
116.7590000000000003
 20
-0.1770000000000209
 30
0.0
 11
118.5319999999999965
 21
-0.0910000000000082
 31
0.0
  0
LINE
  5
E7
100
AcDbEntity
100
AcDbLine
  8
airfoil
 62
256
370
-1
  6
ByLayer
 10
118.5319999999999965
 20
-0.0910000000000082
 30
0.0
 11
119.6239999999999952
 21
-0.0240000000000009
 31
0.0
  0
LINE
  5
E8
100
AcDbEntity
100
AcDbLine
  8
airfoil
 62
256
370
-1
  6
ByLayer
 10
119.6239999999999952
 20
-0.0240000000000009
 30
0.0
 11
120.0
 21
0.0
 31
0.0
  0
ENDBLK
  5
E9
100
AcDbEntity
  8
0
100
AcDbBlockEnd
  0
BLOCK
  5
EA
100
AcDbEntity
  8
0
100
AcDbBlockBegin
  2
mh-64-li 10% outer
 70
0
 10
0.0
 20
0.0
 30
0.0
  3
mh-64-li 10% outer
  1

  0
LINE
  5
EB
100
AcDbEntity
100
AcDbLine
  8
0
 62
256
370
-1
  6
ByLayer
 10
329.9963288957473537
 20
-0.097256754374655
 30
0.0
 11
328.9320788957472246
 21
-0.1027567543746954
 31
0.0
  0
LINE
  5
EC
100
AcDbEntity
100
AcDbLine
  8
0
 62
256
370
-1
  6
ByLayer
 10
328.9320788957472246
 20
-0.1027567543746954
 30
0.0
 11
325.7393288957472919
 21
-0.072506754374615
 31
0.0
  0
LINE
  5
ED
100
AcDbEntity
100
AcDbLine
  8
0
 62
256
370
-1
  6
ByLayer
 10
325.7393288957472919
 20
-0.072506754374615
 30
0.0
 11
320.4675788957471809
 21
0.1062432456253646
 31
0.0
  0
LINE
  5
EE
100
AcDbEntity
100
AcDbLine
  8
0
 62
256
370
-1
  6
ByLayer
 10
320.4675788957471809
 20
0.1062432456253646
 30
0.0
 11
313.2295788957473519
 21
0.4994932456252741
 31
0.0
  0
LINE
  5
EF
100
AcDbEntity
100
AcDbLine
  8
0
 62
256
370
-1
  6
ByLayer
 10
313.2295788957473519
 20
0.4994932456252741
 30
0.0
 11
304.1628288957471682
 21
1.1512432456253805
 31
0.0
  0
LINE
  5
F0
100
AcDbEntity
100
AcDbLine
  8
0
 62
256
370
-1
  6
ByLayer
 10
304.1628288957471682
 20
1.1512432456253805
 30
0.0
 11
293.4350788957471536
 21
2.099993245625285
 31
0.0
  0
LINE
  5
F1
100
AcDbEntity
100
AcDbLine
  8
0
 62
256
370
-1
  6
ByLayer
 10
293.4350788957471536
 20
2.099993245625285
 30
0.0
 11
281.2580788957472464
 21
3.3567432456252959
 31
0.0
  0
LINE
  5
F2
100
AcDbEntity
100
AcDbLine
  8
0
 62
256
370
-1
  6
ByLayer
 10
281.2580788957472464
 20
3.3567432456252959
 30
0.0
 11
267.8490788957473683
 21
4.8774932456254305
 31
0.0
  0
LINE
  5
F3
100
AcDbEntity
100
AcDbLine
  8
0
 62
256
370
-1
  6
ByLayer
 10
267.8490788957473683
 20
4.8774932456254305
 30
0.0
 11
253.41982889574723
 21
6.604493245625406
 31
0.0
  0
LINE
  5
F4
100
AcDbEntity
100
AcDbLine
  8
0
 62
256
370
-1
  6
ByLayer
 10
253.41982889574723
 20
6.604493245625406
 30
0.0
 11
238.1820788957472246
 21
8.4662432456252645
 31
0.0
  0
LINE
  5
F5
100
AcDbEntity
100
AcDbLine
  8
0
 62
256
370
-1
  6
ByLayer
 10
238.1820788957472246
 20
8.4662432456252645
 30
0.0
 11
222.3448288957471846
 21
10.374743245625325
 31
0.0
  0
LINE
  5
F6
100
AcDbEntity
100
AcDbLine
  8
0
 62
256
370
-1
  6
ByLayer
 10
222.3448288957471846
 20
10.374743245625325
 30
0.0
 11
206.0868288957473737
 21
12.222743245625395
 31
0.0
  0
LINE
  5
F7
100
AcDbEntity
100
AcDbLine
  8
0
 62
256
370
-1
  6
ByLayer
 10
206.0868288957473737
 20
12.222743245625395
 30
0.0
 11
189.5593288957472282
 21
13.9222432456253955
 31
0.0
  0
LINE
  5
F8
100
AcDbEntity
100
AcDbLine
  8
0
 62
256
370
-1
  6
ByLayer
 10
189.5593288957472282
 20
13.9222432456253955
 30
0.0
 11
172.9053288957472319
 21
15.4127432456253359
 31
0.0
  0
LINE
  5
F9
100
AcDbEntity
100
AcDbLine
  8
0
 62
256
370
-1
  6
ByLayer
 10
172.9053288957472319
 20
15.4127432456253359
 30
0.0
 11
156.2595788957473246
 21
16.6502432456252905
 31
0.0
  0
LINE
  5
FA
100
AcDbEntity
100
AcDbLine
  8
0
 62
256
370
-1
  6
ByLayer
 10
156.2595788957473246
 20
16.6502432456252905
 30
0.0
 11
139.7733288957473405
 21
17.618243245625365
 31
0.0
  0
LINE
  5
FB
100
AcDbEntity
100
AcDbLine
  8
0
 62
256
370
-1
  6
ByLayer
 10
139.7733288957473405
 20
17.618243245625365
 30
0.0
 11
123.6143288957472919
 21
18.305743245625365
 31
0.0
  0
LINE
  5
FC
100
AcDbEntity
100
AcDbLine
  8
0
 62
256
370
-1
  6
ByLayer
 10
123.6143288957472919
 20
18.305743245625365
 30
0.0
 11
107.9420788957473292
 21
18.6934932456254046
 31
0.0
  0
LINE
  5
FD
100
AcDbEntity
100
AcDbLine
  8
0
 62
256
370
-1
  6
ByLayer
 10
107.9420788957473292
 20
18.6934932456254046
 30
0.0
 11
92.9133288957473269
 21
18.7649932456253055
 31
0.0
  0
LINE
  5
FE
100
AcDbEntity
100
AcDbLine
  8
0
 62
256
370
-1
  6
ByLayer
 10
92.9133288957473269
 20
18.7649932456253055
 30
0.0
 11
78.673828895747306
 21
18.4982432456253605
 31
0.0
  0
LINE
  5
FF
100
AcDbEntity
100
AcDbLine
  8
0
 62
256
370
-1
  6
ByLayer
 10
78.673828895747306
 20
18.4982432456253605
 30
0.0
 11
65.344578895747361
 21
17.88499324562531
 31
0.0
  0
LINE
  5
100
100
AcDbEntity
100
AcDbLine
  8
0
 62
256
370
-1
  6
ByLayer
 10
65.344578895747361
 20
17.88499324562531
 30
0.0
 11
53.0383288957473269
 21
16.9279932456252595
 31
0.0
  0
LINE
  5
101
100
AcDbEntity
100
AcDbLine
  8
0
 62
256
370
-1
  6
ByLayer
 10
53.0383288957473269
 20
16.9279932456252595
 30
0.0
 11
41.8485788957473233
 21
15.63824324562529
 31
0.0
  0
LINE
  5
102
100
AcDbEntity
100
AcDbLine
  8
0
 62
256
370
-1
  6
ByLayer
 10
41.8485788957473233
 20
15.63824324562529
 30
0.0
 11
31.8660788957473073
 21
14.0459932456252545
 31
0.0
  0
LINE
  5
103
100
AcDbEntity
100
AcDbLine
  8
0
 62
256
370
-1
  6
ByLayer
 10
31.8660788957473073
 20
14.0459932456252545
 30
0.0
 11
23.170578895747326
 21
12.1814932456252905
 31
0.0
  0
LINE
  5
104
100
AcDbEntity
100
AcDbLine
  8
0
 62
256
370
-1
  6
ByLayer
 10
23.170578895747326
 20
12.1814932456252905
 30
0.0
 11
15.8170788957473292
 21
10.0804932456254051
 31
0.0
  0
LINE
  5
105
100
AcDbEntity
100
AcDbLine
  8
0
 62
256
370
-1
  6
ByLayer
 10
15.8170788957473292
 20
10.0804932456254051
 30
0.0
 11
9.8330788957472919
 21
7.795243245625386
 31
0.0
  0
LINE
  5
106
100
AcDbEntity
100
AcDbLine
  8
0
 62
256
370
-1
  6
ByLayer
 10
9.8330788957472919
 20
7.795243245625386
 30
0.0
 11
5.2405788957473192
 21
5.4219932456253446
 31
0.0
  0
LINE
  5
107
100
AcDbEntity
100
AcDbLine
  8
0
 62
256
370
-1
  6
ByLayer
 10
5.2405788957473192
 20
5.4219932456253446
 30
0.0
 11
2.0505788957473214
 21
3.0707432456252945
 31
0.0
  0
LINE
  5
108
100
AcDbEntity
100
AcDbLine
  8
0
 62
256
370
-1
  6
ByLayer
 10
2.0505788957473214
 20
3.0707432456252945
 30
0.0
 11
0.6535788957473301
 21
1.5087432456253396
 31
0.0
  0
LINE
  5
109
100
AcDbEntity
100
AcDbLine
  8
0
 62
256
370
-1
  6
ByLayer
 10
0.6535788957473301
 20
1.5087432456253396
 30
0.0
 11
0.2933288957473223
 21
0.8982432456253946
 31
0.0
  0
LINE
  5
10A
100
AcDbEntity
100
AcDbLine
  8
0
 62
256
370
-1
  6
ByLayer
 10
0.2933288957473223
 20
0.8982432456253946
 30
0.0
 11
0.0678288957473114
 21
0.337243245625416
 31
0.0
  0
LINE
  5
10B
100
AcDbEntity
100
AcDbLine
  8
0
 62
256
370
-1
  6
ByLayer
 10
0.0678288957473114
 20
0.337243245625416
 30
0.0
 11
-0.0009211042526545
 21
-0.0010067543746004
 31
0.0
  0
LINE
  5
10C
100
AcDbEntity
100
AcDbLine
  8
0
 62
256
370
-1
  6
ByLayer
 10
-0.0009211042526545
 20
-0.0010067543746004
 30
0.0
 11
0.0155788957472964
 21
-0.2980067543746259
 31
0.0
  0
LINE
  5
10D
100
AcDbEntity
100
AcDbLine
  8
0
 62
256
370
-1
  6
ByLayer
 10
0.0155788957472964
 20
-0.2980067543746259
 30
0.0
 11
0.1420788957473178
 21
-0.5757567543745949
 31
0.0
  0
LINE
  5
10E
100
AcDbEntity
100
AcDbLine
  8
0
 62
256
370
-1
  6
ByLayer
 10
0.1420788957473178
 20
-0.5757567543745949
 30
0.0
 11
0.3703288957473205
 21
-0.864506754374645
 31
0.0
  0
LINE
  5
10F
100
AcDbEntity
100
AcDbLine
  8
0
 62
256
370
-1
  6
ByLayer
 10
0.3703288957473205
 20
-0.864506754374645
 30
0.0
 11
0.8653288957473251
 21
-1.312756754374675
 31
0.0
  0
LINE
  5
110
100
AcDbEntity
100
AcDbLine
  8
0
 62
256
370
-1
  6
ByLayer
 10
0.8653288957473251
 20
-1.312756754374675
 30
0.0
 11
1.5198288957473665
 21
-1.7775067543746559
 31
0.0
  0
LINE
  5
111
100
AcDbEntity
100
AcDbLine
  8
0
 62
256
370
-1
  6
ByLayer
 10
1.5198288957473665
 20
-1.7775067543746559
 30
0.0
 11
2.2870788957473565
 21
-2.23675675437471
 31
0.0
  0
LINE
  5
112
100
AcDbEntity
100
AcDbLine
  8
0
 62
256
370
-1
  6
ByLayer
 10
2.2870788957473565
 20
-2.23675675437471
 30
0.0
 11
6.0490788957473001
 21
-3.8097567543747459
 31
0.0
  0
LINE
  5
113
100
AcDbEntity
100
AcDbLine
  8
0
 62
256
370
-1
  6
ByLayer
 10
6.0490788957473001
 20
-3.8097567543747459
 30
0.0
 11
11.4363288957472946
 21
-5.3112567543747105
 31
0.0
  0
LINE
  5
114
100
AcDbEntity
100
AcDbLine
  8
0
 62
256
370
-1
  6
ByLayer
 10
11.4363288957472946
 20
-5.3112567543747105
 30
0.0
 11
18.3773288957473255
 21
-6.6697567543746459
 31
0.0
  0
LINE
  5
115
100
AcDbEntity
100
AcDbLine
  8
0
 62
256
370
-1
  6
ByLayer
 10
18.3773288957473255
 20
-6.6697567543746459
 30
0.0
 11
26.8033288957473133
 21
-7.8302567543747159
 31
0.0
  0
LINE
  5
116
100
AcDbEntity
100
AcDbLine
  8
0
 62
256
370
-1
  6
ByLayer
 10
26.8033288957473133
 20
-7.8302567543747159
 30
0.0
 11
36.6538288957473242
 21
-8.7377567543746295
 31
0.0
  0
LINE
  5
117
100
AcDbEntity
100
AcDbLine
  8
0
 62
256
370
-1
  6
ByLayer
 10
36.6538288957473242
 20
-8.7377567543746295
 30
0.0
 11
47.868328895747311
 21
-9.3620067543747041
 31
0.0
  0
LINE
  5
118
100
AcDbEntity
100
AcDbLine
  8
0
 62
256
370
-1
  6
ByLayer
 10
47.868328895747311
 20
-9.3620067543747041
 30
0.0
 11
60.3725788957473242
 21
-9.7057567543747041
 31
0.0
  0
LINE
  5
119
100
AcDbEntity
100
AcDbLine
  8
0
 62
256
370
-1
  6
ByLayer
 10
60.3725788957473242
 20
-9.7057567543747041
 30
0.0
 11
74.073078895747301
 21
-9.7855067543746941
 31
0.0
  0
LINE
  5
11A
100
AcDbEntity
100
AcDbLine
  8
0
 62
256
370
-1
  6
ByLayer
 10
74.073078895747301
 20
-9.7855067543746941
 30
0.0
 11
88.8460788957473255
 21
-9.6342567543746895
 31
0.0
  0
LINE
  5
11B
100
AcDbEntity
100
AcDbLine
  8
0
 62
256
370
-1
  6
ByLayer
 10
88.8460788957473255
 20
-9.6342567543746895
 30
0.0
 11
104.5430788957473283
 21
-9.2822567543746004
 31
0.0
  0
LINE
  5
11C
100
AcDbEntity
100
AcDbLine
  8
0
 62
256
370
-1
  6
ByLayer
 10
104.5430788957473283
 20
-9.2822567543746004
 30
0.0
 11
120.9963288957473537
 21
-8.770756754374645
 31
0.0
  0
LINE
  5
11D
100
AcDbEntity
100
AcDbLine
  8
0
 62
256
370
-1
  6
ByLayer
 10
120.9963288957473537
 20
-8.770756754374645
 30
0.0
 11
138.035328895747341
 21
-8.1272567543746845
 31
0.0
  0
LINE
  5
11E
100
AcDbEntity
100
AcDbLine
  8
0
 62
256
370
-1
  6
ByLayer
 10
138.035328895747341
 20
-8.1272567543746845
 30
0.0
 11
155.4703288957472864
 21
-7.4040067543746204
 31
0.0
  0
LINE
  5
11F
100
AcDbEntity
100
AcDbLine
  8
0
 62
256
370
-1
  6
ByLayer
 10
155.4703288957472864
 20
-7.4040067543746204
 30
0.0
 11
173.0895788957472519
 21
-6.6340067543746954
 31
0.0
  0
LINE
  5
120
100
AcDbEntity
100
AcDbLine
  8
0
 62
256
370
-1
  6
ByLayer
 10
173.0895788957472519
 20
-6.6340067543746954
 30
0.0
 11
190.6868288957472828
 21
-5.850256754374584
 31
0.0
  0
LINE
  5
121
100
AcDbEntity
100
AcDbLine
  8
0
 62
256
370
-1
  6
ByLayer
 10
190.6868288957472828
 20
-5.850256754374584
 30
0.0
 11
208.0420788957473519
 21
-5.0775067543746104
 31
0.0
  0
LINE
  5
122
100
AcDbEntity
100
AcDbLine
  8
0
 62
256
370
-1
  6
ByLayer
 10
208.0420788957473519
 20
-5.0775067543746104
 30
0.0
 11
224.9435788957472937
 21
-4.3405067543746441
 31
0.0
  0
LINE
  5
123
100
AcDbEntity
100
AcDbLine
  8
0
 62
256
370
-1
  6
ByLayer
 10
224.9435788957472937
 20
-4.3405067543746441
 30
0.0
 11
241.1823288957472755
 21
-3.6502567543745954
 31
0.0
  0
LINE
  5
124
100
AcDbEntity
100
AcDbLine
  8
0
 62
256
370
-1
  6
ByLayer
 10
241.1823288957472755
 20
-3.6502567543745954
 30
0.0
 11
256.5603288957472046
 21
-3.0150067543746104
 31
0.0
  0
LINE
  5
125
100
AcDbEntity
100
AcDbLine
  8
0
 62
256
370
-1
  6
ByLayer
 10
256.5603288957472046
 20
-3.0150067543746104
 30
0.0
 11
270.8878288957473046
 21
-2.4402567543746159
 31
0.0
  0
LINE
  5
126
100
AcDbEntity
100
AcDbLine
  8
0
 62
256
370
-1
  6
ByLayer
 10
270.8878288957473046
 20
-2.4402567543746159
 30
0.0
 11
283.98882889574719
 21
-1.9425067543746195
 31
0.0
  0
LINE
  5
127
100
AcDbEntity
100
AcDbLine
  8
0
 62
256
370
-1
  6
ByLayer
 10
283.98882889574719
 20
-1.9425067543746195
 30
0.0
 11
295.6955788957472464
 21
-1.5107567543746541
 31
0.0
  0
LINE
  5
128
100
AcDbEntity
100
AcDbLine
  8
0
 62
256
370
-1
  6
ByLayer
 10
295.6955788957472464
 20
-1.5107567543746541
 30
0.0
 11
305.8623288957473392
 21
-1.1477567543746545
 31
0.0
  0
LINE
  5
129
100
AcDbEntity
100
AcDbLine
  8
0
 62
256
370
-1
  6
ByLayer
 10
305.8623288957473392
 20
-1.1477567543746545
 30
0.0
 11
314.3598288957472846
 21
-0.8425067543747105
 31
0.0
  0
LINE
  5
12A
100
AcDbEntity
100
AcDbLine
  8
0
 62
256
370
-1
  6
ByLayer
 10
314.3598288957472846
 20
-0.8425067543747105
 30
0.0
 11
321.0835788957471664
 21
-0.5840067543746841
 31
0.0
  0
LINE
  5
12B
100
AcDbEntity
100
AcDbLine
  8
0
 62
256
370
-1
  6
ByLayer
 10
321.0835788957471664
 20
-0.5840067543746841
 30
0.0
 11
325.9593288957473192
 21
-0.3475067543747059
 31
0.0
  0
LINE
  5
12C
100
AcDbEntity
100
AcDbLine
  8
0
 62
256
370
-1
  6
ByLayer
 10
325.9593288957473192
 20
-0.3475067543747059
 30
0.0
 11
328.9623288957472482
 21
-0.1632567543746859
 31
0.0
  0
LINE
  5
12D
100
AcDbEntity
100
AcDbLine
  8
0
 62
256
370
-1
  6
ByLayer
 10
328.9623288957472482
 20
-0.1632567543746859
 30
0.0
 11
329.9963288957473537
 21
-0.097256754374655
 31
0.0
  0
LINE
  5
12E
100
AcDbEntity
100
AcDbLine
  8
airfoil
 62
256
370
-1
  6
ByLayer
 10
329.9963288957473537
 20
-0.097256754374655
 30
0.0
 11
328.9320788957472246
 21
-0.1027567543746954
 31
0.0
  0
LINE
  5
12F
100
AcDbEntity
100
AcDbLine
  8
airfoil
 62
256
370
-1
  6
ByLayer
 10
328.9320788957472246
 20
-0.1027567543746954
 30
0.0
 11
325.7393288957472919
 21
-0.072506754374615
 31
0.0
  0
LINE
  5
130
100
AcDbEntity
100
AcDbLine
  8
airfoil
 62
256
370
-1
  6
ByLayer
 10
325.7393288957472919
 20
-0.072506754374615
 30
0.0
 11
320.4675788957471809
 21
0.1062432456253646
 31
0.0
  0
LINE
  5
131
100
AcDbEntity
100
AcDbLine
  8
airfoil
 62
256
370
-1
  6
ByLayer
 10
320.4675788957471809
 20
0.1062432456253646
 30
0.0
 11
313.2295788957473519
 21
0.4994932456252741
 31
0.0
  0
LINE
  5
132
100
AcDbEntity
100
AcDbLine
  8
airfoil
 62
256
370
-1
  6
ByLayer
 10
313.2295788957473519
 20
0.4994932456252741
 30
0.0
 11
304.1628288957471682
 21
1.1512432456253805
 31
0.0
  0
LINE
  5
133
100
AcDbEntity
100
AcDbLine
  8
airfoil
 62
256
370
-1
  6
ByLayer
 10
304.1628288957471682
 20
1.1512432456253805
 30
0.0
 11
293.4350788957471536
 21
2.099993245625285
 31
0.0
  0
LINE
  5
134
100
AcDbEntity
100
AcDbLine
  8
airfoil
 62
256
370
-1
  6
ByLayer
 10
293.4350788957471536
 20
2.099993245625285
 30
0.0
 11
281.2580788957472464
 21
3.3567432456252959
 31
0.0
  0
LINE
  5
135
100
AcDbEntity
100
AcDbLine
  8
airfoil
 62
256
370
-1
  6
ByLayer
 10
281.2580788957472464
 20
3.3567432456252959
 30
0.0
 11
267.8490788957473683
 21
4.8774932456254305
 31
0.0
  0
LINE
  5
136
100
AcDbEntity
100
AcDbLine
  8
airfoil
 62
256
370
-1
  6
ByLayer
 10
267.8490788957473683
 20
4.8774932456254305
 30
0.0
 11
253.41982889574723
 21
6.604493245625406
 31
0.0
  0
LINE
  5
137
100
AcDbEntity
100
AcDbLine
  8
airfoil
 62
256
370
-1
  6
ByLayer
 10
253.41982889574723
 20
6.604493245625406
 30
0.0
 11
238.1820788957472246
 21
8.4662432456252645
 31
0.0
  0
LINE
  5
138
100
AcDbEntity
100
AcDbLine
  8
airfoil
 62
256
370
-1
  6
ByLayer
 10
238.1820788957472246
 20
8.4662432456252645
 30
0.0
 11
222.3448288957471846
 21
10.374743245625325
 31
0.0
  0
LINE
  5
139
100
AcDbEntity
100
AcDbLine
  8
airfoil
 62
256
370
-1
  6
ByLayer
 10
222.3448288957471846
 20
10.374743245625325
 30
0.0
 11
206.0868288957473737
 21
12.222743245625395
 31
0.0
  0
LINE
  5
13A
100
AcDbEntity
100
AcDbLine
  8
airfoil
 62
256
370
-1
  6
ByLayer
 10
206.0868288957473737
 20
12.222743245625395
 30
0.0
 11
189.5593288957472282
 21
13.9222432456253955
 31
0.0
  0
LINE
  5
13B
100
AcDbEntity
100
AcDbLine
  8
airfoil
 62
256
370
-1
  6
ByLayer
 10
189.5593288957472282
 20
13.9222432456253955
 30
0.0
 11
172.9053288957472319
 21
15.4127432456253359
 31
0.0
  0
LINE
  5
13C
100
AcDbEntity
100
AcDbLine
  8
airfoil
 62
256
370
-1
  6
ByLayer
 10
172.9053288957472319
 20
15.4127432456253359
 30
0.0
 11
156.2595788957473246
 21
16.6502432456252905
 31
0.0
  0
LINE
  5
13D
100
AcDbEntity
100
AcDbLine
  8
airfoil
 62
256
370
-1
  6
ByLayer
 10
156.2595788957473246
 20
16.6502432456252905
 30
0.0
 11
139.7733288957473405
 21
17.618243245625365
 31
0.0
  0
LINE
  5
13E
100
AcDbEntity
100
AcDbLine
  8
airfoil
 62
256
370
-1
  6
ByLayer
 10
139.7733288957473405
 20
17.618243245625365
 30
0.0
 11
123.6143288957472919
 21
18.305743245625365
 31
0.0
  0
LINE
  5
13F
100
AcDbEntity
100
AcDbLine
  8
airfoil
 62
256
370
-1
  6
ByLayer
 10
123.6143288957472919
 20
18.305743245625365
 30
0.0
 11
107.9420788957473292
 21
18.6934932456254046
 31
0.0
  0
LINE
  5
140
100
AcDbEntity
100
AcDbLine
  8
airfoil
 62
256
370
-1
  6
ByLayer
 10
107.9420788957473292
 20
18.6934932456254046
 30
0.0
 11
92.9133288957473269
 21
18.7649932456253055
 31
0.0
  0
LINE
  5
141
100
AcDbEntity
100
AcDbLine
  8
airfoil
 62
256
370
-1
  6
ByLayer
 10
92.9133288957473269
 20
18.7649932456253055
 30
0.0
 11
78.673828895747306
 21
18.4982432456253605
 31
0.0
  0
LINE
  5
142
100
AcDbEntity
100
AcDbLine
  8
airfoil
 62
256
370
-1
  6
ByLayer
 10
78.673828895747306
 20
18.4982432456253605
 30
0.0
 11
65.344578895747361
 21
17.88499324562531
 31
0.0
  0
LINE
  5
143
100
AcDbEntity
100
AcDbLine
  8
airfoil
 62
256
370
-1
  6
ByLayer
 10
65.344578895747361
 20
17.88499324562531
 30
0.0
 11
53.0383288957473269
 21
16.9279932456252595
 31
0.0
  0
LINE
  5
144
100
AcDbEntity
100
AcDbLine
  8
airfoil
 62
256
370
-1
  6
ByLayer
 10
53.0383288957473269
 20
16.9279932456252595
 30
0.0
 11
41.8485788957473233
 21
15.63824324562529
 31
0.0
  0
LINE
  5
145
100
AcDbEntity
100
AcDbLine
  8
airfoil
 62
256
370
-1
  6
ByLayer
 10
41.8485788957473233
 20
15.63824324562529
 30
0.0
 11
31.8660788957473073
 21
14.0459932456252545
 31
0.0
  0
LINE
  5
146
100
AcDbEntity
100
AcDbLine
  8
airfoil
 62
256
370
-1
  6
ByLayer
 10
31.8660788957473073
 20
14.0459932456252545
 30
0.0
 11
23.170578895747326
 21
12.1814932456252905
 31
0.0
  0
LINE
  5
147
100
AcDbEntity
100
AcDbLine
  8
airfoil
 62
256
370
-1
  6
ByLayer
 10
23.170578895747326
 20
12.1814932456252905
 30
0.0
 11
15.8170788957473292
 21
10.0804932456254051
 31
0.0
  0
LINE
  5
148
100
AcDbEntity
100
AcDbLine
  8
airfoil
 62
256
370
-1
  6
ByLayer
 10
15.8170788957473292
 20
10.0804932456254051
 30
0.0
 11
9.8330788957472919
 21
7.795243245625386
 31
0.0
  0
LINE
  5
149
100
AcDbEntity
100
AcDbLine
  8
airfoil
 62
256
370
-1
  6
ByLayer
 10
9.8330788957472919
 20
7.795243245625386
 30
0.0
 11
5.2405788957473192
 21
5.4219932456253446
 31
0.0
  0
LINE
  5
14A
100
AcDbEntity
100
AcDbLine
  8
airfoil
 62
256
370
-1
  6
ByLayer
 10
5.2405788957473192
 20
5.4219932456253446
 30
0.0
 11
2.0505788957473214
 21
3.0707432456252945
 31
0.0
  0
LINE
  5
14B
100
AcDbEntity
100
AcDbLine
  8
airfoil
 62
256
370
-1
  6
ByLayer
 10
2.0505788957473214
 20
3.0707432456252945
 30
0.0
 11
0.6535788957473301
 21
1.5087432456253396
 31
0.0
  0
LINE
  5
14C
100
AcDbEntity
100
AcDbLine
  8
airfoil
 62
256
370
-1
  6
ByLayer
 10
0.6535788957473301
 20
1.5087432456253396
 30
0.0
 11
0.2933288957473223
 21
0.8982432456253946
 31
0.0
  0
LINE
  5
14D
100
AcDbEntity
100
AcDbLine
  8
airfoil
 62
256
370
-1
  6
ByLayer
 10
0.2933288957473223
 20
0.8982432456253946
 30
0.0
 11
0.0678288957473114
 21
0.337243245625416
 31
0.0
  0
LINE
  5
14E
100
AcDbEntity
100
AcDbLine
  8
airfoil
 62
256
370
-1
  6
ByLayer
 10
0.0678288957473114
 20
0.337243245625416
 30
0.0
 11
-0.0009211042526545
 21
-0.0010067543746004
 31
0.0
  0
LINE
  5
14F
100
AcDbEntity
100
AcDbLine
  8
airfoil
 62
256
370
-1
  6
ByLayer
 10
-0.0009211042526545
 20
-0.0010067543746004
 30
0.0
 11
0.0155788957472964
 21
-0.2980067543746259
 31
0.0
  0
LINE
  5
150
100
AcDbEntity
100
AcDbLine
  8
airfoil
 62
256
370
-1
  6
ByLayer
 10
0.0155788957472964
 20
-0.2980067543746259
 30
0.0
 11
0.1420788957473178
 21
-0.5757567543745949
 31
0.0
  0
LINE
  5
151
100
AcDbEntity
100
AcDbLine
  8
airfoil
 62
256
370
-1
  6
ByLayer
 10
0.1420788957473178
 20
-0.5757567543745949
 30
0.0
 11
0.3703288957473205
 21
-0.864506754374645
 31
0.0
  0
LINE
  5
152
100
AcDbEntity
100
AcDbLine
  8
airfoil
 62
256
370
-1
  6
ByLayer
 10
0.3703288957473205
 20
-0.864506754374645
 30
0.0
 11
0.8653288957473251
 21
-1.312756754374675
 31
0.0
  0
LINE
  5
153
100
AcDbEntity
100
AcDbLine
  8
airfoil
 62
256
370
-1
  6
ByLayer
 10
0.8653288957473251
 20
-1.312756754374675
 30
0.0
 11
1.5198288957473665
 21
-1.7775067543746559
 31
0.0
  0
LINE
  5
154
100
AcDbEntity
100
AcDbLine
  8
airfoil
 62
256
370
-1
  6
ByLayer
 10
1.5198288957473665
 20
-1.7775067543746559
 30
0.0
 11
2.2870788957473565
 21
-2.23675675437471
 31
0.0
  0
LINE
  5
155
100
AcDbEntity
100
AcDbLine
  8
airfoil
 62
256
370
-1
  6
ByLayer
 10
2.2870788957473565
 20
-2.23675675437471
 30
0.0
 11
6.0490788957473001
 21
-3.8097567543747459
 31
0.0
  0
LINE
  5
156
100
AcDbEntity
100
AcDbLine
  8
airfoil
 62
256
370
-1
  6
ByLayer
 10
6.0490788957473001
 20
-3.8097567543747459
 30
0.0
 11
11.4363288957472946
 21
-5.3112567543747105
 31
0.0
  0
LINE
  5
157
100
AcDbEntity
100
AcDbLine
  8
airfoil
 62
256
370
-1
  6
ByLayer
 10
11.4363288957472946
 20
-5.3112567543747105
 30
0.0
 11
18.3773288957473255
 21
-6.6697567543746459
 31
0.0
  0
LINE
  5
158
100
AcDbEntity
100
AcDbLine
  8
airfoil
 62
256
370
-1
  6
ByLayer
 10
18.3773288957473255
 20
-6.6697567543746459
 30
0.0
 11
26.8033288957473133
 21
-7.8302567543747159
 31
0.0
  0
LINE
  5
159
100
AcDbEntity
100
AcDbLine
  8
airfoil
 62
256
370
-1
  6
ByLayer
 10
26.8033288957473133
 20
-7.8302567543747159
 30
0.0
 11
36.6538288957473242
 21
-8.7377567543746295
 31
0.0
  0
LINE
  5
15A
100
AcDbEntity
100
AcDbLine
  8
airfoil
 62
256
370
-1
  6
ByLayer
 10
36.6538288957473242
 20
-8.7377567543746295
 30
0.0
 11
47.868328895747311
 21
-9.3620067543747041
 31
0.0
  0
LINE
  5
15B
100
AcDbEntity
100
AcDbLine
  8
airfoil
 62
256
370
-1
  6
ByLayer
 10
47.868328895747311
 20
-9.3620067543747041
 30
0.0
 11
60.3725788957473242
 21
-9.7057567543747041
 31
0.0
  0
LINE
  5
15C
100
AcDbEntity
100
AcDbLine
  8
airfoil
 62
256
370
-1
  6
ByLayer
 10
60.3725788957473242
 20
-9.7057567543747041
 30
0.0
 11
74.073078895747301
 21
-9.7855067543746941
 31
0.0
  0
LINE
  5
15D
100
AcDbEntity
100
AcDbLine
  8
airfoil
 62
256
370
-1
  6
ByLayer
 10
74.073078895747301
 20
-9.7855067543746941
 30
0.0
 11
88.8460788957473255
 21
-9.6342567543746895
 31
0.0
  0
LINE
  5
15E
100
AcDbEntity
100
AcDbLine
  8
airfoil
 62
256
370
-1
  6
ByLayer
 10
88.8460788957473255
 20
-9.6342567543746895
 30
0.0
 11
104.5430788957473283
 21
-9.2822567543746004
 31
0.0
  0
LINE
  5
15F
100
AcDbEntity
100
AcDbLine
  8
airfoil
 62
256
370
-1
  6
ByLayer
 10
104.5430788957473283
 20
-9.2822567543746004
 30
0.0
 11
120.9963288957473537
 21
-8.770756754374645
 31
0.0
  0
LINE
  5
160
100
AcDbEntity
100
AcDbLine
  8
airfoil
 62
256
370
-1
  6
ByLayer
 10
120.9963288957473537
 20
-8.770756754374645
 30
0.0
 11
138.035328895747341
 21
-8.1272567543746845
 31
0.0
  0
LINE
  5
161
100
AcDbEntity
100
AcDbLine
  8
airfoil
 62
256
370
-1
  6
ByLayer
 10
138.035328895747341
 20
-8.1272567543746845
 30
0.0
 11
155.4703288957472864
 21
-7.4040067543746204
 31
0.0
  0
LINE
  5
162
100
AcDbEntity
100
AcDbLine
  8
airfoil
 62
256
370
-1
  6
ByLayer
 10
155.4703288957472864
 20
-7.4040067543746204
 30
0.0
 11
173.0895788957472519
 21
-6.6340067543746954
 31
0.0
  0
LINE
  5
163
100
AcDbEntity
100
AcDbLine
  8
airfoil
 62
256
370
-1
  6
ByLayer
 10
173.0895788957472519
 20
-6.6340067543746954
 30
0.0
 11
190.6868288957472828
 21
-5.850256754374584
 31
0.0
  0
LINE
  5
164
100
AcDbEntity
100
AcDbLine
  8
airfoil
 62
256
370
-1
  6
ByLayer
 10
190.6868288957472828
 20
-5.850256754374584
 30
0.0
 11
208.0420788957473519
 21
-5.0775067543746104
 31
0.0
  0
LINE
  5
165
100
AcDbEntity
100
AcDbLine
  8
airfoil
 62
256
370
-1
  6
ByLayer
 10
208.0420788957473519
 20
-5.0775067543746104
 30
0.0
 11
224.9435788957472937
 21
-4.3405067543746441
 31
0.0
  0
LINE
  5
166
100
AcDbEntity
100
AcDbLine
  8
airfoil
 62
256
370
-1
  6
ByLayer
 10
224.9435788957472937
 20
-4.3405067543746441
 30
0.0
 11
241.1823288957472755
 21
-3.6502567543745954
 31
0.0
  0
LINE
  5
167
100
AcDbEntity
100
AcDbLine
  8
airfoil
 62
256
370
-1
  6
ByLayer
 10
241.1823288957472755
 20
-3.6502567543745954
 30
0.0
 11
256.5603288957472046
 21
-3.0150067543746104
 31
0.0
  0
LINE
  5
168
100
AcDbEntity
100
AcDbLine
  8
airfoil
 62
256
370
-1
  6
ByLayer
 10
256.5603288957472046
 20
-3.0150067543746104
 30
0.0
 11
270.8878288957473046
 21
-2.4402567543746159
 31
0.0
  0
LINE
  5
169
100
AcDbEntity
100
AcDbLine
  8
airfoil
 62
256
370
-1
  6
ByLayer
 10
270.8878288957473046
 20
-2.4402567543746159
 30
0.0
 11
283.98882889574719
 21
-1.9425067543746195
 31
0.0
  0
LINE
  5
16A
100
AcDbEntity
100
AcDbLine
  8
airfoil
 62
256
370
-1
  6
ByLayer
 10
283.98882889574719
 20
-1.9425067543746195
 30
0.0
 11
295.6955788957472464
 21
-1.5107567543746541
 31
0.0
  0
LINE
  5
16B
100
AcDbEntity
100
AcDbLine
  8
airfoil
 62
256
370
-1
  6
ByLayer
 10
295.6955788957472464
 20
-1.5107567543746541
 30
0.0
 11
305.8623288957473392
 21
-1.1477567543746545
 31
0.0
  0
LINE
  5
16C
100
AcDbEntity
100
AcDbLine
  8
airfoil
 62
256
370
-1
  6
ByLayer
 10
305.8623288957473392
 20
-1.1477567543746545
 30
0.0
 11
314.3598288957472846
 21
-0.8425067543747105
 31
0.0
  0
LINE
  5
16D
100
AcDbEntity
100
AcDbLine
  8
airfoil
 62
256
370
-1
  6
ByLayer
 10
314.3598288957472846
 20
-0.8425067543747105
 30
0.0
 11
321.0835788957471664
 21
-0.5840067543746841
 31
0.0
  0
LINE
  5
16E
100
AcDbEntity
100
AcDbLine
  8
airfoil
 62
256
370
-1
  6
ByLayer
 10
321.0835788957471664
 20
-0.5840067543746841
 30
0.0
 11
325.9593288957473192
 21
-0.3475067543747059
 31
0.0
  0
LINE
  5
16F
100
AcDbEntity
100
AcDbLine
  8
airfoil
 62
256
370
-1
  6
ByLayer
 10
325.9593288957473192
 20
-0.3475067543747059
 30
0.0
 11
328.9623288957472482
 21
-0.1632567543746859
 31
0.0
  0
LINE
  5
170
100
AcDbEntity
100
AcDbLine
  8
airfoil
 62
256
370
-1
  6
ByLayer
 10
328.9623288957472482
 20
-0.1632567543746859
 30
0.0
 11
329.9963288957473537
 21
-0.097256754374655
 31
0.0
  0
ENDBLK
  5
171
100
AcDbEntity
  8
0
100
AcDbBlockEnd
  0
BLOCK
  5
172
100
AcDbEntity
  8
0
100
AcDbBlockBegin
  2
mh-64-li 11% inner
 70
0
 10
0.0
 20
0.0
 30
0.0
  3
mh-64-li 11% inner
  1

  0
LINE
  5
173
100
AcDbEntity
100
AcDbLine
  8
airfoil
 62
256
370
-1
  6
ByLayer
 10
140.6999999999999886
 20
0.0
 30
0.0
 11
140.2470000000000141
 21
0.0010000000000048
 31
0.0
  0
LINE
  5
174
100
AcDbEntity
100
AcDbLine
  8
airfoil
 62
256
370
-1
  6
ByLayer
 10
140.2470000000000141
 20
0.0010000000000048
 30
0.0
 11
138.8849999999999909
 21
0.0279999999999916
 31
0.0
  0
LINE
  5
175
100
AcDbEntity
100
AcDbLine
  8
airfoil
 62
256
370
-1
  6
ByLayer
 10
138.8849999999999909
 20
0.0279999999999916
 30
0.0
 11
136.6370000000000005
 21
0.1289999999999907
 31
0.0
  0
LINE
  5
176
100
AcDbEntity
100
AcDbLine
  8
airfoil
 62
256
370
-1
  6
ByLayer
 10
136.6370000000000005
 20
0.1289999999999907
 30
0.0
 11
133.5509999999999877
 21
0.3360000000000127
 31
0.0
  0
LINE
  5
177
100
AcDbEntity
100
AcDbLine
  8
airfoil
 62
256
370
-1
  6
ByLayer
 10
133.5509999999999877
 20
0.3360000000000127
 30
0.0
 11
129.686000000000007
 21
0.671999999999997
 31
0.0
  0
LINE
  5
178
100
AcDbEntity
100
AcDbLine
  8
airfoil
 62
256
370
-1
  6
ByLayer
 10
129.686000000000007
 20
0.671999999999997
 30
0.0
 11
125.1119999999999948
 21
1.157999999999987
 31
0.0
  0
LINE
  5
179
100
AcDbEntity
100
AcDbLine
  8
airfoil
 62
256
370
-1
  6
ByLayer
 10
125.1119999999999948
 20
1.157999999999987
 30
0.0
 11
119.9200000000000017
 21
1.7940000000000111
 31
0.0
  0
LINE
  5
17A
100
AcDbEntity
100
AcDbLine
  8
airfoil
 62
256
370
-1
  6
ByLayer
 10
119.9200000000000017
 20
1.7940000000000111
 30
0.0
 11
114.2019999999999982
 21
2.563999999999993
 31
0.0
  0
LINE
  5
17B
100
AcDbEntity
100
AcDbLine
  8
airfoil
 62
256
370
-1
  6
ByLayer
 10
114.2019999999999982
 20
2.563999999999993
 30
0.0
 11
108.0510000000000019
 21
3.4370000000000118
 31
0.0
  0
LINE
  5
17C
100
AcDbEntity
100
AcDbLine
  8
airfoil
 62
256
370
-1
  6
ByLayer
 10
108.0510000000000019
 20
3.4370000000000118
 30
0.0
 11
101.554000000000002
 21
4.3799999999999955
 31
0.0
  0
LINE
  5
17D
100
AcDbEntity
100
AcDbLine
  8
airfoil
 62
256
370
-1
  6
ByLayer
 10
101.554000000000002
 20
4.3799999999999955
 30
0.0
 11
94.8020000000000067
 21
5.3480000000000132
 31
0.0
  0
LINE
  5
17E
100
AcDbEntity
100
AcDbLine
  8
airfoil
 62
256
370
-1
  6
ByLayer
 10
94.8020000000000067
 20
5.3480000000000132
 30
0.0
 11
87.8700000000000045
 21
6.2880000000000109
 31
0.0
  0
LINE
  5
17F
100
AcDbEntity
100
AcDbLine
  8
airfoil
 62
256
370
-1
  6
ByLayer
 10
87.8700000000000045
 20
6.2880000000000109
 30
0.0
 11
80.8220000000000027
 21
7.1589999999999918
 31
0.0
  0
LINE
  5
180
100
AcDbEntity
100
AcDbLine
  8
airfoil
 62
256
370
-1
  6
ByLayer
 10
80.8220000000000027
 20
7.1589999999999918
 30
0.0
 11
73.7210000000000036
 21
7.9259999999999877
 31
0.0
  0
LINE
  5
181
100
AcDbEntity
100
AcDbLine
  8
airfoil
 62
256
370
-1
  6
ByLayer
 10
73.7210000000000036
 20
7.9259999999999877
 30
0.0
 11
66.6239999999999952
 21
8.5699999999999932
 31
0.0
  0
LINE
  5
182
100
AcDbEntity
100
AcDbLine
  8
airfoil
 62
256
370
-1
  6
ByLayer
 10
66.6239999999999952
 20
8.5699999999999932
 30
0.0
 11
59.5959999999999965
 21
9.0840000000000032
 31
0.0
  0
LINE
  5
183
100
AcDbEntity
100
AcDbLine
  8
airfoil
 62
256
370
-1
  6
ByLayer
 10
59.5959999999999965
 20
9.0840000000000032
 30
0.0
 11
52.7060000000000031
 21
9.4540000000000077
 31
0.0
  0
LINE
  5
184
100
AcDbEntity
100
AcDbLine
  8
airfoil
 62
256
370
-1
  6
ByLayer
 10
52.7060000000000031
 20
9.4540000000000077
 30
0.0
 11
46.0240000000000009
 21
9.6730000000000018
 31
0.0
  0
LINE
  5
185
100
AcDbEntity
100
AcDbLine
  8
airfoil
 62
256
370
-1
  6
ByLayer
 10
46.0240000000000009
 20
9.6730000000000018
 30
0.0
 11
39.6169999999999973
 21
9.7309999999999945
 31
0.0
  0
LINE
  5
186
100
AcDbEntity
100
AcDbLine
  8
airfoil
 62
256
370
-1
  6
ByLayer
 10
39.6169999999999973
 20
9.7309999999999945
 30
0.0
 11
33.5459999999999994
 21
9.6129999999999995
 31
0.0
  0
LINE
  5
187
100
AcDbEntity
100
AcDbLine
  8
airfoil
 62
256
370
-1
  6
ByLayer
 10
33.5459999999999994
 20
9.6129999999999995
 30
0.0
 11
27.8629999999999995
 21
9.313999999999993
 31
0.0
  0
LINE
  5
188
100
AcDbEntity
100
AcDbLine
  8
airfoil
 62
256
370
-1
  6
ByLayer
 10
27.8629999999999995
 20
9.313999999999993
 30
0.0
 11
22.6149999999999984
 21
8.8360000000000127
 31
0.0
  0
LINE
  5
189
100
AcDbEntity
100
AcDbLine
  8
airfoil
 62
256
370
-1
  6
ByLayer
 10
22.6149999999999984
 20
8.8360000000000127
 30
0.0
 11
17.8449999999999989
 21
8.1819999999999879
 31
0.0
  0
LINE
  5
18A
100
AcDbEntity
100
AcDbLine
  8
airfoil
 62
256
370
-1
  6
ByLayer
 10
17.8449999999999989
 20
8.1819999999999879
 30
0.0
 11
13.5890000000000004
 21
7.3640000000000043
 31
0.0
  0
LINE
  5
18B
100
AcDbEntity
100
AcDbLine
  8
airfoil
 62
256
370
-1
  6
ByLayer
 10
13.5890000000000004
 20
7.3640000000000043
 30
0.0
 11
9.8810000000000002
 21
6.4019999999999868
 31
0.0
  0
LINE
  5
18C
100
AcDbEntity
100
AcDbLine
  8
airfoil
 62
256
370
-1
  6
ByLayer
 10
9.8810000000000002
 20
6.4019999999999868
 30
0.0
 11
6.7450000000000001
 21
5.311000000000007
 31
0.0
  0
LINE
  5
18D
100
AcDbEntity
100
AcDbLine
  8
airfoil
 62
256
370
-1
  6
ByLayer
 10
6.7450000000000001
 20
5.311000000000007
 30
0.0
 11
4.194
 21
4.1239999999999952
 31
0.0
  0
LINE
  5
18E
100
AcDbEntity
100
AcDbLine
  8
airfoil
 62
256
370
-1
  6
ByLayer
 10
4.194
 20
4.1239999999999952
 30
0.0
 11
2.2360000000000002
 21
2.8870000000000005
 31
0.0
  0
LINE
  5
18F
100
AcDbEntity
100
AcDbLine
  8
airfoil
 62
256
370
-1
  6
ByLayer
 10
2.2360000000000002
 20
2.8870000000000005
 30
0.0
 11
0.877
 21
1.6599999999999966
 31
0.0
  0
LINE
  5
190
100
AcDbEntity
100
AcDbLine
  8
airfoil
 62
256
370
-1
  6
ByLayer
 10
0.877
 20
1.6599999999999966
 30
0.0
 11
0.28
 21
0.8429999999999893
 31
0.0
  0
LINE
  5
191
100
AcDbEntity
100
AcDbLine
  8
airfoil
 62
256
370
-1
  6
ByLayer
 10
0.28
 20
0.8429999999999893
 30
0.0
 11
0.127
 21
0.5250000000000057
 31
0.0
  0
LINE
  5
192
100
AcDbEntity
100
AcDbLine
  8
airfoil
 62
256
370
-1
  6
ByLayer
 10
0.127
 20
0.5250000000000057
 30
0.0
 11
0.031
 21
0.2319999999999993
 31
0.0
  0
LINE
  5
193
100
AcDbEntity
100
AcDbLine
  8
airfoil
 62
256
370
-1
  6
ByLayer
 10
0.031
 20
0.2319999999999993
 30
0.0
 11
0.001
 21
0.0529999999999973
 31
0.0
  0
LINE
  5
194
100
AcDbEntity
100
AcDbLine
  8
airfoil
 62
256
370
-1
  6
ByLayer
 10
0.001
 20
0.0529999999999973
 30
0.0
 11
0.008
 21
-0.1080000000000041
 31
0.0
  0
LINE
  5
195
100
AcDbEntity
100
AcDbLine
  8
airfoil
 62
256
370
-1
  6
ByLayer
 10
0.008
 20
-0.1080000000000041
 30
0.0
 11
0.062
 21
-0.2729999999999961
 31
0.0
  0
LINE
  5
196
100
AcDbEntity
100
AcDbLine
  8
airfoil
 62
256
370
-1
  6
ByLayer
 10
0.062
 20
-0.2729999999999961
 30
0.0
 11
0.159
 21
-0.4420000000000073
 31
0.0
  0
LINE
  5
197
100
AcDbEntity
100
AcDbLine
  8
airfoil
 62
256
370
-1
  6
ByLayer
 10
0.159
 20
-0.4420000000000073
 30
0.0
 11
0.37
 21
-0.7050000000000125
 31
0.0
  0
LINE
  5
198
100
AcDbEntity
100
AcDbLine
  8
airfoil
 62
256
370
-1
  6
ByLayer
 10
0.37
 20
-0.7050000000000125
 30
0.0
 11
0.65
 21
-0.9749999999999943
 31
0.0
  0
LINE
  5
199
100
AcDbEntity
100
AcDbLine
  8
airfoil
 62
256
370
-1
  6
ByLayer
 10
0.65
 20
-0.9749999999999943
 30
0.0
 11
0.976
 21
-1.2419999999999902
 31
0.0
  0
LINE
  5
19A
100
AcDbEntity
100
AcDbLine
  8
airfoil
 62
256
370
-1
  6
ByLayer
 10
0.976
 20
-1.2419999999999902
 30
0.0
 11
2.5800000000000001
 21
-2.1630000000000109
 31
0.0
  0
LINE
  5
19B
100
AcDbEntity
100
AcDbLine
  8
airfoil
 62
256
370
-1
  6
ByLayer
 10
2.5800000000000001
 20
-2.1630000000000109
 30
0.0
 11
4.8780000000000001
 21
-3.0459999999999923
 31
0.0
  0
LINE
  5
19C
100
AcDbEntity
100
AcDbLine
  8
airfoil
 62
256
370
-1
  6
ByLayer
 10
4.8780000000000001
 20
-3.0459999999999923
 30
0.0
 11
7.8369999999999997
 21
-3.8509999999999991
 31
0.0
  0
LINE
  5
19D
100
AcDbEntity
100
AcDbLine
  8
airfoil
 62
256
370
-1
  6
ByLayer
 10
7.8369999999999997
 20
-3.8509999999999991
 30
0.0
 11
11.4290000000000003
 21
-4.5430000000000064
 31
0.0
  0
LINE
  5
19E
100
AcDbEntity
100
AcDbLine
  8
airfoil
 62
256
370
-1
  6
ByLayer
 10
11.4290000000000003
 20
-4.5430000000000064
 30
0.0
 11
15.6289999999999996
 21
-5.0949999999999989
 31
0.0
  0
LINE
  5
19F
100
AcDbEntity
100
AcDbLine
  8
airfoil
 62
256
370
-1
  6
ByLayer
 10
15.6289999999999996
 20
-5.0949999999999989
 30
0.0
 11
20.4110000000000014
 21
-5.4890000000000043
 31
0.0
  0
LINE
  5
1A0
100
AcDbEntity
100
AcDbLine
  8
airfoil
 62
256
370
-1
  6
ByLayer
 10
20.4110000000000014
 20
-5.4890000000000043
 30
0.0
 11
25.7420000000000009
 21
-5.7249999999999943
 31
0.0
  0
LINE
  5
1A1
100
AcDbEntity
100
AcDbLine
  8
airfoil
 62
256
370
-1
  6
ByLayer
 10
25.7420000000000009
 20
-5.7249999999999943
 30
0.0
 11
31.5839999999999996
 21
-5.811000000000007
 31
0.0
  0
LINE
  5
1A2
100
AcDbEntity
100
AcDbLine
  8
airfoil
 62
256
370
-1
  6
ByLayer
 10
31.5839999999999996
 20
-5.811000000000007
 30
0.0
 11
37.8819999999999979
 21
-5.7599999999999909
 31
0.0
  0
LINE
  5
1A3
100
AcDbEntity
100
AcDbLine
  8
airfoil
 62
256
370
-1
  6
ByLayer
 10
37.8819999999999979
 20
-5.7599999999999909
 30
0.0
 11
44.5739999999999981
 21
-5.5910000000000082
 31
0.0
  0
LINE
  5
1A4
100
AcDbEntity
100
AcDbLine
  8
airfoil
 62
256
370
-1
  6
ByLayer
 10
44.5739999999999981
 20
-5.5910000000000082
 30
0.0
 11
51.5900000000000034
 21
-5.320999999999998
 31
0.0
  0
LINE
  5
1A5
100
AcDbEntity
100
AcDbLine
  8
airfoil
 62
256
370
-1
  6
ByLayer
 10
51.5900000000000034
 20
-5.320999999999998
 30
0.0
 11
58.8549999999999969
 21
-4.9679999999999893
 31
0.0
  0
LINE
  5
1A6
100
AcDbEntity
100
AcDbLine
  8
airfoil
 62
256
370
-1
  6
ByLayer
 10
58.8549999999999969
 20
-4.9679999999999893
 30
0.0
 11
66.2879999999999967
 21
-4.5560000000000116
 31
0.0
  0
LINE
  5
1A7
100
AcDbEntity
100
AcDbLine
  8
airfoil
 62
256
370
-1
  6
ByLayer
 10
66.2879999999999967
 20
-4.5560000000000116
 30
0.0
 11
73.8010000000000019
 21
-4.1030000000000086
 31
0.0
  0
LINE
  5
1A8
100
AcDbEntity
100
AcDbLine
  8
airfoil
 62
256
370
-1
  6
ByLayer
 10
73.8010000000000019
 20
-4.1030000000000086
 30
0.0
 11
81.3029999999999973
 21
-3.6289999999999907
 31
0.0
  0
LINE
  5
1A9
100
AcDbEntity
100
AcDbLine
  8
airfoil
 62
256
370
-1
  6
ByLayer
 10
81.3029999999999973
 20
-3.6289999999999907
 30
0.0
 11
88.703000000000003
 21
-3.1459999999999866
 31
0.0
  0
LINE
  5
1AA
100
AcDbEntity
100
AcDbLine
  8
airfoil
 62
256
370
-1
  6
ByLayer
 10
88.703000000000003
 20
-3.1459999999999866
 30
0.0
 11
95.9099999999999966
 21
-2.6699999999999875
 31
0.0
  0
LINE
  5
1AB
100
AcDbEntity
100
AcDbLine
  8
airfoil
 62
256
370
-1
  6
ByLayer
 10
95.9099999999999966
 20
-2.6699999999999875
 30
0.0
 11
102.8329999999999984
 21
-2.2160000000000082
 31
0.0
  0
LINE
  5
1AC
100
AcDbEntity
100
AcDbLine
  8
airfoil
 62
256
370
-1
  6
ByLayer
 10
102.8329999999999984
 20
-2.2160000000000082
 30
0.0
 11
109.3889999999999958
 21
-1.7949999999999875
 31
0.0
  0
LINE
  5
1AD
100
AcDbEntity
100
AcDbLine
  8
airfoil
 62
256
370
-1
  6
ByLayer
 10
109.3889999999999958
 20
-1.7949999999999875
 30
0.0
 11
115.4980000000000047
 21
-1.414999999999992
 31
0.0
  0
LINE
  5
1AE
100
AcDbEntity
100
AcDbLine
  8
airfoil
 62
256
370
-1
  6
ByLayer
 10
115.4980000000000047
 20
-1.414999999999992
 30
0.0
 11
121.0840000000000032
 21
-1.085000000000008
 31
0.0
  0
LINE
  5
1AF
100
AcDbEntity
100
AcDbLine
  8
airfoil
 62
256
370
-1
  6
ByLayer
 10
121.0840000000000032
 20
-1.085000000000008
 30
0.0
 11
126.0759999999999934
 21
-0.8060000000000116
 31
0.0
  0
LINE
  5
1B0
100
AcDbEntity
100
AcDbLine
  8
airfoil
 62
256
370
-1
  6
ByLayer
 10
126.0759999999999934
 20
-0.8060000000000116
 30
0.0
 11
130.4110000000000014
 21
-0.578000000000003
 31
0.0
  0
LINE
  5
1B1
100
AcDbEntity
100
AcDbLine
  8
airfoil
 62
256
370
-1
  6
ByLayer
 10
130.4110000000000014
 20
-0.578000000000003
 30
0.0
 11
134.0339999999999918
 21
-0.3940000000000055
 31
0.0
  0
LINE
  5
1B2
100
AcDbEntity
100
AcDbLine
  8
airfoil
 62
256
370
-1
  6
ByLayer
 10
134.0339999999999918
 20
-0.3940000000000055
 30
0.0
 11
136.9000000000000057
 21
-0.2460000000000093
 31
0.0
  0
LINE
  5
1B3
100
AcDbEntity
100
AcDbLine
  8
airfoil
 62
256
370
-1
  6
ByLayer
 10
136.9000000000000057
 20
-0.2460000000000093
 30
0.0
 11
138.9790000000000134
 21
-0.1220000000000141
 31
0.0
  0
LINE
  5
1B4
100
AcDbEntity
100
AcDbLine
  8
airfoil
 62
256
370
-1
  6
ByLayer
 10
138.9790000000000134
 20
-0.1220000000000141
 30
0.0
 11
140.2599999999999909
 21
-0.0320000000000107
 31
0.0
  0
ENDBLK
  5
1B5
100
AcDbEntity
  8
0
100
AcDbBlockEnd
  0
ENDSEC
  0
SECTION
  2
ENTITIES
  0
LINE
  5
1B6
100
AcDbEntity
100
AcDbLine
  8
wing
 62
256
370
-1
  6
ByLayer
 10
0.0
 20
0.0
 30
0.0
 11
750.0
 21
180.0
 31
0.0
  0
LINE
  5
1B7
100
AcDbEntity
100
AcDbLine
  8
wing
 62
256
370
-1
  6
ByLayer
 10
750.0
 20
180.0
 30
0.0
 11
750.0
 21
600.0
 31
0.0
  0
LINE
  5
1B8
100
AcDbEntity
100
AcDbLine
  8
wing
 62
256
370
-1
  6
ByLayer
 10
0.0
 20
260.0
 30
0.0
 11
0.0
 21
0.0
 31
0.0
  0
INSERT
  5
1B9
100
AcDbEntity
100
AcDbBlockReference
  8
wing
 62
256
370
-1
  6
ByLayer
  2
outer wing
 10
1800.0
 20
0.0000000000000061
 30
0.0
 41
1.0
 42
-1.0
 43
1.0
 50
180.0
 44
1.0
 45
1.0
  0
LINE
  5
1BA
100
AcDbEntity
100
AcDbLine
  8
wing
 62
256
370
-1
  6
ByLayer
 10
750.0
 20
600.0
 30
0.0
 11
1050.0
 21
600.0
 31
0.0
  0
LINE
  5
1BB
100
AcDbEntity
100
AcDbLine
  8
wing
 62
256
370
-1
  6
ByLayer
 10
1050.0
 20
600.0
 30
0.0
 11
1050.0
 21
180.0
 31
0.0
  0
LINE
  5
1BC
100
AcDbEntity
100
AcDbLine
  8
wing
 62
256
370
-1
  6
ByLayer
 10
1050.0
 20
180.0
 30
0.0
 11
750.0
 21
180.0
 31
0.0
  0
LINE
  5
1BD
100
AcDbEntity
100
AcDbLine
  8
wing
 62
256
370
-1
  6
ByLayer
 10
750.0
 20
180.0
 30
0.0
 11
750.0
 21
600.0
 31
0.0
  0
LINE
  5
1BE
100
AcDbEntity
100
AcDbLine
  8
blatt
 62
256
370
-1
  6
ByLayer
 10
-300.0
 20
-1200.0
 30
0.0
 11
2670.0
 21
-1200.0
 31
0.0
  0
LINE
  5
1BF
100
AcDbEntity
100
AcDbLine
  8
blatt
 62
256
370
-1
  6
ByLayer
 10
2670.0
 20
-1200.0
 30
0.0
 11
2670.0
 21
900.0
 31
0.0
  0
LINE
  5
1C0
100
AcDbEntity
100
AcDbLine
  8
blatt
 62
256
370
-1
  6
ByLayer
 10
2670.0
 20
900.0
 30
0.0
 11
-300.0
 21
900.0
 31
0.0
  0
LINE
  5
1C1
100
AcDbEntity
100
AcDbLine
  8
blatt
 62
256
370
-1
  6
ByLayer
 10
-300.0
 20
900.0
 30
0.0
 11
-300.0
 21
-1200.0
 31
0.0
  0
LINE
  5
1C2
100
AcDbEntity
100
AcDbLine
  8
blatt
 62
256
370
-1
  6
ByLayer
 10
2670.0
 20
-900.0
 30
0.0
 11
2670.0
 21
-1200.0
 31
0.0
  0
LINE
  5
1C3
100
AcDbEntity
100
AcDbLine
  8
blatt
 62
256
370
-1
  6
ByLayer
 10
2670.0
 20
-1200.0
 30
0.0
 11
1900.0
 21
-1200.0
 31
0.0
  0
MTEXT
  5
1C4
100
AcDbEntity
100
AcDbMText
  8
blatt
 62
256
370
-1
  6
ByLayer
 10
1920.0
 20
-1160.0
 30
0.0
 40
20.0
 41
100.0
 71
1
 72
2
  1
\U+00a9 2013, Simon Wunderlin
  7
iso
 50
0.0
 73
1
 44
1.0
  0
LINE
  5
1C5
100
AcDbEntity
100
AcDbLine
  8
blatt
 62
256
370
-1
  6
ByLayer
 10
1900.0
 20
-1140.0
 30
0.0
 11
2670.0
 21
-1140.0
 31
0.0
  0
LINE
  5
1C6
100
AcDbEntity
100
AcDbLine
  8
blatt
 62
256
370
-1
  6
ByLayer
 10
2340.0
 20
-1140.0
 30
0.0
 11
2340.0
 21
-1200.0
 31
0.0
  0
MTEXT
  5
1C7
100
AcDbEntity
100
AcDbMText
  8
blatt
 62
256
370
-1
  6
ByLayer
 10
1920.0
 20
-1100.0
 30
0.0
 40
20.0
 41
100.0
 71
1
 72
2
  1
Scale: 1:10
  7
iso
 50
0.0
 73
1
 44
1.0
  0
LINE
  5
1C8
100
AcDbEntity
100
AcDbLine
  8
blatt
 62
256
370
-1
  6
ByLayer
 10
1900.0
 20
-1080.0
 30
0.0
 11
2670.0
 21
-1080.0
 31
0.0
  0
LINE
  5
1C9
100
AcDbEntity
100
AcDbLine
  8
blatt
 62
256
370
-1
  6
ByLayer
 10
1900.0
 20
-990.0
 30
0.0
 11
2670.0
 21
-990.0
 31
0.0
  0
LINE
  5
1CA
100
AcDbEntity
100
AcDbLine
  8
blatt
 62
256
370
-1
  6
ByLayer
 10
1900.0
 20
-1080.0
 30
0.0
 11
2670.0
 21
-1080.0
 31
0.0
  0
LINE
  5
1CB
100
AcDbEntity
100
AcDbLine
  8
blatt
 62
256
370
-1
  6
ByLayer
 10
1900.0
 20
-990.0
 30
0.0
 11
1900.0
 21
-1200.0
 31
0.0
  0
LINE
  5
1CC
100
AcDbEntity
100
AcDbLine
  8
wing
 62
256
370
-1
  6
ByLayer
 10
0.0
 20
50.0
 30
0.0
 11
750.0
 21
230.0
 31
0.0
  0
LINE
  5
1CD
100
AcDbEntity
100
AcDbLine
  8
wing
 62
256
370
-1
  6
ByLayer
 10
1050.0
 20
230.0
 30
0.0
 11
1800.0
 21
50.0
 31
0.0
  0
DIMENSION
  5
1CE
100
AcDbEntity
  8
Masse
 62
256
370
-1
  6
ByLayer
100
AcDbDimension
 10
750.0
 20
-100.0
 30
0.0
 11
375.0
 21
-87.5
 31
0.0
 70
0
 71
5
 72
1
 41
1.0
 42
0.0
  1

  3
Standard
100
AcDbAlignedDimension
 13
0.0
 23
0.0
 33
0.0
 14
750.0
 24
180.0
 34
0.0
 50
0.0
100
AcDbRotatedDimension
  0
DIMENSION
  5
1CF
100
AcDbEntity
  8
Masse
 62
256
370
-1
  6
ByLayer
100
AcDbDimension
 10
-100.0
 20
260.0
 30
0.0
 11
-112.5
 21
430.0
 31
0.0
 70
0
 71
5
 72
1
 41
1.0
 42
0.0
  1

  3
Standard
100
AcDbAlignedDimension
 13
750.0
 23
600.0
 33
0.0
 14
0.0
 24
260.0
 34
0.0
 50
90.0
100
AcDbRotatedDimension
  0
DIMENSION
  5
1D0
100
AcDbEntity
  8
Masse
 62
256
370
-1
  6
ByLayer
100
AcDbDimension
 10
-100.0
 20
0.0000000000000122
 30
0.0
 11
-112.5
 21
130.0
 31
0.0
 70
0
 71
5
 72
1
 41
1.0
 42
0.0
  1

  3
Standard
100
AcDbAlignedDimension
 13
0.0
 23
260.0
 33
0.0
 14
0.0
 24
0.0
 34
0.0
 50
90.0
100
AcDbRotatedDimension
  0
DIMENSION
  5
1D1
100
AcDbEntity
  8
Masse
 62
256
370
-1
  6
ByLayer
100
AcDbDimension
 10
-70.0
 20
0.0000000000000086
 30
0.0
 11
-82.5
 21
24.9999999999999964
 31
0.0
 70
0
 71
5
 72
1
 41
1.0
 42
0.0
  1

  3
Standard
100
AcDbAlignedDimension
 13
0.0
 23
50.0
 33
0.0
 14
0.0
 24
0.0
 34
0.0
 50
90.0
100
AcDbRotatedDimension
  0
DIMENSION
  5
1D2
100
AcDbEntity
  8
Masse
 62
256
370
-1
  6
ByLayer
100
AcDbDimension
 10
1050.0
 20
-100.0
 30
0.0
 11
900.0
 21
-87.5
 31
0.0
 70
0
 71
5
 72
1
 41
1.0
 42
0.0
  1

  3
Standard
100
AcDbAlignedDimension
 13
750.0
 23
180.0
 33
0.0
 14
1050.0
 24
180.0
 34
0.0
 50
0.0
100
AcDbRotatedDimension
  0
DIMENSION
  5
1D3
100
AcDbEntity
  8
Masse
 62
256
370
-1
  6
ByLayer
100
AcDbDimension
 10
1800.0
 20
-100.0
 30
0.0
 11
1425.0
 21
-87.5
 31
0.0
 70
0
 71
5
 72
1
 41
1.0
 42
0.0
  1

  3
Standard
100
AcDbAlignedDimension
 13
1050.0
 23
180.0
 33
0.0
 14
1800.0
 24
0.0
 34
0.0
 50
0.0
100
AcDbRotatedDimension
  0
DIMENSION
  5
1D4
100
AcDbEntity
  8
Masse
 62
256
370
-1
  6
ByLayer
100
AcDbDimension
 10
800.0
 20
180.0
 30
0.0
 11
787.5
 21
90.0
 31
0.0
 70
0
 71
5
 72
1
 41
1.0
 42
0.0
  1

  3
Standard
100
AcDbAlignedDimension
 13
0.0
 23
0.0
 33
0.0
 14
750.0
 24
180.0
 34
0.0
 50
90.0
100
AcDbRotatedDimension
  0
DIMENSION
  5
1D5
100
AcDbEntity
  8
Masse
 62
256
370
-1
  6
ByLayer
100
AcDbDimension
 10
800.0
 20
600.0
 30
0.0
 11
787.5
 21
390.0
 31
0.0
 70
0
 71
5
 72
1
 41
1.0
 42
0.0
  1

  3
Standard
100
AcDbAlignedDimension
 13
750.0
 23
180.0
 33
0.0
 14
750.0
 24
600.0
 34
0.0
 50
90.0
100
AcDbRotatedDimension
  0
LINE
  5
1D6
100
AcDbEntity
100
AcDbLine
  8
helpers
 62
256
370
-1
  6
ByLayer
 10
750.3031794871818647
 20
599.906461538463418
 30
0.0
 11
0.0
 21
260.3587149361897559
 31
0.0
  0
LINE
  5
1D7
100
AcDbEntity
100
AcDbLine
  8
helpers
 62
256
370
-1
  6
ByLayer
 10
1.3443282051282195
 20
0.0
 30
0.0
 11
749.4167294687264302
 21
180.0582443323097266
 31
0.0
  0
LINE
  5
1D8
100
AcDbEntity
100
AcDbLine
  8
helpers
 62
256
370
-1
  6
ByLayer
 10
600.0
 20
170.0
 30
0.0
 11
700.0
 21
170.0
 31
0.0
  0
INSERT
  5
1D9
100
AcDbEntity
100
AcDbBlockReference
  8
wing MKII
 62
256
370
-1
  6
ByLayer
  2
outer wing MK II
 10
0.0
 20
0.0
 30
0.0
  0
INSERT
  5
1DA
100
AcDbEntity
100
AcDbBlockReference
  8
wing MKII
 62
256
370
-1
  6
ByLayer
  2
outer wing MK II
 10
1400.0
 20
0.0
 30
0.0
 41
1.0
 42
-1.0
 43
1.0
 50
180.0
 44
1.0
 45
1.0
  0
DIMENSION
  5
1DB
100
AcDbEntity
  8
Masse MKII
 62
256
370
-1
  6
ByLayer
100
AcDbDimension
 10
700.0
 20
-100.0
 30
0.0
 11
350.0
 21
-87.5
 31
0.0
 70
0
 71
5
 72
1
 41
1.0
 42
0.0
  1

  3
Standard
100
AcDbAlignedDimension
 13
0.0
 23
0.0
 33
0.0
 14
700.0
 24
170.0
 34
0.0
 50
0.0
100
AcDbRotatedDimension
  0
DIMENSION
  5
1DC
100
AcDbEntity
  8
Masse MKII
 62
256
370
-1
  6
ByLayer
100
AcDbDimension
 10
1400.0
 20
-100.0
 30
0.0
 11
1050.0
 21
-87.5
 31
0.0
 70
0
 71
5
 72
1
 41
1.0
 42
0.0
  1

  3
Standard
100
AcDbAlignedDimension
 13
700.0
 23
170.0
 33
0.0
 14
1400.0
 24
0.0
 34
0.0
 50
0.0
100
AcDbRotatedDimension
  0
DIMENSION
  5
1DD
100
AcDbEntity
  8
Masse MKII
 62
256
370
-1
  6
ByLayer
100
AcDbDimension
 10
-100.0
 20
330.0
 30
0.0
 11
-112.5
 21
165.0
 31
0.0
 70
0
 71
5
 72
1
 41
1.0
 42
0.0
  1

  3
Standard
100
AcDbAlignedDimension
 13
0.0
 23
0.0
 33
0.0
 14
0.0
 24
330.0
 34
0.0
 50
90.0
100
AcDbRotatedDimension
  0
DIMENSION
  5
1DE
100
AcDbEntity
  8
Masse MKII
 62
256
370
-1
  6
ByLayer
100
AcDbDimension
 10
-100.0
 20
710.0
 30
0.0
 11
-112.5
 21
520.0
 31
0.0
 70
0
 71
5
 72
1
 41
1.0
 42
0.0
  1

  3
Standard
100
AcDbAlignedDimension
 13
0.0
 23
330.0
 33
0.0
 14
700.0
 24
710.0
 34
0.0
 50
90.0
100
AcDbRotatedDimension
  0
DIMENSION
  5
1DF
100
AcDbEntity
  8
Masse MKII
 62
256
370
-1
  6
ByLayer
100
AcDbDimension
 10
1500.0
 20
-0.000000000000098
 30
0.0
 11
1487.5
 21
355.0000000000000568
 31
0.0
 70
0
 71
5
 72
1
 41
1.0
 42
0.0
  1

  3
Standard
100
AcDbAlignedDimension
 13
700.0
 23
710.0
 33
0.0
 14
700.0
 24
0.0
 34
0.0
 50
90.0
100
AcDbRotatedDimension
  0
DIMENSION
  5
1E0
100
AcDbEntity
  8
Masse MKII
 62
256
370
-1
  6
ByLayer
100
AcDbDimension
 10
1400.0
 20
-140.0
 30
0.0
 11
700.0
 21
-127.5
 31
0.0
 70
0
 71
5
 72
1
 41
1.0
 42
0.0
  1

  3
Standard
100
AcDbAlignedDimension
 13
0.0
 23
0.0
 33
0.0
 14
1400.0
 24
0.0
 34
0.0
 50
0.0
100
AcDbRotatedDimension
  0
MTEXT
  5
1E1
100
AcDbEntity
100
AcDbMText
  8
blatt
 62
256
370
-1
  6
ByLayer
 10
1920.0
 20
-1010.0
 30
0.0
 40
40.0
 41
100.0
 71
1
 72
2
  1
Vanguard MKII.1
  7
iso
 50
0.0
 73
1
 44
1.0
  0
MTEXT
  5
1E2
100
AcDbEntity
100
AcDbMText
  8
blatt
 62
256
370
-1
  6
ByLayer
 10
2360.0
 20
-1160.0
 30
0.0
 40
20.0
 41
100.0
 71
1
 72
2
  1
Rev. 1.0, 2013-08-03
  7
iso
 50
0.0
 73
1
 44
1.0
  0
LINE
  5
1E3
100
AcDbEntity
100
AcDbLine
  8
helpers
 62
256
370
-1
  6
ByLayer
 10
500.0
 20
170.0
 30
0.0
 11
900.0
 21
170.0
 31
0.0
  0
LINE
  5
1E4
100
AcDbEntity
100
AcDbLine
  8
helpers
 62
256
370
-1
  6
ByLayer
 10
525.0
 20
0.0
 30
0.0
 11
525.0
 21
200.0
 31
0.0
  0
LINE
  5
1E5
100
AcDbEntity
100
AcDbLine
  8
helpers
 62
256
370
-1
  6
ByLayer
 10
875.0
 20
0.0
 30
0.0
 11
875.0
 21
200.0
 31
0.0
  0
LINE
  5
1E6
100
AcDbEntity
100
AcDbLine
  8
wing MKII
 62
256
370
-1
  6
ByLayer
 10
525.0
 20
127.5000000000000142
 30
0.0
 11
525.0
 21
200.0
 31
0.0
  0
LINE
  5
1E7
100
AcDbEntity
100
AcDbLine
  8
wing MKII
 62
256
370
-1
  6
ByLayer
 10
525.0
 20
200.0
 30
0.0
 11
875.0
 21
200.0
 31
0.0
  0
LINE
  5
1E8
100
AcDbEntity
100
AcDbLine
  8
wing MKII
 62
256
370
-1
  6
ByLayer
 10
875.0
 20
200.0
 30
0.0
 11
875.0
 21
127.5
 31
0.0
  0
LINE
  5
1E9
100
AcDbEntity
100
AcDbLine
  8
wing MKII.1
 62
256
370
-1
  6
ByLayer
 10
0.0
 20
0.0
 30
0.0
 11
525.0
 21
127.5000000000000142
 31
0.0
  0
LINE
  5
1EA
100
AcDbEntity
100
AcDbLine
  8
wing MKII.1
 62
256
370
-1
  6
ByLayer
 10
525.0
 20
127.5000000000000142
 30
0.0
 11
525.0
 21
200.0
 31
0.0
  0
LINE
  5
1EB
100
AcDbEntity
100
AcDbLine
  8
wing MKII.1
 62
256
370
-1
  6
ByLayer
 10
525.0
 20
200.0
 30
0.0
 11
875.0
 21
200.0
 31
0.0
  0
LINE
  5
1EC
100
AcDbEntity
100
AcDbLine
  8
wing MKII.1
 62
256
370
-1
  6
ByLayer
 10
875.0
 20
200.0
 30
0.0
 11
875.0
 21
127.5000000000000142
 31
0.0
  0
LINE
  5
1ED
100
AcDbEntity
100
AcDbLine
  8
wing MKII.1
 62
256
370
-1
  6
ByLayer
 10
875.0
 20
127.5000000000000142
 30
0.0
 11
1400.0
 21
0.0
 31
0.0
  0
LINE
  5
1EE
100
AcDbEntity
100
AcDbLine
  8
wing MKII.1
 62
256
370
-1
  6
ByLayer
 10
1400.0
 20
0.0
 30
0.0
 11
1400.0
 21
330.0
 31
0.0
  0
LINE
  5
1EF
100
AcDbEntity
100
AcDbLine
  8
wing MKII.1
 62
256
370
-1
  6
ByLayer
 10
1400.0
 20
330.0
 30
0.0
 11
700.0
 21
710.0
 31
0.0
  0
LINE
  5
1F0
100
AcDbEntity
100
AcDbLine
  8
wing MKII.1
 62
256
370
-1
  6
ByLayer
 10
700.0
 20
710.0
 30
0.0
 11
0.0
 21
330.0
 31
0.0
  0
LINE
  5
1F1
100
AcDbEntity
100
AcDbLine
  8
wing MKII.1
 62
256
370
-1
  6
ByLayer
 10
0.0
 20
330.0
 30
0.0
 11
0.0
 21
0.0
 31
0.0
  0
LINE
  5
1F2
100
AcDbEntity
100
AcDbLine
  8
wing MKII.1
 62
256
370
-1
  6
ByLayer
 10
0.0
 20
0.0
 30
0.0
 11
0.0
 21
0.0
 31
0.0
  0
LINE
  5
1F3
100
AcDbEntity
100
AcDbLine
  8
wing MKII.1 helpers
 62
256
370
-1
  6
ByLayer
 10
700.0
 20
170.0
 30
0.0
 11
858.5
 21
131.5000000000000284
 31
0.0
  0
LINE
  5
1F4
100
AcDbEntity
100
AcDbLine
  8
wing MKII.1 helpers
 62
256
370
-1
  6
ByLayer
 10
700.0
 20
170.0
 30
0.0
 11
544.3999999999999773
 21
132.2000000000000171
 31
0.0
  0
LINE
  5
1F5
100
AcDbEntity
100
AcDbLine
  8
wing MKII.1 helpers
 62
256
370
-1
  6
ByLayer
 10
700.0
 20
170.0
 30
0.0
 11
700.0
 21
710.0
 31
0.0
  0
LINE
  5
1F6
100
AcDbEntity
100
AcDbLine
  8
helpers
 62
256
370
-1
  6
ByLayer
 10
250.0
 20
0.0
 30
0.0
 11
250.0
 21
100.0
 31
0.0
  0
LINE
  5
1F7
100
AcDbEntity
100
AcDbLine
  8
helpers
 62
256
370
-1
  6
ByLayer
 10
500.0
 20
0.0
 30
0.0
 11
500.0
 21
150.0
 31
0.0
  0
LINE
  5
1F8
100
AcDbEntity
100
AcDbLine
  8
helpers
 62
256
370
-1
  6
ByLayer
 10
700.0
 20
220.0
 30
0.0
 11
0.0
 21
50.0
 31
0.0
  0
LINE
  5
1F9
100
AcDbEntity
100
AcDbLine
  8
helpers
 62
256
370
-1
  6
ByLayer
 10
700.0
 20
220.0
 30
0.0
 11
1400.0
 21
50.0
 31
0.0
  0
LINE
  5
1FA
100
AcDbEntity
100
AcDbLine
  8
wing MKII.1
 62
256
370
-1
  6
ByLayer
 10
-0.0000000000000004
 20
50.0
 30
0.0
 11
525.0
 21
177.5
 31
0.0
  0
LINE
  5
1FB
100
AcDbEntity
100
AcDbLine
  8
wing MKII.1
 62
256
370
-1
  6
ByLayer
 10
875.0
 20
177.5000000000000284
 30
0.0
 11
1400.0
 21
50.0
 31
0.0
  0
LINE
  5
1FC
100
AcDbEntity
100
AcDbLine
  8
wing MKII.1
 62
256
370
-1
  6
ByLayer
 10
250.0
 20
60.6999999999999957
 30
0.0
 11
250.0
 21
110.7139999999999986
 31
0.0
  0
LINE
  5
1FD
100
AcDbEntity
100
AcDbLine
  8
helpers
 62
256
370
-1
  6
ByLayer
 10
1150.0
 20
0.0
 30
0.0
 11
1150.0
 21
200.0
 31
0.0
  0
LINE
  5
1FE
100
AcDbEntity
100
AcDbLine
  8
helpers
 62
256
370
-1
  6
ByLayer
 10
900.0
 20
0.0
 30
0.0
 11
900.0
 21
200.0
 31
0.0
  0
LINE
  5
1FF
100
AcDbEntity
100
AcDbLine
  8
wing MKII.1
 62
256
370
-1
  6
ByLayer
 10
500.0000000000000568
 20
121.4299999999999926
 30
0.0
 11
500.0
 21
171.4000000000000057
 31
0.0
  0
LINE
  5
200
100
AcDbEntity
100
AcDbLine
  8
wing MKII.1
 62
256
370
-1
  6
ByLayer
 10
900.0000000000001137
 20
121.4300000000000068
 30
0.0
 11
900.0
 21
171.4000000000000057
 31
0.0
  0
LINE
  5
201
100
AcDbEntity
100
AcDbLine
  8
wing MKII.1
 62
256
370
-1
  6
ByLayer
 10
1150.0000000000002274
 20
110.7000000000000171
 30
0.0
 11
1150.0
 21
61.0
 31
0.0
  0
DIMENSION
  5
202
100
AcDbEntity
  8
Masse MKII
 62
256
370
-1
  6
ByLayer
100
AcDbDimension
 10
525.0
 20
250.0
 30
0.0
 11
262.5
 21
262.5
 31
0.0
 70
0
 71
5
 72
1
 41
1.0
 42
0.0
  1

  3
Standard
100
AcDbAlignedDimension
 13
0.0
 23
200.0
 33
0.0
 14
525.0
 24
200.0
 34
0.0
 50
0.0
100
AcDbRotatedDimension
  0
DIMENSION
  5
203
100
AcDbEntity
  8
Masse MKII
 62
256
370
-1
  6
ByLayer
100
AcDbDimension
 10
700.0
 20
250.0
 30
0.0
 11
612.5
 21
262.5
 31
0.0
 70
0
 71
5
 72
1
 41
1.0
 42
0.0
  1

  3
Standard
100
AcDbAlignedDimension
 13
525.0
 23
200.0
 33
0.0
 14
700.0
 24
200.0
 34
0.0
 50
0.0
100
AcDbRotatedDimension
  0
DIMENSION
  5
204
100
AcDbEntity
  8
Masse MKII
 62
256
370
-1
  6
ByLayer
100
AcDbDimension
 10
875.0
 20
250.0
 30
0.0
 11
787.5
 21
262.5
 31
0.0
 70
0
 71
5
 72
1
 41
1.0
 42
0.0
  1

  3
Standard
100
AcDbAlignedDimension
 13
700.0
 23
200.0
 33
0.0
 14
875.0
 24
200.0
 34
0.0
 50
0.0
100
AcDbRotatedDimension
  0
DIMENSION
  5
205
100
AcDbEntity
  8
Masse MKII
 62
256
370
-1
  6
ByLayer
100
AcDbDimension
 10
1400.0
 20
250.0
 30
0.0
 11
1137.5
 21
262.5
 31
0.0
 70
0
 71
5
 72
1
 41
1.0
 42
0.0
  1

  3
Standard
100
AcDbAlignedDimension
 13
875.0
 23
200.0
 33
0.0
 14
1400.0
 24
200.0
 34
0.0
 50
0.0
100
AcDbRotatedDimension
  0
DIMENSION
  5
206
100
AcDbEntity
  8
Masse MKII
 62
256
370
-1
  6
ByLayer
100
AcDbDimension
 10
250.0
 20
-60.0
 30
0.0
 11
125.0
 21
-47.5
 31
0.0
 70
0
 71
5
 72
1
 41
1.0
 42
0.0
  1

  3
Standard
100
AcDbAlignedDimension
 13
0.0
 23
0.0
 33
0.0
 14
250.0
 24
60.0
 34
0.0
 50
0.0
100
AcDbRotatedDimension
  0
DIMENSION
  5
207
100
AcDbEntity
  8
Masse MKII
 62
256
370
-1
  6
ByLayer
100
AcDbDimension
 10
500.0
 20
-60.0
 30
0.0
 11
375.0
 21
-47.5
 31
0.0
 70
0
 71
5
 72
1
 41
1.0
 42
0.0
  1

  3
Standard
100
AcDbAlignedDimension
 13
250.0
 23
60.0
 33
0.0
 14
500.0
 24
120.0
 34
0.0
 50
0.0
100
AcDbRotatedDimension
  0
DIMENSION
  5
208
100
AcDbEntity
  8
Masse MKII
 62
256
370
-1
  6
ByLayer
100
AcDbDimension
 10
750.0
 20
170.0
 30
0.0
 11
737.5
 21
85.0
 31
0.0
 70
0
 71
5
 72
1
 41
1.0
 42
0.0
  1

  3
Standard
100
AcDbAlignedDimension
 13
700.0
 23
0.0
 33
0.0
 14
700.0
 24
170.0
 34
0.0
 50
90.0
100
AcDbRotatedDimension
  0
DIMENSION
  5
209
100
AcDbEntity
  8
Masse MKII
 62
256
370
-1
  6
ByLayer
100
AcDbDimension
 10
780.0
 20
200.0
 30
0.0
 11
767.5
 21
100.0
 31
0.0
 70
0
 71
5
 72
1
 41
1.0
 42
0.0
  1

  3
Standard
100
AcDbAlignedDimension
 13
700.0
 23
0.0
 33
0.0
 14
700.0
 24
200.0
 34
0.0
 50
90.0
100
AcDbRotatedDimension
  0
DIMENSION
  5
20A
100
AcDbEntity
  8
Masse MKII
 62
256
370
-1
  6
ByLayer
100
AcDbDimension
 10
750.0
 20
710.0
 30
0.0
 11
737.5
 21
440.0
 31
0.0
 70
0
 71
5
 72
1
 41
1.0
 42
0.0
  1

  3
Standard
100
AcDbAlignedDimension
 13
700.0
 23
170.0
 33
0.0
 14
700.0
 24
710.0
 34
0.0
 50
90.0
100
AcDbRotatedDimension
  0
LINE
  5
20B
100
AcDbEntity
100
AcDbLine
  8
airfoil
 62
256
370
-1
  6
ByLayer
 10
0.1488791890940426
 20
-1010.0217632934699168
 30
0.0
 11
-19.8511208109059574
 21
-1010.0217632934699168
 31
0.0
  0
LINE
  5
20C
100
AcDbEntity
100
AcDbLine
  8
airfoil
 62
256
370
-1
  6
ByLayer
 10
420.148879189094032
 20
-1010.0217632934699168
 30
0.0
 11
420.148879189094032
 21
-1010.0217632934699168
 31
0.0
  0
LINE
  5
20D
100
AcDbEntity
100
AcDbLine
  8
airfoil
 62
256
370
-1
  6
ByLayer
 10
620.148879189094032
 20
-1010.0217632934699168
 30
0.0
 11
620.148879189094032
 21
-1010.0217632934699168
 31
0.0
  0
LINE
  5
20E
100
AcDbEntity
100
AcDbLine
  8
helpers
 62
256
370
-1
  6
ByLayer
 10
0.0000000000000036
 20
-1110.0
 30
0.0
 11
0.0000000000000036
 21
-710.0
 31
0.0
  0
LINE
  5
20F
100
AcDbEntity
100
AcDbLine
  8
helpers
 62
256
370
-1
  6
ByLayer
 10
540.0
 20
-1110.0
 30
0.0
 11
540.0
 21
-710.0
 31
0.0
  0
LINE
  5
210
100
AcDbEntity
100
AcDbLine
  8
helpers
 62
256
370
-1
  6
ByLayer
 10
710.0
 20
-1110.0
 30
0.0
 11
710.0
 21
-710.0
 31
0.0
  0
INSERT
  5
211
100
AcDbEntity
100
AcDbBlockReference
  8
airfoil
 62
256
370
-1
  6
ByLayer
  2
mh-64-li 10% inner
 10
0.0000000000000036
 20
-1010.0
 30
0.0
 41
4.5000000010000001
 42
4.5000000010000001
 43
1.0
  0
DIMENSION
  5
212
100
AcDbEntity
  8
Masse MKII
 62
256
370
-1
  6
ByLayer
100
AcDbDimension
 10
100.0
 20
-1025.9000000000000909
 30
0.0
 11
87.5
 21
-1002.5000000000001137
 31
0.0
 70
0
 71
5
 72
1
 41
1.0
 42
0.0
  1

  3
Standard
100
AcDbAlignedDimension
 13
152.5000000000000284
 23
-979.1000000000001364
 33
0.0
 14
120.2000000000000171
 24
-1025.9000000000000909
 34
0.0
 50
90.0
100
AcDbRotatedDimension
  0
LINE
  5
213
100
AcDbEntity
100
AcDbLine
  8
airfoil
 62
256
370
-1
  6
ByLayer
 10
-19.9999999999999964
 20
-1040.0
 30
0.0
 11
-19.9999999999999964
 21
-970.0
 31
0.0
  0
LINE
  5
214
100
AcDbEntity
100
AcDbLine
  8
airfoil
 62
256
370
-1
  6
ByLayer
 10
-19.9999999999999964
 20
-970.0
 30
0.0
 11
730.0
 21
-970.0
 31
0.0
  0
LINE
  5
215
100
AcDbEntity
100
AcDbLine
  8
airfoil
 62
256
370
-1
  6
ByLayer
 10
730.0
 20
-970.0
 30
0.0
 11
730.0
 21
-1040.0
 31
0.0
  0
LINE
  5
216
100
AcDbEntity
100
AcDbLine
  8
airfoil
 62
256
370
-1
  6
ByLayer
 10
730.0
 20
-1040.0
 30
0.0
 11
-19.9999999999999964
 21
-1040.0
 31
0.0
  0
LINE
  5
217
100
AcDbEntity
100
AcDbLine
  8
airfoil
 62
256
370
-1
  6
ByLayer
 10
-19.9999999999999964
 20
-1040.0
 30
0.0
 11
-19.9999999999999964
 21
-1040.0
 31
0.0
  0
LINE
  5
218
100
AcDbEntity
100
AcDbLine
  8
airfoil
 62
256
370
-1
  6
ByLayer
 10
540.0
 20
-1010.0
 30
0.0
 11
730.0
 21
-1010.0
 31
0.0
  0
DIMENSION
  5
219
100
AcDbEntity
  8
Masse MKII
 62
256
370
-1
  6
ByLayer
100
AcDbDimension
 10
760.0
 20
-1010.0
 30
0.0
 11
747.5
 21
-990.0
 31
0.0
 70
0
 71
5
 72
1
 41
1.0
 42
0.0
  1

  3
Standard
100
AcDbAlignedDimension
 13
730.0
 23
-970.0
 33
0.0
 14
730.0
 24
-1010.0
 34
0.0
 50
90.0
100
AcDbRotatedDimension
  0
DIMENSION
  5
21A
100
AcDbEntity
  8
Masse MKII
 62
256
370
-1
  6
ByLayer
100
AcDbDimension
 10
760.0
 20
-1040.0
 30
0.0
 11
747.5
 21
-1025.0
 31
0.0
 70
0
 71
5
 72
1
 41
1.0
 42
0.0
  1

  3
Standard
100
AcDbAlignedDimension
 13
730.0
 23
-1010.0
 33
0.0
 14
730.0
 24
-1040.0
 34
0.0
 50
90.0
100
AcDbRotatedDimension
  0
DIMENSION
  5
21B
100
AcDbEntity
  8
Masse MKII
 62
256
370
-1
  6
ByLayer
100
AcDbDimension
 10
0.0000000000000017
 20
-1070.0
 30
0.0
 11
-9.9999999999999964
 21
-1057.5
 31
0.0
 70
0
 71
5
 72
1
 41
1.0
 42
0.0
  1

  3
Standard
100
AcDbAlignedDimension
 13
-19.9999999999999964
 23
-1040.0
 33
0.0
 14
0.0000000000000036
 24
-1040.0
 34
0.0
 50
0.0
100
AcDbRotatedDimension
  0
DIMENSION
  5
21C
100
AcDbEntity
  8
Masse MKII
 62
256
370
-1
  6
ByLayer
100
AcDbDimension
 10
540.0
 20
-1070.0
 30
0.0
 11
270.0
 21
-1057.5
 31
0.0
 70
0
 71
5
 72
1
 41
1.0
 42
0.0
  1

  3
Standard
100
AcDbAlignedDimension
 13
0.0000000000000036
 23
-1040.0
 33
0.0
 14
540.0
 24
-1040.0
 34
0.0
 50
0.0
100
AcDbRotatedDimension
  0
DIMENSION
  5
21D
100
AcDbEntity
  8
Masse MKII
 62
256
370
-1
  6
ByLayer
100
AcDbDimension
 10
710.0
 20
-1070.0
 30
0.0
 11
625.0
 21
-1057.5
 31
0.0
 70
0
 71
5
 72
1
 41
1.0
 42
0.0
  1

  3
Standard
100
AcDbAlignedDimension
 13
540.0
 23
-1040.0
 33
0.0
 14
710.0
 24
-1040.0
 34
0.0
 50
0.0
100
AcDbRotatedDimension
  0
DIMENSION
  5
21E
100
AcDbEntity
  8
Masse MKII
 62
256
370
-1
  6
ByLayer
100
AcDbDimension
 10
730.0
 20
-1070.0
 30
0.0
 11
720.0
 21
-1057.5
 31
0.0
 70
0
 71
5
 72
1
 41
1.0
 42
0.0
  1

  3
Standard
100
AcDbAlignedDimension
 13
710.0
 23
-1040.0
 33
0.0
 14
730.0
 24
-1040.0
 34
0.0
 50
0.0
100
AcDbRotatedDimension
  0
DIMENSION
  5
21F
100
AcDbEntity
  8
Masse MKII
 62
256
370
-1
  6
ByLayer
100
AcDbDimension
 10
-20.0
 20
-1100.0
 30
0.0
 11
355.0
 21
-1087.5
 31
0.0
 70
0
 71
5
 72
1
 41
1.0
 42
0.0
  1

  3
Standard
100
AcDbAlignedDimension
 13
730.0
 23
-1040.0
 33
0.0
 14
-19.9999999999999964
 24
-1040.0
 34
0.0
 50
0.0
100
AcDbRotatedDimension
  0
MTEXT
  5
220
100
AcDbEntity
100
AcDbMText
  8
airfoil
 62
256
370
-1
  6
ByLayer
 10
0.0
 20
-740.0
 30
0.0
 40
20.0
 41
100.0
 71
1
 72
2
  1
MH-64-li 10%
  7
iso
 50
0.0
 73
1
 44
1.0
  0
LINE
  5
221
100
AcDbEntity
100
AcDbLine
  8
airfoil
 62
256
370
-1
  6
ByLayer
 10
0.1488791890940426
 20
-500.0217632934699168
 30
0.0
 11
-19.8511208109059574
 21
-500.0217632934699168
 31
0.0
  0
LINE
  5
222
100
AcDbEntity
100
AcDbLine
  8
airfoil
 62
256
370
-1
  6
ByLayer
 10
420.148879189094032
 20
-500.0217632934699168
 30
0.0
 11
420.148879189094032
 21
-500.0217632934699168
 31
0.0
  0
LINE
  5
223
100
AcDbEntity
100
AcDbLine
  8
airfoil
 62
256
370
-1
  6
ByLayer
 10
620.148879189094032
 20
-500.0217632934699168
 30
0.0
 11
620.148879189094032
 21
-500.0217632934699168
 31
0.0
  0
LINE
  5
224
100
AcDbEntity
100
AcDbLine
  8
helpers
 62
256
370
-1
  6
ByLayer
 10
0.0000000000000036
 20
-600.0
 30
0.0
 11
0.0000000000000036
 21
-200.0
 31
0.0
  0
LINE
  5
225
100
AcDbEntity
100
AcDbLine
  8
helpers
 62
256
370
-1
  6
ByLayer
 10
540.0
 20
-600.0
 30
0.0
 11
540.0
 21
-200.0
 31
0.0
  0
LINE
  5
226
100
AcDbEntity
100
AcDbLine
  8
helpers
 62
256
370
-1
  6
ByLayer
 10
710.0
 20
-600.0
 30
0.0
 11
710.0
 21
-200.0
 31
0.0
  0
LINE
  5
227
100
AcDbEntity
100
AcDbLine
  8
airfoil
 62
256
370
-1
  6
ByLayer
 10
-19.9999999999999964
 20
-530.0
 30
0.0
 11
-19.9999999999999964
 21
-460.0
 31
0.0
  0
LINE
  5
228
100
AcDbEntity
100
AcDbLine
  8
airfoil
 62
256
370
-1
  6
ByLayer
 10
-19.9999999999999964
 20
-460.0
 30
0.0
 11
730.0
 21
-460.0
 31
0.0
  0
LINE
  5
229
100
AcDbEntity
100
AcDbLine
  8
airfoil
 62
256
370
-1
  6
ByLayer
 10
730.0
 20
-460.0
 30
0.0
 11
730.0
 21
-530.0
 31
0.0
  0
LINE
  5
22A
100
AcDbEntity
100
AcDbLine
  8
airfoil
 62
256
370
-1
  6
ByLayer
 10
730.0
 20
-530.0
 30
0.0
 11
-19.9999999999999964
 21
-530.0
 31
0.0
  0
LINE
  5
22B
100
AcDbEntity
100
AcDbLine
  8
airfoil
 62
256
370
-1
  6
ByLayer
 10
-19.9999999999999964
 20
-530.0
 30
0.0
 11
-19.9999999999999964
 21
-530.0
 31
0.0
  0
LINE
  5
22C
100
AcDbEntity
100
AcDbLine
  8
airfoil
 62
256
370
-1
  6
ByLayer
 10
540.0
 20
-500.0
 30
0.0
 11
730.0
 21
-500.0
 31
0.0
  0
DIMENSION
  5
22D
100
AcDbEntity
  8
Masse MKII
 62
256
370
-1
  6
ByLayer
100
AcDbDimension
 10
760.0
 20
-500.0
 30
0.0
 11
747.5
 21
-480.0
 31
0.0
 70
0
 71
5
 72
1
 41
1.0
 42
0.0
  1

  3
Standard
100
AcDbAlignedDimension
 13
730.0
 23
-460.0
 33
0.0
 14
730.0
 24
-500.0
 34
0.0
 50
90.0
100
AcDbRotatedDimension
  0
DIMENSION
  5
22E
100
AcDbEntity
  8
Masse MKII
 62
256
370
-1
  6
ByLayer
100
AcDbDimension
 10
760.0
 20
-530.0
 30
0.0
 11
747.5
 21
-515.0
 31
0.0
 70
0
 71
5
 72
1
 41
1.0
 42
0.0
  1

  3
Standard
100
AcDbAlignedDimension
 13
730.0
 23
-500.0
 33
0.0
 14
730.0
 24
-530.0
 34
0.0
 50
90.0
100
AcDbRotatedDimension
  0
DIMENSION
  5
22F
100
AcDbEntity
  8
Masse MKII
 62
256
370
-1
  6
ByLayer
100
AcDbDimension
 10
0.0000000000000017
 20
-560.0
 30
0.0
 11
-9.9999999999999964
 21
-547.5
 31
0.0
 70
0
 71
5
 72
1
 41
1.0
 42
0.0
  1

  3
Standard
100
AcDbAlignedDimension
 13
-19.9999999999999964
 23
-530.0
 33
0.0
 14
0.0000000000000036
 24
-530.0
 34
0.0
 50
0.0
100
AcDbRotatedDimension
  0
DIMENSION
  5
230
100
AcDbEntity
  8
Masse MKII
 62
256
370
-1
  6
ByLayer
100
AcDbDimension
 10
540.0
 20
-560.0
 30
0.0
 11
270.0
 21
-547.5
 31
0.0
 70
0
 71
5
 72
1
 41
1.0
 42
0.0
  1

  3
Standard
100
AcDbAlignedDimension
 13
0.0000000000000036
 23
-530.0
 33
0.0
 14
540.0
 24
-530.0
 34
0.0
 50
0.0
100
AcDbRotatedDimension
  0
DIMENSION
  5
231
100
AcDbEntity
  8
Masse MKII
 62
256
370
-1
  6
ByLayer
100
AcDbDimension
 10
710.0
 20
-560.0
 30
0.0
 11
625.0
 21
-547.5
 31
0.0
 70
0
 71
5
 72
1
 41
1.0
 42
0.0
  1

  3
Standard
100
AcDbAlignedDimension
 13
540.0
 23
-530.0
 33
0.0
 14
710.0
 24
-530.0
 34
0.0
 50
0.0
100
AcDbRotatedDimension
  0
DIMENSION
  5
232
100
AcDbEntity
  8
Masse MKII
 62
256
370
-1
  6
ByLayer
100
AcDbDimension
 10
730.0
 20
-560.0
 30
0.0
 11
720.0
 21
-547.5
 31
0.0
 70
0
 71
5
 72
1
 41
1.0
 42
0.0
  1

  3
Standard
100
AcDbAlignedDimension
 13
710.0
 23
-530.0
 33
0.0
 14
730.0
 24
-530.0
 34
0.0
 50
0.0
100
AcDbRotatedDimension
  0
DIMENSION
  5
233
100
AcDbEntity
  8
Masse MKII
 62
256
370
-1
  6
ByLayer
100
AcDbDimension
 10
-20.0
 20
-590.0
 30
0.0
 11
355.0
 21
-577.5
 31
0.0
 70
0
 71
5
 72
1
 41
1.0
 42
0.0
  1

  3
Standard
100
AcDbAlignedDimension
 13
730.0
 23
-530.0
 33
0.0
 14
-19.9999999999999964
 24
-530.0
 34
0.0
 50
0.0
100
AcDbRotatedDimension
  0
MTEXT
  5
234
100
AcDbEntity
100
AcDbMText
  8
airfoil
 62
256
370
-1
  6
ByLayer
 10
0.0
 20
-230.0
 30
0.0
 40
20.0
 41
100.0
 71
1
 72
2
  1
MH-64-li 11%
  7
iso
 50
0.0
 73
1
 44
1.0
  0
INSERT
  5
235
100
AcDbEntity
100
AcDbBlockReference
  8
airfoil
 62
256
370
-1
  6
ByLayer
  2
mh-64-li 11% inner
 10
0.0
 20
-500.0
 30
0.0
 41
3.8571428569999999
 42
3.8571428569999999
 43
1.0
  0
DIMENSION
  5
236
100
AcDbEntity
  8
Masse MKII
 62
256
370
-1
  6
ByLayer
100
AcDbDimension
 10
140.0
 20
-462.5
 30
0.0
 11
127.5
 21
-492.4499999999999886
 31
0.0
 70
0
 71
5
 72
1
 41
1.0
 42
0.0
  1

  3
Standard
100
AcDbAlignedDimension
 13
122.0000000000000142
 23
-522.3999999999999773
 33
0.0
 14
152.9000000000000057
 24
-462.5
 34
0.0
 50
90.0
100
AcDbRotatedDimension
  0
DIMENSION
  5
237
100
AcDbEntity
  8
Masse MKII
 62
256
370
-1
  6
ByLayer
100
AcDbDimension
 10
-70.0
 20
50.0000000000000071
 30
0.0
 11
-82.5
 21
24.9999999999999964
 31
0.0
 70
0
 71
5
 72
0
 41
1.0
 42
0.0
  1

  3
Standard
100
AcDbAlignedDimension
 13
0.0
 23
0.0
 33
0.0
 14
0.0
 24
50.0
 34
0.0
 50
90.0
100
AcDbRotatedDimension
  0
LINE
  5
238
100
AcDbEntity
100
AcDbLine
  8
helpers
 62
256
370
-1
  6
ByLayer
 10
1250.0
 20
-750.0
 30
0.0
 11
1250.0
 21
-850.0
 31
0.0
  0
LINE
  5
239
100
AcDbEntity
100
AcDbLine
  8
helpers
 62
256
370
-1
  6
ByLayer
 10
1532.0
 20
-791.0
 30
0.0
 11
1660.0
 21
-790.0
 31
0.0
  0
LINE
  5
23A
100
AcDbEntity
100
AcDbLine
  8
helpers
 62
256
370
-1
  6
ByLayer
 10
1600.0
 20
-670.0
 30
0.0
 11
1600.0
 21
-880.0
 31
0.0
  0
LINE
  5
23B
100
AcDbEntity
100
AcDbLine
  8
helpers
 62
256
370
-1
  6
ByLayer
 10
1720.0
 20
-720.0
 30
0.0
 11
1490.0
 21
-720.0
 31
0.0
  0
LINE
  5
23C
100
AcDbEntity
100
AcDbLine
  8
helpers
 62
256
370
-1
  6
ByLayer
 10
1720.0
 20
-860.0
 30
0.0
 11
1490.0
 21
-860.0
 31
0.0
  0
LINE
  5
23D
100
AcDbEntity
100
AcDbLine
  8
airfoil
 62
256
370
-1
  6
ByLayer
 10
109.8411208109060908
 20
-328.5617632934694257
 30
0.0
 11
109.8411208109060908
 21
-328.5617632934694257
 31
0.0
  0
LINE
  5
23E
100
AcDbEntity
100
AcDbLine
  8
airfoil
 62
256
370
-1
  6
ByLayer
 10
729.8411208109060908
 20
-328.561763293469653
 30
0.0
 11
729.8411208109060908
 21
-328.561763293469653
 31
0.0
  0
LINE
  5
23F
100
AcDbEntity
100
AcDbLine
  8
airfoil
 62
256
370
-1
  6
ByLayer
 10
89.8411208109060908
 20
-348.5617632934699373
 30
0.0
 11
89.8411208109060908
 21
-348.5617632934699373
 31
0.0
  0
LINE
  5
240
100
AcDbEntity
100
AcDbLine
  8
airfoil
 62
256
370
-1
  6
ByLayer
 10
729.8411208109060908
 20
-298.561763293469653
 30
0.0
 11
729.8411208109060908
 21
-348.561763293469653
 31
0.0
  0
MTEXT
  5
241
100
AcDbEntity
100
AcDbMText
  8
text
 62
256
370
-1
  6
ByLayer
 10
239.9900000000001228
 20
-318.5399999999996226
 30
0.0
 40
5.0
 41
100.0
 71
3
 72
2
  1
Wing twist: 1.5%%d
  7
iso
 50
360.0
 73
0
 44
1.0
  0
LINE
  5
242
100
AcDbEntity
100
AcDbLine
  8
airfoil
 62
256
370
-1
  6
ByLayer
 10
329.9900000000001228
 20
-328.5399999999997931
 30
0.0
 11
729.9900000000001228
 21
-328.5399999999997362
 31
0.0
  0
LINE
  5
243
100
AcDbEntity
100
AcDbLine
  8
airfoil
 62
256
370
-1
  6
ByLayer
 10
729.9900000000001228
 20
-348.5399999999997362
 30
0.0
 11
-20.0099999999998772
 21
-348.5399999999996226
 31
0.0
  0
LINE
  5
244
100
AcDbEntity
100
AcDbLine
  8
airfoil
 62
256
370
-1
  6
ByLayer
 10
-20.0099999999998772
 20
-348.5399999999996226
 30
0.0
 11
-20.0099999999998772
 21
-278.5399999999999068
 31
0.0
  0
LINE
  5
245
100
AcDbEntity
100
AcDbLine
  8
airfoil
 62
256
370
-1
  6
ByLayer
 10
-20.0099999999998772
 20
-278.5399999999999068
 30
0.0
 11
729.9900000000001228
 21
-278.5399999999997362
 31
0.0
  0
LINE
  5
246
100
AcDbEntity
100
AcDbLine
  8
airfoil
 62
256
370
-1
  6
ByLayer
 10
729.9900000000001228
 20
-278.5399999999997362
 30
0.0
 11
729.9900000000001228
 21
-348.5399999999997362
 31
0.0
  0
LINE
  5
247
100
AcDbEntity
100
AcDbLine
  8
airfoil
 62
256
370
-1
  6
ByLayer
 10
729.9900000000001228
 20
-348.5399999999997362
 30
0.0
 11
729.9900000000001228
 21
-348.5399999999997362
 31
0.0
  0
LINE
  5
248
100
AcDbEntity
100
AcDbLine
  8
airfoil
 62
256
370
-1
  6
ByLayer
 10
0.0990000000000464
 20
-320.0009999999999195
 30
0.0
 11
-20.0
 21
-320.0
 31
0.0
  0
DIMENSION
  5
249
100
AcDbEntity
  8
Masse MKII
 62
256
370
-1
  6
ByLayer
100
AcDbDimension
 10
-50.0099999999999909
 20
-319.9999999999996021
 30
0.0
 11
-37.5099999999999909
 21
-299.2699999999998681
 31
0.0
 70
0
 71
5
 72
1
 41
1.0
 42
0.0
  1

  3
Standard
100
AcDbAlignedDimension
 13
-20.0099999999998772
 23
-278.5399999999999068
 33
0.0
 14
-20.0
 24
-320.0
 34
0.0
 50
90.0
100
AcDbRotatedDimension
  0
DIMENSION
  5
24A
100
AcDbEntity
  8
Masse MKII
 62
256
370
-1
  6
ByLayer
100
AcDbDimension
 10
-50.0099999999998772
 20
-348.5399999999996226
 30
0.0
 11
-37.5099999999998772
 21
-334.2699999999996407
 31
0.0
 70
0
 71
5
 72
1
 41
1.0
 42
0.0
  1

  3
Standard
100
AcDbAlignedDimension
 13
-20.0
 23
-320.0
 33
0.0
 14
-20.0099999999998772
 24
-348.5399999999996226
 34
0.0
 50
90.0
100
AcDbRotatedDimension
  0
DIMENSION
  5
24B
100
AcDbEntity
  8
Masse MKII
 62
256
370
-1
  6
ByLayer
100
AcDbDimension
 10
709.9900000000001228
 20
-378.5399999999997362
 30
0.0
 11
719.9900000000001228
 21
-366.0399999999997362
 31
0.0
 70
0
 71
5
 72
1
 41
1.0
 42
0.0
  1

  3
Standard
100
AcDbAlignedDimension
 13
729.9900000000001228
 23
-348.5399999999997362
 33
0.0
 14
709.9900000000001228
 24
-348.5399999999997362
 34
0.0
 50
180.0
100
AcDbRotatedDimension
  0
DIMENSION
  5
24C
100
AcDbEntity
  8
Masse MKII
 62
256
370
-1
  6
ByLayer
100
AcDbDimension
 10
329.9900000000001228
 20
-378.5399999999996226
 30
0.0
 11
519.9900000000001228
 21
-366.0399999999997362
 31
0.0
 70
0
 71
5
 72
1
 41
1.0
 42
0.0
  1

  3
Standard
100
AcDbAlignedDimension
 13
709.9900000000001228
 23
-348.5399999999997362
 33
0.0
 14
329.9900000000001228
 24
-328.5399999999997931
 34
0.0
 50
180.0
100
AcDbRotatedDimension
  0
DIMENSION
  5
24D
100
AcDbEntity
  8
Masse MKII
 62
256
370
-1
  6
ByLayer
100
AcDbDimension
 10
-0.0099999999997635
 20
-378.5399999999998499
 30
0.0
 11
164.9900000000001228
 21
-366.0399999999997931
 31
0.0
 70
0
 71
5
 72
1
 41
1.0
 42
0.0
  1

  3
Standard
100
AcDbAlignedDimension
 13
329.9900000000001228
 23
-328.5399999999997931
 33
0.0
 14
-0.0099999999998772
 24
-348.5399999999996226
 34
0.0
 50
180.0
100
AcDbRotatedDimension
  0
DIMENSION
  5
24E
100
AcDbEntity
  8
Masse MKII
 62
256
370
-1
  6
ByLayer
100
AcDbDimension
 10
-20.0099999999997635
 20
-378.5400000000000205
 30
0.0
 11
-10.0099999999998772
 21
-366.0399999999995089
 31
0.0
 70
0
 71
5
 72
1
 41
1.0
 42
0.0
  1

  3
Standard
100
AcDbAlignedDimension
 13
-0.0099999999998772
 23
-348.5399999999996226
 33
0.0
 14
-20.0099999999998772
 24
-348.5399999999996226
 34
0.0
 50
180.0
100
AcDbRotatedDimension
  0
INSERT
  5
24F
100
AcDbEntity
100
AcDbBlockReference
  8
airfoil
 62
256
370
-1
  6
ByLayer
  2
mh-64-li 11% inner
 10
329.9900000000001228
 20
-328.5399999999997931
 30
0.0
 41
2.3571428569999999
 42
-2.3571428569999999
 43
1.0
 50
178.5
  0
LINE
  5
250
100
AcDbEntity
100
AcDbLine
  8
airfoil
 62
256
370
-1
  6
ByLayer
 10
129.851120810905968
 20
-840.0217632934696894
 30
0.0
 11
129.851120810905968
 21
-840.0217632934696894
 31
0.0
  0
LINE
  5
251
100
AcDbEntity
100
AcDbLine
  8
airfoil
 62
256
370
-1
  6
ByLayer
 10
749.851120810905968
 20
-840.0217632934699168
 30
0.0
 11
749.851120810905968
 21
-840.0217632934699168
 31
0.0
  0
LINE
  5
252
100
AcDbEntity
100
AcDbLine
  8
airfoil
 62
256
370
-1
  6
ByLayer
 10
109.851120810905968
 20
-860.0217632934698031
 30
0.0
 11
109.851120810905968
 21
-860.0217632934698031
 31
0.0
  0
LINE
  5
253
100
AcDbEntity
100
AcDbLine
  8
airfoil
 62
256
370
-1
  6
ByLayer
 10
749.851120810905968
 20
-810.0217632934699168
 30
0.0
 11
749.851120810905968
 21
-860.0217632934699168
 31
0.0
  0
INSERT
  5
254
100
AcDbEntity
100
AcDbBlockReference
  8
Masse MKII
 62
256
370
-1
  6
ByLayer
  2
mh-64-li 10% outer
 10
350.0
 20
-840.0
 30
0.0
 41
1.0
 42
-1.0
 43
1.0
 50
178.5
  0
MTEXT
  5
255
100
AcDbEntity
100
AcDbMText
  8
text
 62
256
370
-1
  6
ByLayer
 10
260.0000000000000568
 20
-829.9999999999997726
 30
0.0
 40
5.0
 41
100.0
 71
3
 72
2
  1
Wing twist: 1.5%%d
  7
iso
 50
360.0
 73
0
 44
1.0
  0
LINE
  5
256
100
AcDbEntity
100
AcDbLine
  8
airfoil
 62
256
370
-1
  6
ByLayer
 10
350.0
 20
-840.0
 30
0.0
 11
750.0
 21
-840.0
 31
0.0
  0
LINE
  5
257
100
AcDbEntity
100
AcDbLine
  8
airfoil
 62
256
370
-1
  6
ByLayer
 10
750.0
 20
-860.0
 30
0.0
 11
0.0
 21
-859.9999999999998863
 31
0.0
  0
LINE
  5
258
100
AcDbEntity
100
AcDbLine
  8
airfoil
 62
256
370
-1
  6
ByLayer
 10
0.0
 20
-859.9999999999998863
 30
0.0
 11
0.0000000000001137
 21
-789.9999999999998863
 31
0.0
  0
LINE
  5
259
100
AcDbEntity
100
AcDbLine
  8
airfoil
 62
256
370
-1
  6
ByLayer
 10
0.0000000000001137
 20
-789.9999999999998863
 30
0.0
 11
750.0000000000001137
 21
-790.0
 31
0.0
  0
LINE
  5
25A
100
AcDbEntity
100
AcDbLine
  8
airfoil
 62
256
370
-1
  6
ByLayer
 10
750.0000000000001137
 20
-790.0
 30
0.0
 11
750.0
 21
-860.0
 31
0.0
  0
LINE
  5
25B
100
AcDbEntity
100
AcDbLine
  8
airfoil
 62
256
370
-1
  6
ByLayer
 10
750.0
 20
-860.0
 30
0.0
 11
750.0
 21
-860.0
 31
0.0
  0
LINE
  5
25C
100
AcDbEntity
100
AcDbLine
  8
airfoil
 62
256
370
-1
  6
ByLayer
 10
20.1089999999999236
 20
-831.4610000000000127
 30
0.0
 11
0.0099999999998772
 21
-831.4600000000000364
 31
0.0
  0
INSERT
  5
25D
100
AcDbEntity
100
AcDbBlockReference
  8
airfoil
 62
256
370
-1
  6
ByLayer
  2
mh-64-li 10% outer
 10
350.0
 20
-840.0
 30
0.0
 41
1.0
 42
-1.0
 43
1.0
 50
178.5
  0
INSERT
  5
25E
100
AcDbEntity
100
AcDbBlockReference
  8
airfoil
 62
256
370
-1
  6
ByLayer
  2
mh-64-li 10% outer
 10
350.0
 20
-840.0
 30
0.0
 41
1.0
 42
-1.0
 43
1.0
 50
178.5
  0
INSERT
  5
25F
100
AcDbEntity
100
AcDbBlockReference
  8
airfoil
 62
256
370
-1
  6
ByLayer
  2
mh-64-li 10% outer
 10
350.0
 20
-840.0
 30
0.0
 41
1.0
 42
-1.0
 43
1.0
 50
178.5
  0
DIMENSION
  5
260
100
AcDbEntity
  8
Masse MKII
 62
256
370
-1
  6
ByLayer
100
AcDbDimension
 10
273.4119382222170316
 20
-848.1249018869792735
 30
0.0
 11
285.9119382222170316
 21
-833.2930385410643339
 31
0.0
 70
0
 71
5
 72
1
 41
1.0
 42
0.0
  1

  3
Standard
100
AcDbAlignedDimension
 13
229.4679004349548563
 23
-818.4611751951492806
 33
0.0
 14
290.4929840260292053
 24
-848.1249018869791598
 34
0.0
 50
90.0
100
AcDbRotatedDimension
  0
DIMENSION
  5
261
100
AcDbEntity
  8
Masse MKII
 62
256
370
-1
  6
ByLayer
100
AcDbDimension
 10
-30.0
 20
-831.4600000000001501
 30
0.0
 11
-17.5
 21
-810.7299999999997908
 31
0.0
 70
0
 71
5
 72
1
 41
1.0
 42
0.0
  1

  3
Standard
100
AcDbAlignedDimension
 13
0.0000000000001137
 23
-789.9999999999998863
 33
0.0
 14
0.0099999999998772
 24
-831.4600000000000364
 34
0.0
 50
90.0
100
AcDbRotatedDimension
  0
DIMENSION
  5
262
100
AcDbEntity
  8
Masse MKII
 62
256
370
-1
  6
ByLayer
100
AcDbDimension
 10
-30.0
 20
-859.9999999999998863
 30
0.0
 11
-17.5
 21
-845.7299999999997908
 31
0.0
 70
0
 71
5
 72
1
 41
1.0
 42
0.0
  1

  3
Standard
100
AcDbAlignedDimension
 13
0.0099999999998772
 23
-831.4600000000000364
 33
0.0
 14
0.0
 24
-859.9999999999998863
 34
0.0
 50
90.0
100
AcDbRotatedDimension
  0
DIMENSION
  5
263
100
AcDbEntity
  8
Masse MKII
 62
256
370
-1
  6
ByLayer
100
AcDbDimension
 10
730.0
 20
-890.0
 30
0.0
 11
740.0
 21
-877.5
 31
0.0
 70
0
 71
5
 72
1
 41
1.0
 42
0.0
  1

  3
Standard
100
AcDbAlignedDimension
 13
750.0
 23
-860.0
 33
0.0
 14
730.0
 24
-860.0
 34
0.0
 50
180.0
100
AcDbRotatedDimension
  0
DIMENSION
  5
264
100
AcDbEntity
  8
Masse MKII
 62
256
370
-1
  6
ByLayer
100
AcDbDimension
 10
350.0000000000000568
 20
-890.0000000000001137
 30
0.0
 11
540.0
 21
-877.5
 31
0.0
 70
0
 71
5
 72
1
 41
1.0
 42
0.0
  1

  3
Standard
100
AcDbAlignedDimension
 13
730.0
 23
-860.0
 33
0.0
 14
350.0
 24
-840.0
 34
0.0
 50
180.0
100
AcDbRotatedDimension
  0
DIMENSION
  5
265
100
AcDbEntity
  8
Masse MKII
 62
256
370
-1
  6
ByLayer
100
AcDbDimension
 10
20.0
 20
-890.0000000000002274
 30
0.0
 11
185.0000000000001137
 21
-877.4999999999997726
 31
0.0
 70
0
 71
5
 72
1
 41
1.0
 42
0.0
  1

  3
Standard
100
AcDbAlignedDimension
 13
350.0
 23
-840.0
 33
0.0
 14
20.0
 24
-859.9999999999998863
 34
0.0
 50
180.0
100
AcDbRotatedDimension
  0
DIMENSION
  5
266
100
AcDbEntity
  8
Masse MKII
 62
256
370
-1
  6
ByLayer
100
AcDbDimension
 10
0.0000000000001137
 20
-890.0000000000001137
 30
0.0
 11
10.0
 21
-877.4999999999998863
 31
0.0
 70
0
 71
5
 72
1
 41
1.0
 42
0.0
  1

  3
Standard
100
AcDbAlignedDimension
 13
20.0
 23
-859.9999999999998863
 33
0.0
 14
0.0
 24
-859.9999999999998863
 34
0.0
 50
180.0
100
AcDbRotatedDimension
  0
MTEXT
  5
267
100
AcDbEntity
100
AcDbMText
  8
text
 62
256
370
-1
  6
ByLayer
 10
1920.0
 20
-600.0
 30
0.0
 40
20.0
 41
100.0
 71
1
 72
0
  1
Specs:\P\PWingspan:      1500    mm\PLength:         710    mm\PWing area:        0.89 m^2\PWing load:       44.5  g/dm^2 (at 2kg)\P\PProp:          11x6    "\PEngine:         600    W
  7
normallatin1
 50
0.0
 73
1
 44
1.0
  0
INSERT
  5
268
100
AcDbEntity
100
AcDbBlockReference
  8
winglet
 62
256
370
-1
  6
ByLayer
  2
mh-64-li 11% inner
 10
1200.0
 20
-678.2972037732877197
 30
0.0
 41
2.3571428569999999
 42
2.3571428569999999
 43
1.0
 50
1.5000000000000084
  0
LINE
  5
269
100
AcDbEntity
100
AcDbLine
  8
winglet
 62
256
370
-1
  6
ByLayer
 10
1250.0
 20
-656.5307950958798529
 30
0.0
 11
1600.0
 21
-598.2972037732877197
 31
0.0
  0
LINE
  5
26A
100
AcDbEntity
100
AcDbLine
  8
winglet
 62
256
370
-1
  6
ByLayer
 10
1600.0
 20
-598.2972037732877197
 30
0.0
 11
1530.4688702945186378
 21
-669.6412139038299074
 31
0.0
  0
LINE
  5
26B
100
AcDbEntity
100
AcDbLine
  8
winglet
 62
256
370
-1
  6
ByLayer
 10
1530.4688702945186378
 20
-669.6412139038299074
 30
0.0
 11
1600.0
 21
-738.2972037732877197
 31
0.0
  0
LINE
  5
26C
100
AcDbEntity
100
AcDbLine
  8
winglet
 62
256
370
-1
  6
ByLayer
 10
1600.0
 20
-738.2972037732877197
 30
0.0
 11
1250.0
 21
-690.0
 31
0.0
  0
LINE
  5
26D
100
AcDbEntity
100
AcDbLine
  8
winglet
 62
256
370
-1
  6
ByLayer
 10
1250.0
 20
-690.0
 30
0.0
 11
1250.0
 21
-656.5307950958798529
 31
0.0
  0
LINE
  5
26E
100
AcDbEntity
100
AcDbLine
  8
winglet
 62
256
370
-1
  6
ByLayer
 10
1250.0
 20
-656.5307950958798529
 30
0.0
 11
1250.0
 21
-656.5307950958798529
 31
0.0
  0
DIMENSION
  5
26F
100
AcDbEntity
  8
Masse MKII
 62
256
370
-1
  6
ByLayer
100
AcDbDimension
 10
1700.0
 20
-669.6412139038299074
 30
0.0
 11
1687.5
 21
-633.9692088385588704
 31
0.0
 70
0
 71
5
 72
0
 41
1.0
 42
0.0
  1

  3
Standard
100
AcDbAlignedDimension
 13
1600.0
 23
-598.2972037732877197
 33
0.0
 14
1530.4688702945186378
 24
-669.6412139038299074
 34
0.0
 50
90.0
100
AcDbRotatedDimension
  0
DIMENSION
  5
270
100
AcDbEntity
  8
Masse MKII
 62
256
370
-1
  6
ByLayer
100
AcDbDimension
 10
1700.0
 20
-738.2972037732877197
 30
0.0
 11
1687.5
 21
-703.9692088385588704
 31
0.0
 70
0
 71
5
 72
0
 41
1.0
 42
0.0
  1

  3
Standard
100
AcDbAlignedDimension
 13
1530.4688702945186378
 23
-669.6412139038299074
 33
0.0
 14
1600.0
 24
-738.2972037732877197
 34
0.0
 50
90.0
100
AcDbRotatedDimension
  0
DIMENSION
  5
271
100
AcDbEntity
  8
Masse MKII
 62
256
370
-1
  6
ByLayer
100
AcDbDimension
 10
1250.0
 20
-778.2972037732877197
 30
0.0
 11
1225.0
 21
-765.7972037732877197
 31
0.0
 70
0
 71
5
 72
0
 41
1.0
 42
0.0
  1

  3
Standard
100
AcDbAlignedDimension
 13
1200.0
 23
-678.2972037732877197
 33
0.0
 14
1250.0
 24
-690.0
 34
0.0
 50
0.0
100
AcDbRotatedDimension
  0
DIMENSION
  5
272
100
AcDbEntity
  8
Masse MKII
 62
256
370
-1
  6
ByLayer
100
AcDbDimension
 10
1530.4688702945186378
 20
-778.2972037732877197
 30
0.0
 11
1390.2344351472593189
 21
-765.7972037732877197
 31
0.0
 70
0
 71
5
 72
0
 41
1.0
 42
0.0
  1

  3
Standard
100
AcDbAlignedDimension
 13
1250.0
 23
-690.0
 33
0.0
 14
1530.4688702945186378
 24
-669.6412139038299074
 34
0.0
 50
0.0
100
AcDbRotatedDimension
  0
DIMENSION
  5
273
100
AcDbEntity
  8
Masse MKII
 62
256
370
-1
  6
ByLayer
100
AcDbDimension
 10
1600.0
 20
-778.2972037732877197
 30
0.0
 11
1565.2344351472593189
 21
-765.7972037732877197
 31
0.0
 70
0
 71
5
 72
0
 41
1.0
 42
0.0
  1

  3
Standard
100
AcDbAlignedDimension
 13
1530.4688702945186378
 23
-669.6412139038299074
 33
0.0
 14
1600.0
 24
-738.2972037732877197
 34
0.0
 50
0.0
100
AcDbRotatedDimension
  0
DIMENSION
  5
274
100
AcDbEntity
  8
Masse MKII
 62
256
370
-1
  6
ByLayer
100
AcDbDimension
 10
1160.0
 20
-678.2972037732877197
 30
0.0
 11
1147.5
 21
-708.2972037732877197
 31
0.0
 70
0
 71
5
 72
0
 41
1.0
 42
0.0
  1

  3
Standard
100
AcDbAlignedDimension
 13
1600.0
 23
-738.2972037732877197
 33
0.0
 14
1200.0
 24
-678.2972037732877197
 34
0.0
 50
90.0
100
AcDbRotatedDimension
  0
DIMENSION
  5
275
100
AcDbEntity
  8
Masse MKII
 62
256
370
-1
  6
ByLayer
100
AcDbDimension
 10
1160.0
 20
-598.2972037732877197
 30
0.0
 11
1147.5
 21
-638.2972037732877197
 31
0.0
 70
0
 71
5
 72
0
 41
1.0
 42
0.0
  1

  3
Standard
100
AcDbAlignedDimension
 13
1200.0
 23
-678.2972037732877197
 33
0.0
 14
1600.0
 24
-598.2972037732877197
 34
0.0
 50
90.0
100
AcDbRotatedDimension
  0
LINE
  5
276
100
AcDbEntity
100
AcDbLine
  8
airfoil
 62
256
370
-1
  6
ByLayer
 10
1480.0
 20
-666.4045138439655602
 30
0.0
 11
1480.0
 21
-673.8421480679104434
 31
0.0
  0
ENDSEC
  0
SECTION
  2
OBJECTS
  0
DICTIONARY
  5
C
100
AcDbDictionary
280
0
281
1
  3
ACAD_GROUP
350
D
  3
ACAD_LAYOUT
350
1A
  3
ACAD_MLINESTYLE
350
17
  3
ACAD_PLOTSETTINGS
350
19
  3
ACAD_PLOTSTYLENAME
350
E
  3
AcDbVariableDictionary
350
277
  0
DICTIONARY
  5
D
100
AcDbDictionary
280
0
281
1
  0
ACDBDICTIONARYWDFLT
  5
E
100
AcDbDictionary
281
1
  3
Normal
350
F
100
AcDbDictionaryWithDefault
340
F
  0
ACDBPLACEHOLDER
  5
F
  0
DICTIONARY
  5
17
100
AcDbDictionary
280
0
281
1
  3
Standard
350
18
  0
MLINESTYLE
  5
18
100
AcDbMlineStyle
  2
STANDARD
 70
0
  3

 62
256
 51
90.0
 52
90.0
 71
2
 49
0.5
 62
256
  6
BYLAYER
 49
-0.5
 62
256
  6
BYLAYER
  0
DICTIONARY
  5
19
100
AcDbDictionary
280
0
281
1
  0
DICTIONARY
  5
1A
100
AcDbDictionary
281
1
  3
Layout1
350
1E
  3
Layout2
350
26
  3
Model
350
22
  0
LAYOUT
  5
1E
100
AcDbPlotSettings
  1

  2
C:\Program Files\AutoCAD 2002\plotters\DWF ePlot (optimized for plotting).pc3
  4

  6

 40
0.0
 41
0.0
 42
0.0
 43
0.0
 44
0.0
 45
0.0
 46
0.0
 47
0.0
 48
0.0
 49
0.0
140
0.0
141
0.0
142
1.0
143
1.0
 70
688
 72
0
 73
0
 74
5
  7

 75
16
147
1.0
148
0.0
149
0.0
100
AcDbLayout
  1
Layout1
 70
1
 71
1
 10
0.0
 20
0.0
 11
420.0
 21
297.0
 12
0.0
 22
0.0
 32
0.0
 14
100000000000000000000.0
 24
100000000000000000000.0
 34
100000000000000000000.0
 15
-100000000000000000000.0
 25
-100000000000000000000.0
 35
-100000000000000000000.0
146
0.0
 13
0.0
 23
0.0
 33
0.0
 16
1.0
 26
0.0
 36
0.0
 17
0.0
 27
1.0
 37
0.0
 76
0
330
1B
  0
LAYOUT
  5
22
100
AcDbPlotSettings
  1

  2
C:\Program Files\AutoCAD 2002\plotters\DWF ePlot (optimized for plotting).pc3
  4

  6

 40
0.0
 41
0.0
 42
0.0
 43
0.0
 44
0.0
 45
0.0
 46
0.0
 47
0.0
 48
0.0
 49
0.0
140
0.0
141
0.0
142
1.0
143
1.0
 70
1712
 72
0
 73
0
 74
0
  7

 75
0
147
1.0
148
0.0
149
0.0
100
AcDbLayout
  1
Model
 70
1
 71
0
 10
0.0
 20
0.0
 11
12.0
 21
9.0
 12
0.0
 22
0.0
 32
0.0
 14
0.0
 24
0.0
 34
0.0
 15
0.0
 25
0.0
 35
0.0
146
0.0
 13
0.0
 23
0.0
 33
0.0
 16
1.0
 26
0.0
 36
0.0
 17
0.0
 27
1.0
 37
0.0
 76
0
330
1F
  0
LAYOUT
  5
26
100
AcDbPlotSettings
  1

  2
C:\Program Files\AutoCAD 2002\plotters\DWF ePlot (optimized for plotting).pc3
  4

  6

 40
0.0
 41
0.0
 42
0.0
 43
0.0
 44
0.0
 45
0.0
 46
0.0
 47
0.0
 48
0.0
 49
0.0
140
0.0
141
0.0
142
1.0
143
1.0
 70
688
 72
0
 73
0
 74
5
  7

 75
16
147
1.0
148
0.0
149
0.0
100
AcDbLayout
  1
Layout2
 70
1
 71
2
 10
0.0
 20
0.0
 11
12.0
 21
9.0
 12
0.0
 22
0.0
 32
0.0
 14
0.0
 24
0.0
 34
0.0
 15
0.0
 25
0.0
 35
0.0
146
0.0
 13
0.0
 23
0.0
 33
0.0
 16
1.0
 26
0.0
 36
0.0
 17
0.0
 27
1.0
 37
0.0
 76
0
330
23
  0
DICTIONARY
  5
277
100
AcDbDictionary
281
1
  3
DIMASSOC
350
279
  3
HIDETEXT
350
278
  0
DICTIONARYVAR
  5
278
100
DictionaryVariables
280
0
  1
2
  0
DICTIONARYVAR
  5
279
100
DictionaryVariables
280
0
  1
1
  0
ENDSEC
  0
EOF
