999
dxflib 2.2.0.0
  0
SECTION
  2
HEADER
  9
$ACADVER
  1
AC1015
  9
$HANDSEED
  5
FFFF
  9
$SPLINESEGS
 70
8
  9
$DIMEXE
 40
10.0
  9
$PSVPSCALE
 40
0.1
  9
$DIMLUNIT
 70
2
  9
$GRIDMODE
 70
1
  9
$INSUNITS
 70
4
  9
$DIMADEC
 70
2
  9
$DIMASZ
 40
10.0
  9
$DIMGAP
 40
10.0
  9
$DIMTXT
 40
5.0
  9
$GRIDUNIT
 10
0.0
 20
0.0
  9
$DIMEXO
 40
10.0
  9
$LUPREC
 70
2
  9
$PINSBASE
 10
30.0
 20
120.0
 30
0.0
  9
$DIMAUNIT
 70
0
  9
$AUPREC
 70
2
  9
$PLIMMIN
 10
0.0
 20
0.0
  9
$LUNITS
 70
2
  9
$PLIMMAX
 10
297.0
 20
210.0
  9
$DIMSTYLE
  2
Standard
  9
$AUNITS
 70
0
  0
ENDSEC
  0
SECTION
  2
TABLES
  0
TABLE
  2
VPORT
  5
8
100
AcDbSymbolTable
 70
1
  0
VPORT
  5
30
100
AcDbSymbolTableRecord
100
AcDbViewportTableRecord
  2
*Active
 70
0
 10
0.0
 20
0.0
 11
1.0
 21
1.0
 12
286.3055555555554861
 22
148.5
 13
0.0
 23
0.0
 14
10.0
 24
10.0
 15
10.0
 25
10.0
 16
0.0
 26
0.0
 36
1.0
 17
0.0
 27
0.0
 37
0.0
 40
297.0
 41
1.92798353909465
 42
50.0
 43
0.0
 44
0.0
 50
0.0
 51
0.0
 71
0
 72
100
 73
1
 74
3
 75
1
 76
1
 77
0
 78
0
281
0
 65
1
110
0.0
120
0.0
130
0.0
111
1.0
121
0.0
131
0.0
112
0.0
122
1.0
132
0.0
 79
0
146
0.0
  0
ENDTAB
  0
TABLE
  2
LTYPE
  5
5
100
AcDbSymbolTable
 70
21
  0
LTYPE
  5
14
100
AcDbSymbolTableRecord
100
AcDbLinetypeTableRecord
  2
ByBlock
 70
0
  3

 72
65
 73
0
 40
0.0
  0
LTYPE
  5
15
100
AcDbSymbolTableRecord
100
AcDbLinetypeTableRecord
  2
ByLayer
 70
0
  3

 72
65
 73
0
 40
0.0
  0
LTYPE
  5
16
100
AcDbSymbolTableRecord
100
AcDbLinetypeTableRecord
  2
CONTINUOUS
 70
0
  3
Solid line
 72
65
 73
0
 40
0.0
  0
LTYPE
  5
31
100
AcDbSymbolTableRecord
100
AcDbLinetypeTableRecord
  2
DOT
 70
0
  3
Dot . . . . . . . . . . . . . . . . . . . . . .
 72
65
 73
2
 40
6.3499999999999996
 49
0.0
 74
0
 49
-6.3499999999999996
 74
0
  0
LTYPE
  5
32
100
AcDbSymbolTableRecord
100
AcDbLinetypeTableRecord
  2
DOT2
 70
0
  3
Dot (.5x) .....................................
 72
65
 73
2
 40
3.1749999999999998
 49
0.0
 74
0
 49
-3.1749999999999998
 74
0
  0
LTYPE
  5
33
100
AcDbSymbolTableRecord
100
AcDbLinetypeTableRecord
  2
DOTX2
 70
0
  3
Dot (2x) .  .  .  .  .  .  .  .  .  .  .  .  .
 72
65
 73
2
 40
12.6999999999999993
 49
0.0
 74
0
 49
-12.6999999999999993
 74
0
  0
LTYPE
  5
34
100
AcDbSymbolTableRecord
100
AcDbLinetypeTableRecord
  2
DASHED
 70
0
  3
Dashed __ __ __ __ __ __ __ __ __ __ __ __ __ _
 72
65
 73
2
 40
19.0500000000000007
 49
12.6999999999999993
 74
0
 49
-6.3499999999999996
 74
0
  0
LTYPE
  5
35
100
AcDbSymbolTableRecord
100
AcDbLinetypeTableRecord
  2
DASHED2
 70
0
  3
Dashed (.5x) _ _ _ _ _ _ _ _ _ _ _ _ _ _ _ _ _
 72
65
 73
2
 40
9.5250000000000004
 49
6.3499999999999996
 74
0
 49
-3.1749999999999998
 74
0
  0
LTYPE
  5
36
100
AcDbSymbolTableRecord
100
AcDbLinetypeTableRecord
  2
DASHEDX2
 70
0
  3
Dashed (2x) ____  ____  ____  ____  ____  ___
 72
65
 73
2
 40
38.1000000000000014
 49
25.3999999999999986
 74
0
 49
-12.6999999999999993
 74
0
  0
LTYPE
  5
37
100
AcDbSymbolTableRecord
100
AcDbLinetypeTableRecord
  2
DASHDOT
 70
0
  3
Dash dot __ . __ . __ . __ . __ . __ . __ . __
 72
65
 73
4
 40
25.3999999999999986
 49
12.6999999999999993
 74
0
 49
-6.3499999999999996
 74
0
 49
0.0
 74
0
 49
-6.3499999999999996
 74
0
  0
LTYPE
  5
38
100
AcDbSymbolTableRecord
100
AcDbLinetypeTableRecord
  2
DASHDOT2
 70
0
  3
Dash dot (.5x) _._._._._._._._._._._._._._._.
 72
65
 73
4
 40
12.6999999999999993
 49
6.3499999999999996
 74
0
 49
-3.1749999999999998
 74
0
 49
0.0
 74
0
 49
-3.1749999999999998
 74
0
  0
LTYPE
  5
39
100
AcDbSymbolTableRecord
100
AcDbLinetypeTableRecord
  2
DASHDOTX2
 70
0
  3
Dash dot (2x) ____  .  ____  .  ____  .  ___
 72
65
 73
4
 40
50.7999999999999972
 49
25.3999999999999986
 74
0
 49
-12.6999999999999993
 74
0
 49
0.0
 74
0
 49
-12.6999999999999993
 74
0
  0
LTYPE
  5
3A
100
AcDbSymbolTableRecord
100
AcDbLinetypeTableRecord
  2
DIVIDE
 70
0
  3
Divide ____ . . ____ . . ____ . . ____ . . ____
 72
65
 73
6
 40
31.75
 49
12.6999999999999993
 74
0
 49
-6.3499999999999996
 74
0
 49
0.0
 74
0
 49
-6.3499999999999996
 74
0
 49
0.0
 74
0
 49
-6.3499999999999996
 74
0
  0
LTYPE
  5
3B
100
AcDbSymbolTableRecord
100
AcDbLinetypeTableRecord
  2
DIVIDE2
 70
0
  3
Divide (.5x) __..__..__..__..__..__..__..__.._
 72
65
 73
6
 40
15.875
 49
6.3499999999999996
 74
0
 49
-3.1749999999999998
 74
0
 49
0.0
 74
0
 49
-3.1749999999999998
 74
0
 49
0.0
 74
0
 49
-3.1749999999999998
 74
0
  0
LTYPE
  5
3C
100
AcDbSymbolTableRecord
100
AcDbLinetypeTableRecord
  2
DIVIDEX2
 70
0
  3
Divide (2x) ________  .  .  ________  .  .  _
 72
65
 73
6
 40
63.5
 49
25.3999999999999986
 74
0
 49
-12.6999999999999993
 74
0
 49
0.0
 74
0
 49
-12.6999999999999993
 74
0
 49
0.0
 74
0
 49
-12.6999999999999993
 74
0
  0
LTYPE
  5
3D
100
AcDbSymbolTableRecord
100
AcDbLinetypeTableRecord
  2
CENTER
 70
0
  3
Center ____ _ ____ _ ____ _ ____ _ ____ _ ____
 72
65
 73
4
 40
50.7999999999999972
 49
31.75
 74
0
 49
-6.3499999999999996
 74
0
 49
6.3499999999999996
 74
0
 49
-6.3499999999999996
 74
0
  0
LTYPE
  5
3E
100
AcDbSymbolTableRecord
100
AcDbLinetypeTableRecord
  2
CENTER2
 70
0
  3
Center (.5x) ___ _ ___ _ ___ _ ___ _ ___ _ ___
 72
65
 73
4
 40
28.5749999999999993
 49
19.0500000000000007
 74
0
 49
-3.1749999999999998
 74
0
 49
3.1749999999999998
 74
0
 49
-3.1749999999999998
 74
0
  0
LTYPE
  5
3F
100
AcDbSymbolTableRecord
100
AcDbLinetypeTableRecord
  2
CENTERX2
 70
0
  3
Center (2x) ________  __  ________  __  _____
 72
65
 73
4
 40
101.5999999999999943
 49
63.5
 74
0
 49
-12.6999999999999993
 74
0
 49
12.6999999999999993
 74
0
 49
-12.6999999999999993
 74
0
  0
LTYPE
  5
40
100
AcDbSymbolTableRecord
100
AcDbLinetypeTableRecord
  2
BORDER
 70
0
  3
Border __ __ . __ __ . __ __ . __ __ . __ __ .
 72
65
 73
6
 40
44.4500000000000028
 49
12.6999999999999993
 74
0
 49
-6.3499999999999996
 74
0
 49
12.6999999999999993
 74
0
 49
-6.3499999999999996
 74
0
 49
0.0
 74
0
 49
-6.3499999999999996
 74
0
  0
LTYPE
  5
41
100
AcDbSymbolTableRecord
100
AcDbLinetypeTableRecord
  2
BORDER2
 70
0
  3
Border (.5x) __.__.__.__.__.__.__.__.__.__.__.
 72
65
 73
6
 40
22.2250000000000014
 49
6.3499999999999996
 74
0
 49
-3.1749999999999998
 74
0
 49
6.3499999999999996
 74
0
 49
-3.1749999999999998
 74
0
 49
0.0
 74
0
 49
-3.1749999999999998
 74
0
  0
LTYPE
  5
42
100
AcDbSymbolTableRecord
100
AcDbLinetypeTableRecord
  2
BORDERX2
 70
0
  3
Border (2x) ____  ____  .  ____  ____  .  ___
 72
65
 73
6
 40
88.9000000000000057
 49
25.3999999999999986
 74
0
 49
-12.6999999999999993
 74
0
 49
25.3999999999999986
 74
0
 49
-12.6999999999999993
 74
0
 49
0.0
 74
0
 49
-12.6999999999999993
 74
0
  0
ENDTAB
  0
TABLE
  2
LAYER
  5
2
100
AcDbSymbolTable
 70
7
  0
LAYER
  5
10
100
AcDbSymbolTableRecord
100
AcDbLayerTableRecord
  2
0
 70
0
 62
7
  6
CONTINUOUS
290
1
370
0
390
F
  0
LAYER
  5
43
100
AcDbSymbolTableRecord
100
AcDbLayerTableRecord
  2
wing
 70
4
 62
7
  6
CONTINUOUS
290
1
370
25
390
F
  0
LAYER
  5
44
100
AcDbSymbolTableRecord
100
AcDbLayerTableRecord
  2
Masse
 70
0
 62
3
  6
CONTINUOUS
290
1
370
9
390
F
  0
LAYER
  5
45
100
AcDbSymbolTableRecord
100
AcDbLayerTableRecord
  2
blatt
 70
4
 62
7
  6
CONTINUOUS
290
1
370
0
390
F
  0
LAYER
  5
46
100
AcDbSymbolTableRecord
100
AcDbLayerTableRecord
  2
airfoil
 70
0
 62
7
  6
CONTINUOUS
290
1
370
25
390
F
  0
LAYER
  5
47
100
AcDbSymbolTableRecord
100
AcDbLayerTableRecord
  2
helpers
 70
5
 62
6
  6
DIVIDEX2
290
1
370
0
390
F
  0
LAYER
  5
48
100
AcDbSymbolTableRecord
100
AcDbLayerTableRecord
  2
text
 70
0
 62
1
  6
CONTINUOUS
290
1
370
0
390
F
  0
ENDTAB
  0
TABLE
  2
STYLE
  5
3
100
AcDbSymbolTable
 70
1
  0
STYLE
  5
11
100
AcDbSymbolTableRecord
100
AcDbTextStyleTableRecord
  2
Standard
 70
0
 40
0.0
 41
0.75
 50
0.0
 71
0
 42
2.5
  3
txt
  4

  0
ENDTAB
  0
TABLE
  2
VIEW
  5
6
100
AcDbSymbolTable
 70
0
  0
ENDTAB
  0
TABLE
  2
UCS
  5
7
100
AcDbSymbolTable
 70
0
  0
ENDTAB
  0
TABLE
  2
APPID
  5
9
100
AcDbSymbolTable
 70
1
  0
APPID
  5
12
100
AcDbSymbolTableRecord
100
AcDbRegAppTableRecord
  2
ACAD
 70
0
  0
ENDTAB
  0
TABLE
  2
DIMSTYLE
  5
A
100
AcDbSymbolTable
 70
1
100
AcDbDimStyleTable
 71
0
  0
DIMSTYLE
105
27
100
AcDbSymbolTableRecord
100
AcDbDimStyleTableRecord
  2
Standard
 41
10.0
 42
10.0
 43
3.75
 44
10.0
 70
0
 73
0
 74
0
 77
1
 78
8
140
5.0
141
2.5
143
0.03937007874016
147
10.0
171
3
172
1
271
2
272
2
274
3
278
44
283
0
284
8
340
11
  0
ENDTAB
  0
TABLE
  2
BLOCK_RECORD
  5
1
100
AcDbSymbolTable
 70
1
  0
BLOCK_RECORD
  5
1F
100
AcDbSymbolTableRecord
100
AcDbBlockTableRecord
  2
*Model_Space
340
22
  0
BLOCK_RECORD
  5
1B
100
AcDbSymbolTableRecord
100
AcDbBlockTableRecord
  2
*Paper_Space
340
1E
  0
BLOCK_RECORD
  5
23
100
AcDbSymbolTableRecord
100
AcDbBlockTableRecord
  2
*Paper_Space0
340
26
  0
BLOCK_RECORD
  5
49
100
AcDbSymbolTableRecord
100
AcDbBlockTableRecord
  2
outer wing
340
0
  0
BLOCK_RECORD
  5
4A
100
AcDbSymbolTableRecord
100
AcDbBlockTableRecord
  2
mh-64-li
340
0
  0
ENDTAB
  0
ENDSEC
  0
SECTION
  2
BLOCKS
  0
BLOCK
  5
20
100
AcDbEntity
  8
0
100
AcDbBlockBegin
  2
*Model_Space
 70
0
 10
0.0
 20
0.0
 30
0.0
  3
*Model_Space
  1

  0
ENDBLK
  5
21
100
AcDbEntity
  8
0
100
AcDbBlockEnd
  0
BLOCK
  5
1C
100
AcDbEntity
 67
1
  8
0
100
AcDbBlockBegin
  2
*Paper_Space
 70
0
 10
0.0
 20
0.0
 30
0.0
  3
*Paper_Space
  1

  0
ENDBLK
  5
1D
100
AcDbEntity
 67
1
  8
0
100
AcDbBlockEnd
  0
BLOCK
  5
24
100
AcDbEntity
  8
0
100
AcDbBlockBegin
  2
*Paper_Space0
 70
0
 10
0.0
 20
0.0
 30
0.0
  3
*Paper_Space0
  1

  0
ENDBLK
  5
25
100
AcDbEntity
  8
0
100
AcDbBlockEnd
  0
BLOCK
  5
4B
100
AcDbEntity
  8
0
100
AcDbBlockBegin
  2
outer wing
 70
0
 10
0.0
 20
0.0
 30
0.0
  3
outer wing
  1

  0
LINE
  5
4C
100
AcDbEntity
100
AcDbLine
  8
wing
 62
256
370
-1
  6
ByLayer
 10
1.4589665653495452
 20
-1.4589665653495452
 30
0.0
 11
751.4589665653495558
 21
178.5410334346504442
 31
0.0
  0
LINE
  5
4D
100
AcDbEntity
100
AcDbLine
  8
wing
 62
256
370
-1
  6
ByLayer
 10
751.4589665653495558
 20
178.5410334346504442
 30
0.0
 11
751.4589665653495558
 21
598.5410334346504442
 31
0.0
  0
LINE
  5
4E
100
AcDbEntity
100
AcDbLine
  8
wing
 62
256
370
-1
  6
ByLayer
 10
751.4589665653495558
 20
598.5410334346504442
 30
0.0
 11
1.4589665653495452
 21
258.5410334346504442
 31
0.0
  0
LINE
  5
4F
100
AcDbEntity
100
AcDbLine
  8
wing
 62
256
370
-1
  6
ByLayer
 10
1.4589665653495452
 20
258.5410334346504442
 30
0.0
 11
1.4589665653495452
 21
-1.4589665653495452
 31
0.0
  0
POINT
  5
50
100
AcDbEntity
100
AcDbPoint
  8
0
 62
256
370
-1
  6
ByLayer
 10
165.5927051671733352
 20
331.3677811550153365
 30
0.0
  0
POINT
  5
51
100
AcDbEntity
100
AcDbPoint
  8
0
 62
256
370
-1
  6
ByLayer
 10
-114.8024316109423069
 20
399.7568389057752256
 30
0.0
  0
POINT
  5
52
100
AcDbEntity
100
AcDbPoint
  8
0
 62
256
370
-1
  6
ByLayer
 10
-452.1884498480245043
 20
290.3343465045593916
 30
0.0
  0
ENDBLK
  5
53
100
AcDbEntity
  8
0
100
AcDbBlockEnd
  0
BLOCK
  5
54
100
AcDbEntity
  8
0
100
AcDbBlockBegin
  2
mh-64-li
 70
0
 10
0.0
 20
0.0
 30
0.0
  3
mh-64-li
  1

  0
LINE
  5
55
100
AcDbEntity
100
AcDbLine
  8
airfoil
 62
256
370
-1
  6
ByLayer
 10
119.9992961338962232
 20
-0.0355927052456764
 30
0.0
 11
119.6122961338962227
 21
-0.0375927052456291
 31
0.0
  0
LINE
  5
56
100
AcDbEntity
100
AcDbLine
  8
airfoil
 62
256
370
-1
  6
ByLayer
 10
119.6122961338962227
 20
-0.0375927052456291
 30
0.0
 11
118.4512961338962214
 21
-0.0265927052456618
 31
0.0
  0
LINE
  5
57
100
AcDbEntity
100
AcDbLine
  8
airfoil
 62
256
370
-1
  6
ByLayer
 10
118.4512961338962214
 20
-0.0265927052456618
 30
0.0
 11
116.5342961338962482
 21
0.0384072947542791
 31
0.0
  0
LINE
  5
58
100
AcDbEntity
100
AcDbLine
  8
airfoil
 62
256
370
-1
  6
ByLayer
 10
116.5342961338962482
 20
0.0384072947542791
 30
0.0
 11
113.9022961338962432
 21
0.1814072947543082
 31
0.0
  0
LINE
  5
59
100
AcDbEntity
100
AcDbLine
  8
airfoil
 62
256
370
-1
  6
ByLayer
 10
113.9022961338962432
 20
0.1814072947543082
 30
0.0
 11
110.6052961338962177
 21
0.4184072947542745
 31
0.0
  0
LINE
  5
5A
100
AcDbEntity
100
AcDbLine
  8
airfoil
 62
256
370
-1
  6
ByLayer
 10
110.6052961338962177
 20
0.4184072947542745
 30
0.0
 11
106.7042961338962641
 21
0.7634072947543018
 31
0.0
  0
LINE
  5
5B
100
AcDbEntity
100
AcDbLine
  8
airfoil
 62
256
370
-1
  6
ByLayer
 10
106.7042961338962641
 20
0.7634072947543018
 30
0.0
 11
102.2762961338962668
 21
1.2204072947542954
 31
0.0
  0
LINE
  5
5C
100
AcDbEntity
100
AcDbLine
  8
airfoil
 62
256
370
-1
  6
ByLayer
 10
102.2762961338962668
 20
1.2204072947542954
 30
0.0
 11
97.4002961338962336
 21
1.7734072947542927
 31
0.0
  0
LINE
  5
5D
100
AcDbEntity
100
AcDbLine
  8
airfoil
 62
256
370
-1
  6
ByLayer
 10
97.4002961338962336
 20
1.7734072947542927
 30
0.0
 11
92.1532961338962195
 21
2.4014072947543355
 31
0.0
  0
LINE
  5
5E
100
AcDbEntity
100
AcDbLine
  8
airfoil
 62
256
370
-1
  6
ByLayer
 10
92.1532961338962195
 20
2.4014072947543355
 30
0.0
 11
86.6122961338962227
 21
3.0784072947543564
 31
0.0
  0
LINE
  5
5F
100
AcDbEntity
100
AcDbLine
  8
airfoil
 62
256
370
-1
  6
ByLayer
 10
86.6122961338962227
 20
3.0784072947543564
 30
0.0
 11
80.853296133896265
 21
3.7724072947543164
 31
0.0
  0
LINE
  5
60
100
AcDbEntity
100
AcDbLine
  8
airfoil
 62
256
370
-1
  6
ByLayer
 10
80.853296133896265
 20
3.7724072947543164
 30
0.0
 11
74.9412961338962305
 21
4.4444072947543418
 31
0.0
  0
LINE
  5
61
100
AcDbEntity
100
AcDbLine
  8
airfoil
 62
256
370
-1
  6
ByLayer
 10
74.9412961338962305
 20
4.4444072947543418
 30
0.0
 11
68.9312961338962396
 21
5.06240729475428
 31
0.0
  0
LINE
  5
62
100
AcDbEntity
100
AcDbLine
  8
airfoil
 62
256
370
-1
  6
ByLayer
 10
68.9312961338962396
 20
5.06240729475428
 30
0.0
 11
62.8752961338962564
 21
5.60440729475431
 31
0.0
  0
LINE
  5
63
100
AcDbEntity
100
AcDbLine
  8
airfoil
 62
256
370
-1
  6
ByLayer
 10
62.8752961338962564
 20
5.60440729475431
 30
0.0
 11
56.8222961338962591
 21
6.0544072947543555
 31
0.0
  0
LINE
  5
64
100
AcDbEntity
100
AcDbLine
  8
airfoil
 62
256
370
-1
  6
ByLayer
 10
56.8222961338962591
 20
6.0544072947543555
 30
0.0
 11
50.8272961338962546
 21
6.4064072947543309
 31
0.0
  0
LINE
  5
65
100
AcDbEntity
100
AcDbLine
  8
airfoil
 62
256
370
-1
  6
ByLayer
 10
50.8272961338962546
 20
6.4064072947543309
 30
0.0
 11
44.9512961338962214
 21
6.6564072947543309
 31
0.0
  0
LINE
  5
66
100
AcDbEntity
100
AcDbLine
  8
airfoil
 62
256
370
-1
  6
ByLayer
 10
44.9512961338962214
 20
6.6564072947543309
 30
0.0
 11
39.2522961338962659
 21
6.7974072947542936
 31
0.0
  0
LINE
  5
67
100
AcDbEntity
100
AcDbLine
  8
airfoil
 62
256
370
-1
  6
ByLayer
 10
39.2522961338962659
 20
6.7974072947542936
 30
0.0
 11
33.7872961338962341
 21
6.8234072947543609
 31
0.0
  0
LINE
  5
68
100
AcDbEntity
100
AcDbLine
  8
airfoil
 62
256
370
-1
  6
ByLayer
 10
33.7872961338962341
 20
6.8234072947543609
 30
0.0
 11
28.6092961338962368
 21
6.7264072947542672
 31
0.0
  0
LINE
  5
69
100
AcDbEntity
100
AcDbLine
  8
airfoil
 62
256
370
-1
  6
ByLayer
 10
28.6092961338962368
 20
6.7264072947542672
 30
0.0
 11
23.7622961338962568
 21
6.5034072947543109
 31
0.0
  0
LINE
  5
6A
100
AcDbEntity
100
AcDbLine
  8
airfoil
 62
256
370
-1
  6
ByLayer
 10
23.7622961338962568
 20
6.5034072947543109
 30
0.0
 11
19.2872961338962341
 21
6.1554072947543546
 31
0.0
  0
LINE
  5
6B
100
AcDbEntity
100
AcDbLine
  8
airfoil
 62
256
370
-1
  6
ByLayer
 10
19.2872961338962341
 20
6.1554072947543546
 30
0.0
 11
15.2182961338962457
 21
5.6864072947543036
 31
0.0
  0
LINE
  5
6C
100
AcDbEntity
100
AcDbLine
  8
airfoil
 62
256
370
-1
  6
ByLayer
 10
15.2182961338962457
 20
5.6864072947543036
 30
0.0
 11
11.5882961338962218
 21
5.1074072947543527
 31
0.0
  0
LINE
  5
6D
100
AcDbEntity
100
AcDbLine
  8
airfoil
 62
256
370
-1
  6
ByLayer
 10
11.5882961338962218
 20
5.1074072947543527
 30
0.0
 11
8.4262961338962441
 21
4.4294072947543555
 31
0.0
  0
LINE
  5
6E
100
AcDbEntity
100
AcDbLine
  8
airfoil
 62
256
370
-1
  6
ByLayer
 10
8.4262961338962441
 20
4.4294072947543555
 30
0.0
 11
5.7522961338962375
 21
3.6654072947543455
 31
0.0
  0
LINE
  5
6F
100
AcDbEntity
100
AcDbLine
  8
airfoil
 62
256
370
-1
  6
ByLayer
 10
5.7522961338962375
 20
3.6654072947543455
 30
0.0
 11
3.5762961338962214
 21
2.8344072947543282
 31
0.0
  0
LINE
  5
70
100
AcDbEntity
100
AcDbLine
  8
airfoil
 62
256
370
-1
  6
ByLayer
 10
3.5762961338962214
 20
2.8344072947543282
 30
0.0
 11
1.9062961338962339
 21
1.9714072947542718
 31
0.0
  0
LINE
  5
71
100
AcDbEntity
100
AcDbLine
  8
airfoil
 62
256
370
-1
  6
ByLayer
 10
1.9062961338962339
 20
1.9714072947542718
 30
0.0
 11
0.7462961338962373
 21
1.1164072947543673
 31
0.0
  0
LINE
  5
72
100
AcDbEntity
100
AcDbLine
  8
airfoil
 62
256
370
-1
  6
ByLayer
 10
0.7462961338962373
 20
1.1164072947543673
 30
0.0
 11
0.2382961338962275
 21
0.54840729475427
 31
0.0
  0
LINE
  5
73
100
AcDbEntity
100
AcDbLine
  8
airfoil
 62
256
370
-1
  6
ByLayer
 10
0.2382961338962275
 20
0.54840729475427
 30
0.0
 11
0.1072961338962273
 21
0.32640729475429
 31
0.0
  0
LINE
  5
74
100
AcDbEntity
100
AcDbLine
  8
airfoil
 62
256
370
-1
  6
ByLayer
 10
0.1072961338962273
 20
0.32640729475429
 30
0.0
 11
0.0252961338962336
 21
0.1224072947543391
 31
0.0
  0
LINE
  5
75
100
AcDbEntity
100
AcDbLine
  8
airfoil
 62
256
370
-1
  6
ByLayer
 10
0.0252961338962336
 20
0.1224072947543391
 30
0.0
 11
0.000296133896228
 21
-0.0005927052457082
 31
0.0
  0
LINE
  5
76
100
AcDbEntity
100
AcDbLine
  8
airfoil
 62
256
370
-1
  6
ByLayer
 10
0.000296133896228
 20
-0.0005927052457082
 30
0.0
 11
0.0062961338962282
 21
-0.1085927052456555
 31
0.0
  0
LINE
  5
77
100
AcDbEntity
100
AcDbLine
  8
airfoil
 62
256
370
-1
  6
ByLayer
 10
0.0062961338962282
 20
-0.1085927052456555
 30
0.0
 11
0.0522961338962205
 21
-0.2095927052456545
 31
0.0
  0
LINE
  5
78
100
AcDbEntity
100
AcDbLine
  8
airfoil
 62
256
370
-1
  6
ByLayer
 10
0.0522961338962205
 20
-0.2095927052456545
 30
0.0
 11
0.1352961338962473
 21
-0.3145927052456727
 31
0.0
  0
LINE
  5
79
100
AcDbEntity
100
AcDbLine
  8
airfoil
 62
256
370
-1
  6
ByLayer
 10
0.1352961338962473
 20
-0.3145927052456727
 30
0.0
 11
0.3152961338962257
 21
-0.4775927052456836
 31
0.0
  0
LINE
  5
7A
100
AcDbEntity
100
AcDbLine
  8
airfoil
 62
256
370
-1
  6
ByLayer
 10
0.3152961338962257
 20
-0.4775927052456836
 30
0.0
 11
0.5532961338962252
 21
-0.6465927052456664
 31
0.0
  0
LINE
  5
7B
100
AcDbEntity
100
AcDbLine
  8
airfoil
 62
256
370
-1
  6
ByLayer
 10
0.5532961338962252
 20
-0.6465927052456664
 30
0.0
 11
0.8322961338962216
 21
-0.8135927052456964
 31
0.0
  0
LINE
  5
7C
100
AcDbEntity
100
AcDbLine
  8
airfoil
 62
256
370
-1
  6
ByLayer
 10
0.8322961338962216
 20
-0.8135927052456964
 30
0.0
 11
2.200296133896245
 21
-1.3855927052456991
 31
0.0
  0
LINE
  5
7D
100
AcDbEntity
100
AcDbLine
  8
airfoil
 62
256
370
-1
  6
ByLayer
 10
2.200296133896245
 20
-1.3855927052456991
 30
0.0
 11
4.1592961338962482
 21
-1.9315927052456345
 31
0.0
  0
LINE
  5
7E
100
AcDbEntity
100
AcDbLine
  8
airfoil
 62
256
370
-1
  6
ByLayer
 10
4.1592961338962482
 20
-1.9315927052456345
 30
0.0
 11
6.6832961338962207
 21
-2.4255927052456627
 31
0.0
  0
LINE
  5
7F
100
AcDbEntity
100
AcDbLine
  8
airfoil
 62
256
370
-1
  6
ByLayer
 10
6.6832961338962207
 20
-2.4255927052456627
 30
0.0
 11
9.7472961338962421
 21
-2.8475927052456882
 31
0.0
  0
LINE
  5
80
100
AcDbEntity
100
AcDbLine
  8
airfoil
 62
256
370
-1
  6
ByLayer
 10
9.7472961338962421
 20
-2.8475927052456882
 30
0.0
 11
13.3292961338962357
 21
-3.1775927052457291
 31
0.0
  0
LINE
  5
81
100
AcDbEntity
100
AcDbLine
  8
airfoil
 62
256
370
-1
  6
ByLayer
 10
13.3292961338962357
 20
-3.1775927052457291
 30
0.0
 11
17.4072961338962386
 21
-3.4045927052457046
 31
0.0
  0
LINE
  5
82
100
AcDbEntity
100
AcDbLine
  8
airfoil
 62
256
370
-1
  6
ByLayer
 10
17.4072961338962386
 20
-3.4045927052457046
 30
0.0
 11
21.9542961338962073
 21
-3.5295927052457046
 31
0.0
  0
LINE
  5
83
100
AcDbEntity
100
AcDbLine
  8
airfoil
 62
256
370
-1
  6
ByLayer
 10
21.9542961338962073
 20
-3.5295927052457046
 30
0.0
 11
26.936296133896235
 21
-3.5585927052457009
 31
0.0
  0
LINE
  5
84
100
AcDbEntity
100
AcDbLine
  8
airfoil
 62
256
370
-1
  6
ByLayer
 10
26.936296133896235
 20
-3.5585927052457009
 30
0.0
 11
32.3082961338962491
 21
-3.5035927052456373
 31
0.0
  0
LINE
  5
85
100
AcDbEntity
100
AcDbLine
  8
airfoil
 62
256
370
-1
  6
ByLayer
 10
32.3082961338962491
 20
-3.5035927052456373
 30
0.0
 11
38.0162961338962191
 21
-3.3755927052457082
 31
0.0
  0
LINE
  5
86
100
AcDbEntity
100
AcDbLine
  8
airfoil
 62
256
370
-1
  6
ByLayer
 10
38.0162961338962191
 20
-3.3755927052457082
 30
0.0
 11
43.9992961338962232
 21
-3.1895927052456727
 31
0.0
  0
LINE
  5
87
100
AcDbEntity
100
AcDbLine
  8
airfoil
 62
256
370
-1
  6
ByLayer
 10
43.9992961338962232
 20
-3.1895927052456727
 30
0.0
 11
50.1952961338962496
 21
-2.9555927052456354
 31
0.0
  0
LINE
  5
88
100
AcDbEntity
100
AcDbLine
  8
airfoil
 62
256
370
-1
  6
ByLayer
 10
50.1952961338962496
 20
-2.9555927052456354
 30
0.0
 11
56.5352961338962245
 21
-2.6925927052457155
 31
0.0
  0
LINE
  5
89
100
AcDbEntity
100
AcDbLine
  8
airfoil
 62
256
370
-1
  6
ByLayer
 10
56.5352961338962245
 20
-2.6925927052457155
 30
0.0
 11
62.9422961338962068
 21
-2.4125927052456291
 31
0.0
  0
LINE
  5
8A
100
AcDbEntity
100
AcDbLine
  8
airfoil
 62
256
370
-1
  6
ByLayer
 10
62.9422961338962068
 20
-2.4125927052456291
 30
0.0
 11
69.3412961338962077
 21
-2.1275927052456609
 31
0.0
  0
LINE
  5
8B
100
AcDbEntity
100
AcDbLine
  8
airfoil
 62
256
370
-1
  6
ByLayer
 10
69.3412961338962077
 20
-2.1275927052456609
 30
0.0
 11
75.6522961338962432
 21
-1.8465927052457118
 31
0.0
  0
LINE
  5
8C
100
AcDbEntity
100
AcDbLine
  8
airfoil
 62
256
370
-1
  6
ByLayer
 10
75.6522961338962432
 20
-1.8465927052457118
 30
0.0
 11
81.7982961338962582
 21
-1.5785927052456827
 31
0.0
  0
LINE
  5
8D
100
AcDbEntity
100
AcDbLine
  8
airfoil
 62
256
370
-1
  6
ByLayer
 10
81.7982961338962582
 20
-1.5785927052456827
 30
0.0
 11
87.7032961338962309
 21
-1.3275927052457064
 31
0.0
  0
LINE
  5
8E
100
AcDbEntity
100
AcDbLine
  8
airfoil
 62
256
370
-1
  6
ByLayer
 10
87.7032961338962309
 20
-1.3275927052457064
 30
0.0
 11
93.2952961338962723
 21
-1.0965927052457118
 31
0.0
  0
LINE
  5
8F
100
AcDbEntity
100
AcDbLine
  8
airfoil
 62
256
370
-1
  6
ByLayer
 10
93.2952961338962723
 20
-1.0965927052457118
 30
0.0
 11
98.5052961338962518
 21
-0.8875927052456518
 31
0.0
  0
LINE
  5
90
100
AcDbEntity
100
AcDbLine
  8
airfoil
 62
256
370
-1
  6
ByLayer
 10
98.5052961338962518
 20
-0.8875927052456518
 30
0.0
 11
103.269296133896205
 21
-0.7065927052457255
 31
0.0
  0
LINE
  5
91
100
AcDbEntity
100
AcDbLine
  8
airfoil
 62
256
370
-1
  6
ByLayer
 10
103.269296133896205
 20
-0.7065927052457255
 30
0.0
 11
107.5262961338962668
 21
-0.5495927052456864
 31
0.0
  0
LINE
  5
92
100
AcDbEntity
100
AcDbLine
  8
airfoil
 62
256
370
-1
  6
ByLayer
 10
107.5262961338962668
 20
-0.5495927052456864
 30
0.0
 11
111.2232961338962696
 21
-0.4175927052456245
 31
0.0
  0
LINE
  5
93
100
AcDbEntity
100
AcDbLine
  8
airfoil
 62
256
370
-1
  6
ByLayer
 10
111.2232961338962696
 20
-0.4175927052456245
 30
0.0
 11
114.3132961338962446
 21
-0.3065927052456345
 31
0.0
  0
LINE
  5
94
100
AcDbEntity
100
AcDbLine
  8
airfoil
 62
256
370
-1
  6
ByLayer
 10
114.3132961338962446
 20
-0.3065927052456345
 30
0.0
 11
116.7582961338962377
 21
-0.2125927052456973
 31
0.0
  0
LINE
  5
95
100
AcDbEntity
100
AcDbLine
  8
airfoil
 62
256
370
-1
  6
ByLayer
 10
116.7582961338962377
 20
-0.2125927052456973
 30
0.0
 11
118.5312961338962623
 21
-0.1265927052456846
 31
0.0
  0
LINE
  5
96
100
AcDbEntity
100
AcDbLine
  8
airfoil
 62
256
370
-1
  6
ByLayer
 10
118.5312961338962623
 20
-0.1265927052456846
 30
0.0
 11
119.6232961338962468
 21
-0.0595927052456773
 31
0.0
  0
LINE
  5
97
100
AcDbEntity
100
AcDbLine
  8
airfoil
 62
256
370
-1
  6
ByLayer
 10
119.6232961338962468
 20
-0.0595927052456773
 30
0.0
 11
119.9992961338962232
 21
-0.0355927052456764
 31
0.0
  0
ENDBLK
  5
98
100
AcDbEntity
  8
0
100
AcDbBlockEnd
  0
ENDSEC
  0
SECTION
  2
ENTITIES
  0
LINE
  5
99
100
AcDbEntity
100
AcDbLine
  8
wing
 62
256
370
-1
  6
ByLayer
 10
0.0
 20
0.0
 30
0.0
 11
750.0
 21
180.0
 31
0.0
  0
LINE
  5
9A
100
AcDbEntity
100
AcDbLine
  8
wing
 62
256
370
-1
  6
ByLayer
 10
750.0
 20
180.0
 30
0.0
 11
750.0
 21
600.0
 31
0.0
  0
LINE
  5
9B
100
AcDbEntity
100
AcDbLine
  8
wing
 62
256
370
-1
  6
ByLayer
 10
750.0
 20
600.0
 30
0.0
 11
0.0
 21
260.0
 31
0.0
  0
LINE
  5
9C
100
AcDbEntity
100
AcDbLine
  8
wing
 62
256
370
-1
  6
ByLayer
 10
0.0
 20
260.0
 30
0.0
 11
0.0
 21
0.0
 31
0.0
  0
POINT
  5
9D
100
AcDbEntity
100
AcDbPoint
  8
0
 62
256
370
-1
  6
ByLayer
 10
164.1337386018237794
 20
332.8267477203648923
 30
0.0
  0
INSERT
  5
9E
100
AcDbEntity
100
AcDbBlockReference
  8
wing
 62
256
370
-1
  6
ByLayer
  2
outer wing
 10
-1.4589665653495452
 20
1.4589665653495452
 30
0.0
  0
INSERT
  5
9F
100
AcDbEntity
100
AcDbBlockReference
  8
wing
 62
256
370
-1
  6
ByLayer
  2
outer wing
 10
1800.0
 20
0.0000000000000061
 30
0.0
 41
1.0
 42
-1.0
 43
1.0
 50
180.0
 44
1.0
 45
1.0
  0
LINE
  5
A0
100
AcDbEntity
100
AcDbLine
  8
wing
 62
256
370
-1
  6
ByLayer
 10
750.0
 20
600.0
 30
0.0
 11
1050.0
 21
600.0
 31
0.0
  0
LINE
  5
A1
100
AcDbEntity
100
AcDbLine
  8
wing
 62
256
370
-1
  6
ByLayer
 10
1050.0
 20
600.0
 30
0.0
 11
1050.0
 21
180.0
 31
0.0
  0
LINE
  5
A2
100
AcDbEntity
100
AcDbLine
  8
wing
 62
256
370
-1
  6
ByLayer
 10
1050.0
 20
180.0
 30
0.0
 11
750.0
 21
180.0
 31
0.0
  0
LINE
  5
A3
100
AcDbEntity
100
AcDbLine
  8
wing
 62
256
370
-1
  6
ByLayer
 10
750.0
 20
180.0
 30
0.0
 11
750.0
 21
600.0
 31
0.0
  0
LINE
  5
A4
100
AcDbEntity
100
AcDbLine
  8
blatt
 62
256
370
-1
  6
ByLayer
 10
-300.0
 20
-1200.0
 30
0.0
 11
2670.0
 21
-1200.0
 31
0.0
  0
LINE
  5
A5
100
AcDbEntity
100
AcDbLine
  8
blatt
 62
256
370
-1
  6
ByLayer
 10
2670.0
 20
-1200.0
 30
0.0
 11
2670.0
 21
900.0
 31
0.0
  0
LINE
  5
A6
100
AcDbEntity
100
AcDbLine
  8
blatt
 62
256
370
-1
  6
ByLayer
 10
2670.0
 20
900.0
 30
0.0
 11
-300.0
 21
900.0
 31
0.0
  0
LINE
  5
A7
100
AcDbEntity
100
AcDbLine
  8
blatt
 62
256
370
-1
  6
ByLayer
 10
-300.0
 20
900.0
 30
0.0
 11
-300.0
 21
-1200.0
 31
0.0
  0
LINE
  5
A8
100
AcDbEntity
100
AcDbLine
  8
blatt
 62
256
370
-1
  6
ByLayer
 10
2670.0
 20
-900.0
 30
0.0
 11
2670.0
 21
-1200.0
 31
0.0
  0
LINE
  5
A9
100
AcDbEntity
100
AcDbLine
  8
blatt
 62
256
370
-1
  6
ByLayer
 10
2670.0
 20
-1200.0
 30
0.0
 11
1900.0
 21
-1200.0
 31
0.0
  0
MTEXT
  5
AA
100
AcDbEntity
100
AcDbMText
  8
blatt
 62
256
370
-1
  6
ByLayer
 10
1920.0
 20
-1160.0
 30
0.0
 40
20.0
 41
100.0
 71
1
 72
2
  1
\U+00a9 2013, Simon Wunderlin
  7
iso
 50
0.0
 73
0
 44
1.0
  0
LINE
  5
AB
100
AcDbEntity
100
AcDbLine
  8
blatt
 62
256
370
-1
  6
ByLayer
 10
1900.0
 20
-1140.0
 30
0.0
 11
2670.0
 21
-1140.0
 31
0.0
  0
MTEXT
  5
AC
100
AcDbEntity
100
AcDbMText
  8
blatt
 62
256
370
-1
  6
ByLayer
 10
2380.0
 20
-1160.0
 30
0.0
 40
20.0
 41
100.0
 71
1
 72
2
  1
Rev. 1.0, 2013-08-02
  7
iso
 50
0.0
 73
0
 44
1.0
  0
LINE
  5
AD
100
AcDbEntity
100
AcDbLine
  8
blatt
 62
256
370
-1
  6
ByLayer
 10
2340.0
 20
-1140.0
 30
0.0
 11
2340.0
 21
-1200.0
 31
0.0
  0
MTEXT
  5
AE
100
AcDbEntity
100
AcDbMText
  8
blatt
 62
256
370
-1
  6
ByLayer
 10
1920.0
 20
-1100.0
 30
0.0
 40
20.0
 41
100.0
 71
1
 72
2
  1
Scale: 1:10
  7
iso
 50
0.0
 73
0
 44
1.0
  0
LINE
  5
AF
100
AcDbEntity
100
AcDbLine
  8
blatt
 62
256
370
-1
  6
ByLayer
 10
1900.0
 20
-1080.0
 30
0.0
 11
2670.0
 21
-1080.0
 31
0.0
  0
LINE
  5
B0
100
AcDbEntity
100
AcDbLine
  8
blatt
 62
256
370
-1
  6
ByLayer
 10
1900.0
 20
-990.0
 30
0.0
 11
2670.0
 21
-990.0
 31
0.0
  0
MTEXT
  5
B1
100
AcDbEntity
100
AcDbMText
  8
blatt
 62
256
370
-1
  6
ByLayer
 10
1920.0
 20
-1010.0
 30
0.0
 40
40.0
 41
100.0
 71
1
 72
2
  1
Wing-X Blunt Nose, 1.8m
  7
iso
 50
0.0
 73
0
 44
1.0
  0
LINE
  5
B2
100
AcDbEntity
100
AcDbLine
  8
blatt
 62
256
370
-1
  6
ByLayer
 10
1900.0
 20
-1080.0
 30
0.0
 11
2670.0
 21
-1080.0
 31
0.0
  0
LINE
  5
B3
100
AcDbEntity
100
AcDbLine
  8
blatt
 62
256
370
-1
  6
ByLayer
 10
1900.0
 20
-990.0
 30
0.0
 11
1900.0
 21
-1200.0
 31
0.0
  0
LINE
  5
B4
100
AcDbEntity
100
AcDbLine
  8
helpers
 62
256
370
-1
  6
ByLayer
 10
420.0
 20
-150.0
 30
0.0
 11
420.0
 21
-250.0
 31
0.0
  0
LINE
  5
B5
100
AcDbEntity
100
AcDbLine
  8
helpers
 62
256
370
-1
  6
ByLayer
 10
0.0
 20
-400.0
 30
0.0
 11
600.0
 21
-400.0
 31
0.0
  0
LINE
  5
B6
100
AcDbEntity
100
AcDbLine
  8
airfoil
 62
256
370
-1
  6
ByLayer
 10
340.0
 20
-400.0
 30
0.0
 11
-20.0
 21
-400.0
 31
0.0
  0
LINE
  5
B7
100
AcDbEntity
100
AcDbLine
  8
airfoil
 62
256
370
-1
  6
ByLayer
 10
-20.0
 20
-420.0
 30
0.0
 11
620.0
 21
-420.0
 31
0.0
  0
LINE
  5
B8
100
AcDbEntity
100
AcDbLine
  8
airfoil
 62
256
370
-1
  6
ByLayer
 10
600.0
 20
-400.0
 30
0.0
 11
600.0
 21
-400.0
 31
0.0
  0
LINE
  5
B9
100
AcDbEntity
100
AcDbLine
  8
airfoil
 62
256
370
-1
  6
ByLayer
 10
-20.0
 20
-400.0
 30
0.0
 11
-20.0
 21
-400.0
 31
0.0
  0
INSERT
  5
BA
100
AcDbEntity
100
AcDbBlockReference
  8
airfoil
 62
256
370
-1
  6
ByLayer
  2
mh-64-li
 10
340.0
 20
-400.0
 30
0.0
 41
2.1666666659999998
 42
2.1666666659999998
 43
1.0
 50
1.5000000000000084
  0
LINE
  5
BB
100
AcDbEntity
100
AcDbLine
  8
airfoil
 62
256
370
-1
  6
ByLayer
 10
620.0
 20
-393.2699999999999818
 30
0.0
 11
600.0
 21
-393.2699999999999818
 31
0.0
  0
DIMENSION
  5
BC
100
AcDbEntity
  8
Masse
 62
256
370
-1
  6
ByLayer
100
AcDbDimension
 10
670.0
 20
-393.3000000000000114
 30
0.0
 11
657.5
 21
-406.6499999999999773
 31
0.0
 70
1
 71
5
 72
0
 41
1.0
 42
0.0
  1

  3
Standard
100
AcDbAlignedDimension
 13
620.0
 23
-420.0
 33
0.0
 14
620.0
 24
-393.3000000000000114
 34
0.0
  0
DIMENSION
  5
BD
100
AcDbEntity
  8
Masse
 62
256
370
-1
  6
ByLayer
100
AcDbDimension
 10
340.0
 20
-450.0
 30
0.0
 11
160.0
 21
-437.5
 31
0.0
 70
0
 71
5
 72
0
 41
1.0
 42
0.0
  1

  3
Standard
100
AcDbAlignedDimension
 13
-20.0
 23
-420.0
 33
0.0
 14
340.0
 24
-400.0
 34
0.0
 50
0.0
100
AcDbRotatedDimension
  0
DIMENSION
  5
BE
100
AcDbEntity
  8
Masse
 62
256
370
-1
  6
ByLayer
100
AcDbDimension
 10
340.0
 20
-450.0
 30
0.0
 11
470.0
 21
-437.5
 31
0.0
 70
0
 71
5
 72
0
 41
1.0
 42
0.0
  1

  3
Standard
100
AcDbAlignedDimension
 13
600.0
 23
-420.0
 33
0.0
 14
340.0
 24
-420.0
 34
0.0
 50
0.0
100
AcDbRotatedDimension
  0
DIMENSION
  5
BF
100
AcDbEntity
  8
Masse
 62
256
370
-1
  6
ByLayer
100
AcDbDimension
 10
620.0
 20
-450.0
 30
0.0
 11
610.0
 21
-437.5
 31
0.0
 70
0
 71
5
 72
0
 41
1.0
 42
0.0
  1

  3
Standard
100
AcDbAlignedDimension
 13
600.0
 23
-420.0
 33
0.0
 14
620.0
 24
-420.0
 34
0.0
 50
0.0
100
AcDbRotatedDimension
  0
INSERT
  5
C0
100
AcDbEntity
100
AcDbBlockReference
  8
airfoil
 62
256
370
-1
  6
ByLayer
  2
mh-64-li
 10
0.0
 20
-580.0
 30
0.0
 41
3.4999999980897432
 42
3.4999999980897432
 43
1.0
  0
LINE
  5
C1
100
AcDbEntity
100
AcDbLine
  8
helpers
 62
256
370
-1
  6
ByLayer
 10
420.0
 20
-330.0
 30
0.0
 11
420.0
 21
-780.0
 31
0.0
  0
LINE
  5
C2
100
AcDbEntity
100
AcDbLine
  8
helpers
 62
256
370
-1
  6
ByLayer
 10
600.0
 20
-230.0
 30
0.0
 11
600.0
 21
-780.0
 31
0.0
  0
LINE
  5
C3
100
AcDbEntity
100
AcDbLine
  8
helpers
 62
256
370
-1
  6
ByLayer
 10
0.0
 20
-580.0
 30
0.0
 11
600.0
 21
-580.0
 31
0.0
  0
LINE
  5
C4
100
AcDbEntity
100
AcDbLine
  8
airfoil
 62
256
370
-1
  6
ByLayer
 10
0.0
 20
-580.0
 30
0.0
 11
-20.0
 21
-580.0
 31
0.0
  0
LINE
  5
C5
100
AcDbEntity
100
AcDbLine
  8
airfoil
 62
256
370
-1
  6
ByLayer
 10
-20.0
 20
-580.0
 30
0.0
 11
-20.0
 21
-600.0
 31
0.0
  0
LINE
  5
C6
100
AcDbEntity
100
AcDbLine
  8
airfoil
 62
256
370
-1
  6
ByLayer
 10
-20.0
 20
-600.0
 30
0.0
 11
620.0
 21
-600.0
 31
0.0
  0
LINE
  5
C7
100
AcDbEntity
100
AcDbLine
  8
airfoil
 62
256
370
-1
  6
ByLayer
 10
620.0
 20
-600.0
 30
0.0
 11
620.0
 21
-580.0
 31
0.0
  0
LINE
  5
C8
100
AcDbEntity
100
AcDbLine
  8
airfoil
 62
256
370
-1
  6
ByLayer
 10
620.0
 20
-580.0
 30
0.0
 11
420.0
 21
-580.0
 31
0.0
  0
LINE
  5
C9
100
AcDbEntity
100
AcDbLine
  8
airfoil
 62
256
370
-1
  6
ByLayer
 10
420.0
 20
-580.0
 30
0.0
 11
420.0
 21
-580.0
 31
0.0
  0
LINE
  5
CA
100
AcDbEntity
100
AcDbLine
  8
airfoil
 62
256
370
-1
  6
ByLayer
 10
-20.0
 20
-580.0
 30
0.0
 11
-20.0
 21
-550.0
 31
0.0
  0
LINE
  5
CB
100
AcDbEntity
100
AcDbLine
  8
airfoil
 62
256
370
-1
  6
ByLayer
 10
-20.0
 20
-550.0
 30
0.0
 11
620.0
 21
-550.0
 31
0.0
  0
LINE
  5
CC
100
AcDbEntity
100
AcDbLine
  8
airfoil
 62
256
370
-1
  6
ByLayer
 10
620.0
 20
-550.0
 30
0.0
 11
620.0
 21
-580.0
 31
0.0
  0
LINE
  5
CD
100
AcDbEntity
100
AcDbLine
  8
airfoil
 62
256
370
-1
  6
ByLayer
 10
620.0
 20
-580.0
 30
0.0
 11
620.0
 21
-580.0
 31
0.0
  0
DIMENSION
  5
CE
100
AcDbEntity
  8
Masse
 62
256
370
-1
  6
ByLayer
100
AcDbDimension
 10
-0.0000000000000031
 20
-630.0
 30
0.0
 11
-10.0
 21
-617.5
 31
0.0
 70
0
 71
5
 72
0
 41
1.0
 42
0.0
  1

  3
Standard
100
AcDbAlignedDimension
 13
-20.0
 23
-600.0
 33
0.0
 14
0.0
 24
-580.0
 34
0.0
 50
0.0
100
AcDbRotatedDimension
  0
DIMENSION
  5
CF
100
AcDbEntity
  8
Masse
 62
256
370
-1
  6
ByLayer
100
AcDbDimension
 10
420.0
 20
-630.0
 30
0.0
 11
210.0
 21
-617.5
 31
0.0
 70
0
 71
5
 72
0
 41
1.0
 42
0.0
  1

  3
Standard
100
AcDbAlignedDimension
 13
0.0
 23
-600.0
 33
0.0
 14
420.0
 24
-600.0
 34
0.0
 50
0.0
100
AcDbRotatedDimension
  0
DIMENSION
  5
D0
100
AcDbEntity
  8
Masse
 62
256
370
-1
  6
ByLayer
100
AcDbDimension
 10
620.0
 20
-630.0
 30
0.0
 11
520.0
 21
-617.5
 31
0.0
 70
0
 71
5
 72
0
 41
1.0
 42
0.0
  1

  3
Standard
100
AcDbAlignedDimension
 13
420.0
 23
-600.0
 33
0.0
 14
620.0
 24
-600.0
 34
0.0
 50
0.0
100
AcDbRotatedDimension
  0
DIMENSION
  5
D1
100
AcDbEntity
  8
Masse
 62
256
370
-1
  6
ByLayer
100
AcDbDimension
 10
620.0
 20
-660.0
 30
0.0
 11
300.0
 21
-647.5
 31
0.0
 70
0
 71
5
 72
0
 41
1.0
 42
0.0
  1

  3
Standard
100
AcDbAlignedDimension
 13
-20.0
 23
-600.0
 33
0.0
 14
620.0
 24
-600.0
 34
0.0
 50
0.0
100
AcDbRotatedDimension
  0
DIMENSION
  5
D2
100
AcDbEntity
  8
Masse
 62
256
370
-1
  6
ByLayer
100
AcDbDimension
 10
670.0
 20
-580.0
 30
0.0
 11
657.5
 21
-565.0
 31
0.0
 70
0
 71
5
 72
0
 41
1.0
 42
0.0
  1

  3
Standard
100
AcDbAlignedDimension
 13
620.0
 23
-550.0
 33
0.0
 14
620.0
 24
-580.0
 34
0.0
 50
90.0
100
AcDbRotatedDimension
  0
DIMENSION
  5
D3
100
AcDbEntity
  8
Masse
 62
256
370
-1
  6
ByLayer
100
AcDbDimension
 10
670.0
 20
-600.0
 30
0.0
 11
657.5
 21
-590.0
 31
0.0
 70
0
 71
5
 72
0
 41
1.0
 42
0.0
  1

  3
Standard
100
AcDbAlignedDimension
 13
620.0
 23
-580.0
 33
0.0
 14
620.0
 24
-600.0
 34
0.0
 50
90.0
100
AcDbRotatedDimension
  0
DIMENSION
  5
D4
100
AcDbEntity
  8
Masse
 62
256
370
-1
  6
ByLayer
100
AcDbDimension
 10
700.0
 20
-550.0
 30
0.0
 11
687.5
 21
-575.0
 31
0.0
 70
0
 71
5
 72
0
 41
1.0
 42
0.0
  1

  3
Standard
100
AcDbAlignedDimension
 13
620.0
 23
-600.0
 33
0.0
 14
620.0
 24
-550.0
 34
0.0
 50
90.0
100
AcDbRotatedDimension
  0
LINE
  5
D5
100
AcDbEntity
100
AcDbLine
  8
airfoil
 62
256
370
-1
  6
ByLayer
 10
620.0
 20
-370.0
 30
0.0
 11
-20.0
 21
-370.0
 31
0.0
  0
LINE
  5
D6
100
AcDbEntity
100
AcDbLine
  8
airfoil
 62
256
370
-1
  6
ByLayer
 10
620.0
 20
-370.0
 30
0.0
 11
620.0
 21
-420.0
 31
0.0
  0
LINE
  5
D7
100
AcDbEntity
100
AcDbLine
  8
airfoil
 62
256
370
-1
  6
ByLayer
 10
620.0
 20
-420.0
 30
0.0
 11
620.0
 21
-420.0
 31
0.0
  0
LINE
  5
D8
100
AcDbEntity
100
AcDbLine
  8
airfoil
 62
256
370
-1
  6
ByLayer
 10
-20.0
 20
-370.0
 30
0.0
 11
-20.0
 21
-420.0
 31
0.0
  0
DIMENSION
  5
D9
100
AcDbEntity
  8
Masse
 62
256
370
-1
  6
ByLayer
100
AcDbDimension
 10
670.0
 20
-393.3000000000000114
 30
0.0
 11
657.5
 21
-381.6499999999999773
 31
0.0
 70
0
 71
5
 72
0
 41
1.0
 42
0.0
  1

  3
Standard
100
AcDbAlignedDimension
 13
620.0
 23
-370.0
 33
0.0
 14
620.0
 24
-393.3000000000000114
 34
0.0
 50
90.0
100
AcDbRotatedDimension
  0
DIMENSION
  5
DA
100
AcDbEntity
  8
Masse
 62
256
370
-1
  6
ByLayer
100
AcDbDimension
 10
700.0
 20
-420.0
 30
0.0
 11
687.5
 21
-395.0
 31
0.0
 70
0
 71
5
 72
0
 41
1.0
 42
0.0
  1

  3
Standard
100
AcDbAlignedDimension
 13
620.0
 23
-370.0
 33
0.0
 14
620.0
 24
-420.0
 34
0.0
 50
90.0
100
AcDbRotatedDimension
  0
LINE
  5
DB
100
AcDbEntity
100
AcDbLine
  8
wing
 62
256
370
-1
  6
ByLayer
 10
0.0
 20
50.0
 30
0.0
 11
750.0
 21
230.0
 31
0.0
  0
LINE
  5
DC
100
AcDbEntity
100
AcDbLine
  8
wing
 62
256
370
-1
  6
ByLayer
 10
1050.0
 20
230.0
 30
0.0
 11
1800.0
 21
50.0
 31
0.0
  0
DIMENSION
  5
DD
100
AcDbEntity
  8
Masse
 62
256
370
-1
  6
ByLayer
100
AcDbDimension
 10
290.0
 20
-400.0
 30
0.0
 11
277.5
 21
-385.0
 31
0.0
 70
0
 71
5
 72
0
 41
1.0
 42
0.0
  1

  3
Standard
100
AcDbAlignedDimension
 13
310.0
 23
-370.0
 33
0.0
 14
310.0
 24
-400.0
 34
0.0
 50
90.0
100
AcDbRotatedDimension
  0
DIMENSION
  5
DE
100
AcDbEntity
  8
Masse
 62
256
370
-1
  6
ByLayer
100
AcDbDimension
 10
290.0
 20
-420.0
 30
0.0
 11
277.5
 21
-410.0
 31
0.0
 70
0
 71
5
 72
0
 41
1.0
 42
0.0
  1

  3
Standard
100
AcDbAlignedDimension
 13
310.0
 23
-400.0
 33
0.0
 14
310.0
 24
-420.0
 34
0.0
 50
90.0
100
AcDbRotatedDimension
  0
LINE
  5
DF
100
AcDbEntity
100
AcDbLine
  8
helpers
 62
256
370
-1
  6
ByLayer
 10
332.1999999999999886
 20
-400.3000000000000682
 30
0.0
 11
722.0650000000000546
 21
-390.2050000000001546
 31
0.0
  0
MTEXT
  5
E0
100
AcDbEntity
100
AcDbMText
  8
text
 62
256
370
-1
  6
ByLayer
 10
548.0
 20
-403.0
 30
0.0
 40
5.0
 41
100.0
 71
1
 72
2
  1
Wing twist: 1.5%%d
  7
iso
 50
0.0
 73
0
 44
1.0
  0
DIMENSION
  5
E1
100
AcDbEntity
  8
Masse
 62
256
370
-1
  6
ByLayer
100
AcDbDimension
 10
750.0
 20
-100.0
 30
0.0
 11
375.0
 21
-87.5
 31
0.0
 70
0
 71
5
 72
0
 41
1.0
 42
0.0
  1

  3
Standard
100
AcDbAlignedDimension
 13
0.0
 23
0.0
 33
0.0
 14
750.0
 24
180.0
 34
0.0
 50
0.0
100
AcDbRotatedDimension
  0
DIMENSION
  5
E2
100
AcDbEntity
  8
Masse
 62
256
370
-1
  6
ByLayer
100
AcDbDimension
 10
-100.0
 20
260.0
 30
0.0
 11
-112.5
 21
430.0
 31
0.0
 70
0
 71
5
 72
0
 41
1.0
 42
0.0
  1

  3
Standard
100
AcDbAlignedDimension
 13
750.0
 23
600.0
 33
0.0
 14
0.0
 24
260.0
 34
0.0
 50
90.0
100
AcDbRotatedDimension
  0
DIMENSION
  5
E3
100
AcDbEntity
  8
Masse
 62
256
370
-1
  6
ByLayer
100
AcDbDimension
 10
-100.0
 20
0.0000000000000122
 30
0.0
 11
-112.5
 21
130.0
 31
0.0
 70
0
 71
5
 72
0
 41
1.0
 42
0.0
  1

  3
Standard
100
AcDbAlignedDimension
 13
0.0
 23
260.0
 33
0.0
 14
0.0
 24
0.0
 34
0.0
 50
90.0
100
AcDbRotatedDimension
  0
DIMENSION
  5
E4
100
AcDbEntity
  8
Masse
 62
256
370
-1
  6
ByLayer
100
AcDbDimension
 10
-70.0
 20
0.0000000000000086
 30
0.0
 11
-82.5
 21
24.9999999999999964
 31
0.0
 70
0
 71
5
 72
0
 41
1.0
 42
0.0
  1

  3
Standard
100
AcDbAlignedDimension
 13
0.0
 23
50.0
 33
0.0
 14
0.0
 24
0.0
 34
0.0
 50
90.0
100
AcDbRotatedDimension
  0
DIMENSION
  5
E5
100
AcDbEntity
  8
Masse
 62
256
370
-1
  6
ByLayer
100
AcDbDimension
 10
1050.0
 20
-100.0
 30
0.0
 11
900.0
 21
-87.5
 31
0.0
 70
0
 71
5
 72
0
 41
1.0
 42
0.0
  1

  3
Standard
100
AcDbAlignedDimension
 13
750.0
 23
180.0
 33
0.0
 14
1050.0
 24
180.0
 34
0.0
 50
0.0
100
AcDbRotatedDimension
  0
DIMENSION
  5
E6
100
AcDbEntity
  8
Masse
 62
256
370
-1
  6
ByLayer
100
AcDbDimension
 10
1800.0
 20
-100.0
 30
0.0
 11
1425.0
 21
-87.5
 31
0.0
 70
0
 71
5
 72
0
 41
1.0
 42
0.0
  1

  3
Standard
100
AcDbAlignedDimension
 13
1050.0
 23
180.0
 33
0.0
 14
1800.0
 24
0.0
 34
0.0
 50
0.0
100
AcDbRotatedDimension
  0
DIMENSION
  5
E7
100
AcDbEntity
  8
Masse
 62
256
370
-1
  6
ByLayer
100
AcDbDimension
 10
800.0
 20
180.0
 30
0.0
 11
787.5
 21
90.0
 31
0.0
 70
0
 71
5
 72
0
 41
1.0
 42
0.0
  1

  3
Standard
100
AcDbAlignedDimension
 13
0.0
 23
0.0
 33
0.0
 14
750.0
 24
180.0
 34
0.0
 50
90.0
100
AcDbRotatedDimension
  0
DIMENSION
  5
E8
100
AcDbEntity
  8
Masse
 62
256
370
-1
  6
ByLayer
100
AcDbDimension
 10
800.0
 20
600.0
 30
0.0
 11
787.5
 21
390.0
 31
0.0
 70
0
 71
5
 72
0
 41
1.0
 42
0.0
  1

  3
Standard
100
AcDbAlignedDimension
 13
750.0
 23
180.0
 33
0.0
 14
750.0
 24
600.0
 34
0.0
 50
90.0
100
AcDbRotatedDimension
  0
MTEXT
  5
E9
100
AcDbEntity
100
AcDbMText
  8
text
 62
256
370
-1
  6
ByLayer
 10
1420.1672374798067722
 20
276.5296284329564855
 30
0.0
 40
5.0
 41
100.0
 71
1
 72
2
  1
Wing Area: 0.636 m^2
  7
iso
 50
0.0
 73
0
 44
1.0
  0
DIMENSION
  5
EA
100
AcDbEntity
  8
Masse
 62
256
370
-1
  6
ByLayer
100
AcDbDimension
 10
117.0
 20
-556.1000000000000227
 30
0.0
 11
104.5
 21
-574.25
 31
0.0
 70
0
 71
5
 72
1
 41
1.0
 42
0.0
  1

  3
Standard
100
AcDbAlignedDimension
 13
92.5000000000000142
 23
-592.4000000000000909
 33
0.0
 14
118.5
 24
-556.1000000000000227
 34
0.0
 50
90.0
100
AcDbRotatedDimension
  0
ENDSEC
  0
SECTION
  2
OBJECTS
  0
DICTIONARY
  5
C
100
AcDbDictionary
280
0
281
1
  3
ACAD_GROUP
350
D
  3
ACAD_LAYOUT
350
1A
  3
ACAD_MLINESTYLE
350
17
  3
ACAD_PLOTSETTINGS
350
19
  3
ACAD_PLOTSTYLENAME
350
E
  3
AcDbVariableDictionary
350
EB
  0
DICTIONARY
  5
D
100
AcDbDictionary
280
0
281
1
  0
ACDBDICTIONARYWDFLT
  5
E
100
AcDbDictionary
281
1
  3
Normal
350
F
100
AcDbDictionaryWithDefault
340
F
  0
ACDBPLACEHOLDER
  5
F
  0
DICTIONARY
  5
17
100
AcDbDictionary
280
0
281
1
  3
Standard
350
18
  0
MLINESTYLE
  5
18
100
AcDbMlineStyle
  2
STANDARD
 70
0
  3

 62
256
 51
90.0
 52
90.0
 71
2
 49
0.5
 62
256
  6
BYLAYER
 49
-0.5
 62
256
  6
BYLAYER
  0
DICTIONARY
  5
19
100
AcDbDictionary
280
0
281
1
  0
DICTIONARY
  5
1A
100
AcDbDictionary
281
1
  3
Layout1
350
1E
  3
Layout2
350
26
  3
Model
350
22
  0
LAYOUT
  5
1E
100
AcDbPlotSettings
  1

  2
C:\Program Files\AutoCAD 2002\plotters\DWF ePlot (optimized for plotting).pc3
  4

  6

 40
0.0
 41
0.0
 42
0.0
 43
0.0
 44
0.0
 45
0.0
 46
0.0
 47
0.0
 48
0.0
 49
0.0
140
0.0
141
0.0
142
1.0
143
1.0
 70
688
 72
0
 73
0
 74
5
  7

 75
16
147
1.0
148
0.0
149
0.0
100
AcDbLayout
  1
Layout1
 70
1
 71
1
 10
0.0
 20
0.0
 11
420.0
 21
297.0
 12
0.0
 22
0.0
 32
0.0
 14
100000000000000000000.0
 24
100000000000000000000.0
 34
100000000000000000000.0
 15
-100000000000000000000.0
 25
-100000000000000000000.0
 35
-100000000000000000000.0
146
0.0
 13
0.0
 23
0.0
 33
0.0
 16
1.0
 26
0.0
 36
0.0
 17
0.0
 27
1.0
 37
0.0
 76
0
330
1B
  0
LAYOUT
  5
22
100
AcDbPlotSettings
  1

  2
C:\Program Files\AutoCAD 2002\plotters\DWF ePlot (optimized for plotting).pc3
  4

  6

 40
0.0
 41
0.0
 42
0.0
 43
0.0
 44
0.0
 45
0.0
 46
0.0
 47
0.0
 48
0.0
 49
0.0
140
0.0
141
0.0
142
1.0
143
1.0
 70
1712
 72
0
 73
0
 74
0
  7

 75
0
147
1.0
148
0.0
149
0.0
100
AcDbLayout
  1
Model
 70
1
 71
0
 10
0.0
 20
0.0
 11
12.0
 21
9.0
 12
0.0
 22
0.0
 32
0.0
 14
0.0
 24
0.0
 34
0.0
 15
0.0
 25
0.0
 35
0.0
146
0.0
 13
0.0
 23
0.0
 33
0.0
 16
1.0
 26
0.0
 36
0.0
 17
0.0
 27
1.0
 37
0.0
 76
0
330
1F
  0
LAYOUT
  5
26
100
AcDbPlotSettings
  1

  2
C:\Program Files\AutoCAD 2002\plotters\DWF ePlot (optimized for plotting).pc3
  4

  6

 40
0.0
 41
0.0
 42
0.0
 43
0.0
 44
0.0
 45
0.0
 46
0.0
 47
0.0
 48
0.0
 49
0.0
140
0.0
141
0.0
142
1.0
143
1.0
 70
688
 72
0
 73
0
 74
5
  7

 75
16
147
1.0
148
0.0
149
0.0
100
AcDbLayout
  1
Layout2
 70
1
 71
2
 10
0.0
 20
0.0
 11
12.0
 21
9.0
 12
0.0
 22
0.0
 32
0.0
 14
0.0
 24
0.0
 34
0.0
 15
0.0
 25
0.0
 35
0.0
146
0.0
 13
0.0
 23
0.0
 33
0.0
 16
1.0
 26
0.0
 36
0.0
 17
0.0
 27
1.0
 37
0.0
 76
0
330
23
  0
DICTIONARY
  5
EB
100
AcDbDictionary
281
1
  3
DIMASSOC
350
ED
  3
HIDETEXT
350
EC
  0
DICTIONARYVAR
  5
EC
100
DictionaryVariables
280
0
  1
2
  0
DICTIONARYVAR
  5
ED
100
DictionaryVariables
280
0
  1
1
  0
ENDSEC
  0
EOF
